{
.appVersion = "3058";
.formatVersion = 3;
axes = (
{
name = Weight;
tag = wght;
}
);
classes = (
{
code = "a aacute abreve acircumflex adieresis adotbelow agrave ahook amacron aogonek aring aringacute atilde abreveacute abrevedotbelow abrevegrave abrevehook abrevetilde acircumflexacute acircumflexdotbelow acircumflexgrave acircumflexhook acircumflextilde";
name = lca_dflt;
},
{
code = "a.alt01 aacute.alt01 abreve.alt01 acircumflex.alt01 adieresis.alt01 adotbelow.alt01 agrave.alt01 ahook.alt01 amacron.alt01 aogonek.alt01 aring.alt01 aringacute.alt01 atilde.alt01 abreveacute.alt01 abrevedotbelow.alt01 abrevegrave.alt01 abrevehook.alt01 abrevetilde.alt01 acircumflexacute.alt01 acircumflexdotbelow.alt01 acircumflexgrave.alt01 acircumflexhook.alt01 acircumflextilde.alt01";
name = lca_alt1;
},
{
code = "uni0430 uni04D3 uni04D1";
name = lca_cyrl_dflt;
},
{
code = "uni0430.alt01 uni04D3.alt01 uni04D1.alt01";
name = lca_cyrl_alt1;
},
{
code = "g gbreve gcircumflex gcommaaccent gdotaccent";
name = lcg_dflt;
},
{
code = "g.alt01 gbreve.alt01 gcircumflex.alt01 gcommaaccent.alt01 gdotaccent.alt01";
name = lcg_alt1;
},
{
code = "zero one two three four five six seven eight nine";
name = numbers_dflt;
},
{
code = "zerosuperior onesuperior twosuperior threesuperior foursuperior fivesuperior sixsuperior sevensuperior eightsuperior ninesuperior";
name = numbers_sups;
},
{
code = "zeroinferior oneinferior twoinferior threeinferior fourinferior fiveinferior sixinferior seveninferior eightinferior nineinferior";
name = numbers_sinf;
},
{
code = "zero.numr one.numr two.numr three.numr four.numr five.numr six.numr seven.numr eight.numr nine.numr";
name = numbers_numr;
},
{
code = "zero.dnom one.dnom two.dnom three.dnom four.dnom five.dnom six.dnom seven.dnom eight.dnom nine.dnom";
name = numbers_dnom;
}
);
customParameters = (
{
name = glyphOrder;
value = (
a,
a.alt01,
b,
c,
d,
e,
f,
g,
g.alt01,
g.alt02,
h,
i,
j,
k,
l,
m,
n,
o,
p,
q,
r,
s,
t,
u,
v,
w,
x,
y,
z,
A,
B,
C,
D,
E,
F,
G,
H,

glyphs = (
{
glyphname = a;
lastChange = "2021-02-28 18:55:13 +0000";
layers = (
{
anchors = (
{
name = bottom;
pos = (303,0);
},
{
name = bottomright;
pos = (570,0);
},
{
name = top;
pos = (303,516);
}
);
layerId = master02;
shapes = (
{
closed = 1;
nodes = (
(570,70,l),
(498,70,l),
(498,354,ls),
(498,463,o),
(421,528,o),
(300,528,cs),
(195,528,o),
(129,478,o),
(103,424,c),
(157,384,l),
(184,431,o),
(226,460,o),
(295,460,cs),
(373,460,o),
(418,421,o),
(418,346,cs),
(418,295,l),
(308,295,ls),
(153,295,o),
(86,240,o),
(86,145,cs),
(86,48,o),
(155,-12,o),
(263,-12,cs,{
name = hr01;
}),
(347,-12,o),
(396,25,o),
(418,84,c),
(423,84,l),
(429,36,o),
(453,0,o),
(515,0,cs,{
name = hr02;
}),
(570,0,l)
);
},
{
closed = 1;
nodes = (
(211,55,o),
(170,83,o),
(170,136,cs),
(170,157,ls),
(170,207,o),
(213,235,o),
(308,235,cs),
(418,235,l),
(418,150,ls),
(418,97,o),
(359,55,o),
(277,55,cs,{
name = hr03;
})
);
}
);
width = 640;
},
{
anchors = (
{
name = bottom;
pos = (312,0);
},
{
name = bottomright;
pos = (592,0);
},
{
name = top;
pos = (312,516);
}
);
layerId = master03;
shapes = (
{
closed = 1;
nodes = (
(592,107,l),
(535,107,l),
(535,333,ls),
(535,463,o),
(451,528,o),
(310,528,cs),
(195,528,o),
(120,485,o),
(86,427,c),
(167,355,l),
(195,393,o),
(231,420,o),
(293,420,cs),
(361,420,o),
(387,388,o),
(387,327,cs),
(387,301,l),
(304,301,ls),
(153,301,o),
(72,250,o),
(72,142,cs),
(72,45,o),
(138,-12,o),
(238,-12,cs,{
name = hr01;
}),
(317,-12,o),
(377,24,o),
(395,91,c),
(400,91,l),
(406,33,o),
(446,0,o),
(507,0,cs,{
name = hr02;
}),
(592,0,l)
);
},
{
closed = 1;
nodes = (
(247,85,o),
(217,104,o),
(217,140,cs),
(217,160,ls),
(217,200,o),
(249,221,o),
(308,221,cs),
(387,221,l),
(387,159,ls),
(387,111,o),
(346,85,o),
(294,85,cs,{
name = hr03;
})
);
}
);
width = 640;
}
);
unicode = 97;
},
{
glyphname = a.alt01;
lastChange = "2021-02-28 18:55:49 +0000";
layers = (
{
anchors = (
{
name = bottom;
pos = (307,0);
},
{
name = bottomright;
pos = (525,0);
},
{
name = top;
pos = (307,516);
}
);
layerId = master02;
shapes = (
{
closed = 1;
nodes = (
(525,0,l),
(525,516,l),
(445,516,l),
(445,432,l),
(441,432,l),
(408,495,o),
(354,528,o),
(282,528,cs,{
name = hr01;
}),
(156,528,o),
(80,427,o),
(80,258,cs),
(80,89,o),
(156,-12,o),
(282,-12,cs),
(354,-12,o),
(408,21,o),
(441,84,c,{
name = hr02;
}),
(445,84,l),
(445,0,l)
);
},
{
closed = 1;
nodes = (
(220,59,o),
(166,121,o),
(166,214,cs),
(166,302,ls),
(166,395,o),
(220,457,o),
(313,457,cs),
(384,457,o),
(445,420,o),
(445,351,c),
(445,165,l),
(445,96,o),
(384,59,o),
(313,59,cs,{
name = hr03;
})
);
}
);
width = 640;
},
{
anchors = (
{
name = bottom;
pos = (311,0);
},
{
name = bottomright;
pos = (561,0);
},
{
name = top;
pos = (311,516);
}
);
layerId = master03;
shapes = (
{
closed = 1;
nodes = (
(561,0,l),
(561,516,l),
(413,516,l),
(413,422,l),
(406,422,l),
(380,484,o),
(336,528,o),
(253,528,cs,{
name = hr01;
}),
(139,528,o),
(59,445,o),
(59,258,cs),
(59,71,o),
(139,-12,o),
(253,-12,cs),
(336,-12,o),
(380,32,o),
(406,94,c,{
name = hr02;
}),
(413,94,l),
(413,0,l)
);
},
{
closed = 1;
nodes = (
(251,103,o),
(213,146,o),
(213,218,cs),
(213,298,l),
(213,370,o),
(251,413,o),
(317,413,cs),
(369,413,o),
(413,388,o),
(413,334,c),
(413,182,l),
(413,128,o),
(369,103,o),
(317,103,cs,{
name = hr03;
})
);
}
);
width = 640;
}
);
},
{
glyphname = b;
lastChange = "2021-02-28 18:55:49 +0000";
layers = (
{
anchors = (
{
name = bottom;
pos = (337,0);
}
);
layerId = master02;
shapes = (
{
closed = 1;
nodes = (
(195,0,l),
(195,84,l),
(199,84,l),
(232,21,o),
(286,-12,o),
(358,-12,cs,{
name = hr01;
}),
(484,-12,o),
(560,89,o),
(560,258,cs),
(560,427,o),
(484,528,o),
(358,528,cs),
(286,528,o),
(232,495,o),
(199,432,c),
(195,432,l),
(195,740,l,{
name = hr02;
}),
(115,740,l),
(115,0,l)
);
},
{
closed = 1;
nodes = (
(256,59,o),
(195,96,o),
(195,165,c),
(195,351,l),
(195,420,o),
(256,457,o),
(327,457,cs),
(420,457,o),
(474,395,o),
(474,302,cs),
(474,214,ls),
(474,121,o),
(420,59,o),
(327,59,cs,{
name = hr03;
})
);
}
);
width = 640;
},
{
anchors = (
{
name = bottom;
pos = (330,0);
}
);
layerId = master03;
shapes = (
{
closed = 1;
nodes = (
(227,0,l),
(227,94,l),
(234,94,l),
(260,32,o),
(304,-12,o),
(387,-12,cs,{
name = hr01;
}),
(501,-12,o),
(581,71,o),
(581,258,cs),
(581,445,o),
(501,528,o),
(387,528,cs),
(304,528,o),
(260,484,o),
(234,422,c),
(227,422,l),
(227,740,l,{
name = hr02;
}),
(79,740,l),
(79,0,l)
);
},
{
closed = 1;
nodes = (
(271,103,o),
(227,128,o),
(227,182,c),
(227,334,l),
(227,388,o),
(271,413,o),
(323,413,cs),
(389,413,o),
(427,370,o),
(427,298,cs),
(427,218,l),
(427,146,o),
(389,103,o),
(323,103,cs,{
name = hr03;
})
);
}
);
width = 640;
}
);
unicode = 98;
},
{
glyphname = c;
lastChange = "2021-02-28 18:55:49 +0000";
layers = (
{
anchors = (
{
name = bottom;
pos = (323,0);
},
{
name = top;
pos = (333,516);
}
);
layerId = master02;
shapes = (
{
closed = 1;
nodes = (
(441,-12,o),
(506,39,o),
(536,108,c),
(479,147,l),
(453,91,o),
(408,57,o),
(339,57,cs),
(242,57,o),
(190,123,o),
(190,214,cs),
(190,302,ls),
(190,393,o),
(243,459,o),
(337,459,cs),
(401,459,o),
(445,428,o),
(464,375,c),
(528,409,l),
(499,479,o),
(437,528,o),
(337,528,cs),
(191,528,o),
(104,422,o),
(104,258,cs),
(104,95,o),
(190,-12,o),
(338,-12,cs,{
name = hr00;
})
);
}
);
width = 640;
},
{
anchors = (
{
name = bottom;
pos = (321,0);
},
{
name = top;
pos = (334,516);
}
);
layerId = master03;
shapes = (
{
closed = 1;
nodes = (
(456,-12,o),
(526,39,o),
(563,114,c),
(451,178,l),
(429,136,o),
(399,106,o),
(342,106,cs),
(272,106,o),
(234,148,o),
(234,216,cs),
(234,300,ls),
(234,368,o),
(273,410,o),
(340,410,cs),
(395,410,o),
(423,380,o),
(441,340,c),
(555,402,l),
(519,477,o),
(453,528,o),
(340,528,cs),
(179,528,o),
(80,425,o),
(80,258,cs),
(80,91,o),
(178,-12,o),
(341,-12,cs,{
name = hr00;
})
);
}
);
width = 640;
}
);
unicode = 99;
},
{
glyphname = d;
lastChange = "2021-02-28 18:55:49 +0000";
layers = (
{
anchors = (
{
name = bottom;
pos = (302,0);
},
{
name = topright;
pos = (587,740);
}
);
layerId = master02;
shapes = (
{
closed = 1;
nodes = (
(525,0,l),
(525,740,l),
(445,740,l),
(445,432,l),
(441,432,l),
(408,495,o),
(354,528,o),
(282,528,cs),
(156,528,o),
(80,427,o),
(80,258,cs),
(80,89,o),
(156,-12,o),
(282,-12,cs,{
name = hr01;
}),
(354,-12,o),
(408,21,o),
(441,84,c,{
name = hr02;
}),
(445,84,l),
(445,0,l)
);
},
{
closed = 1;
nodes = (
(220,59,o),
(166,121,o),
(166,214,cs),
(166,302,ls),
(166,395,o),
(220,457,o),
(313,457,cs),
(384,457,o),
(445,420,o),
(445,351,c),
(445,165,l),
(445,96,o),
(384,59,o),
(313,59,cs,{
name = hr03;
})
);
}
);
width = 640;
},
{
anchors = (
{
name = bottom;
pos = (310,0);
},
{
name = topright;
pos = (612,740);
}
);
layerId = master03;
shapes = (
{
closed = 1;
nodes = (
(561,0,l),
(561,740,l),
(413,740,l),
(413,422,l),
(406,422,l),
(380,484,o),
(336,528,o),
(253,528,cs),
(139,528,o),
(59,445,o),
(59,258,cs),
(59,71,o),
(139,-12,o),
(253,-12,cs,{
name = hr01;
}),
(336,-12,o),
(380,32,o),
(406,94,c,{
name = hr02;
}),
(413,94,l),
(413,0,l)
);
},
{
closed = 1;
nodes = (
(251,103,o),
(213,146,o),
(213,218,cs),
(213,298,l),
(213,370,o),
(251,413,o),
(317,413,cs),
(369,413,o),
(413,388,o),
(413,334,c),
(413,182,l),
(413,128,o),
(369,103,o),
(317,103,cs,{
name = hr03;
})
);
}
);
width = 640;
}
);
unicode = 100;
},
{
glyphname = e;
lastChange = "2021-02-28 18:55:49 +0000";
layers = (
{
anchors = (
{
name = bottom;
pos = (329,0);
},
{
name = bottomright;
pos = (411,0);
},
{
name = top;
pos = (322,516);
}
);
layerId = master02;
shapes = (
{
closed = 1;
nodes = (
(431,-12,o),
(505,38,o),
(536,107,c),
(477,147,l),
(450,91,o),
(398,57,o),
(329,57,cs),
(232,57,o),
(171,123,o),
(171,214,cs),
(171,238,l),
(553,238,l),
(553,276,ls),
(553,422,o),
(463,528,o),
(324,528,cs),
(184,528,o),
(87,422,o),
(87,257,cs),
(87,94,o),
(181,-12,o),
(329,-12,cs,{
name = hr00;
})
);
},
{
closed = 1;
nodes = (
(409,462,o),
(467,400,o),
(467,309,cs),
(467,298,l),
(171,298,l),
(171,305,ls),
(171,395,o),
(236,462,o),
(324,462,cs)
);
}
);
width = 640;
},
{
anchors = (
{
name = bottom;
pos = (326,0);
},
{
name = bottomright;
pos = (429,0);
},
{
name = top;
pos = (321,516);
}
);
layerId = master03;
shapes = (
{
closed = 1;
nodes = (
(445,-12,o),
(515,30,o),
(555,79,c),
(475,166,l),
(443,128,o),
(400,102,o),
(339,102,cs),
(260,102,o),
(217,147,o),
(217,213,cs),
(217,222,l),
(570,222,l),
(570,266,ls),
(570,427,o),
(475,528,o),
(321,528,cs),
(166,528,o),
(70,425,o),
(70,256,cs),
(70,91,o),
(161,-12,o),
(334,-12,cs,{
name = hr00;
})
);
},
{
closed = 1;
nodes = (
(386,422,o),
(425,380,o),
(425,313,cs),
(425,305,l),
(217,305,l),
(217,313,ls),
(217,379,o),
(258,422,o),
(322,422,cs)
);
}
);
width = 640;
}
);
unicode = 101;
},
{
glyphname = f;
lastChange = "2021-02-28 18:55:49 +0000";
layers = (
{
anchors = (
{
name = bottom;
pos = (328,0);
}
);
layerId = master02;
shapes = (
{
closed = 1;
nodes = (
(541,0,l),
(541,68,l),
(357,68,l),
(357,448,l),
(564,448,l),
(564,516,l),
(357,516,l),
(357,672,l),
(564,672,l),
(564,740,l),
(391,740,ls),
(313,740,o),
(277,691,o),
(277,622,cs),
(277,516,l),
(93,516,l),
(93,448,l),
(277,448,l),
(277,68,l),
(103,68,l),
(103,0,l,{
name = hr00;
})
);
}
);
width = 640;
},
{
anchors = (
{
name = bottom;
pos = (317,0);
}
);
layerId = master03;
shapes = (
{
closed = 1;
nodes = (
(553,0,l),
(553,115,l),
(391,115,l),
(391,401,l),
(576,401,l),
(576,516,l),
(391,516,l),
(391,625,l),
(576,625,l),
(576,740,l),
(401,740,ls),
(293,740,o),
(243,678,o),
(243,591,cs),
(243,516,l),
(81,516,l),
(81,401,l),
(243,401,l),
(243,115,l),
(91,115,l),
(91,0,l,{
name = hr00;
})
);
}
);
width = 640;
}
);
unicode = 102;
},
{
glyphname = g;
lastChange = "2021-02-28 18:55:49 +0000";
layers = (
{
anchors = (
{
name = top;
pos = (317,516);
}
);
layerId = master02;
shapes = (
{
closed = 1;
nodes = (
(581,25,o),
(524,79,o),
(391,79,cs),
(277,79,ls),
(228,79,o),
(194,86,o),
(194,117,cs),
(194,152,o),
(237,170,o),
(268,176,c),
(284,173,o),
(300,172,o),
(317,172,cs),
(438,172,o),
(518,245,o),
(518,350,cs,{
name = hr01;
}),
(518,404,o),
(497,449,o),
(460,481,c),
(460,516,l),
(576,516,l),
(576,586,l),
(481,586,ls),
(436,586,o),
(419,556,o),
(419,516,cs),
(419,507,l),
(390,521,o),
(356,528,o),
(317,528,cs,{
name = hr02;
}),
(196,528,o),
(117,455,o),
(117,350,cs),
(117,277,o),
(155,220,o),
(218,192,c),
(218,188,l),
(165,175,o),
(125,151,o),
(125,98,cs,{
name = hr03;
}),
(125,63,o),
(142,41,o),
(171,27,c),
(171,15,l),
(118,1,o),
(87,-29,o),
(87,-84,cs,{
name = hr04;
}),
(87,-166,o),
(155,-212,o),
(321,-212,cs),
(493,-212,o),
(581,-163,o),
(581,-59,cs)
);
},
{
closed = 1;
nodes = (
(506,-119,o),
(451,-148,o),
(358,-148,cs),
(280,-148,ls),
(196,-148,o),
(163,-110,o),
(163,-65,cs),
(163,-32,o),
(181,-9,o),
(215,5,c),
(394,5,ls),
(477,5,o),
(506,-22,o),
(506,-63,cs)
);
},
{
closed = 1;
nodes = (
(238,234,o),
(201,275,o),
(201,336,cs,{
name = hr05;
}),
(201,365,ls),
(201,426,o),
(238,466,o),
(317,466,cs),
(397,466,o),
(434,426,o),
(434,365,cs),
(434,336,ls),
(434,275,o),
(397,234,o),
(317,234,cs)
);
}
);
width = 640;
},
{
anchors = (
{
name = top;
pos = (314,516);
}
);
layerId = master03;
shapes = (
{
closed = 1;
nodes = (
(603,35,o),
(546,97,o),
(398,97,cs),
(280,97,ls),
(239,97,o),
(204,99,o),
(204,132,cs),
(204,150,o),
(215,162,o),
(230,170,c,{
name = hr01;
}),
(255,163,o),
(284,160,o),
(314,160,cs),
(450,160,o),
(540,225,o),
(540,344,cs),
(540,417,o),
(507,469,o),
(451,498,c),
(451,507,l),
(575,507,l),
(575,615,l),
(484,615,ls),
(435,615,o),
(405,585,o),
(405,545,cs),
(405,517,l),
(378,524,o),
(347,528,o),
(314,528,cs,{
name = hr02;
}),
(179,528,o),
(90,464,o),
(90,344,cs),
(90,268,o),
(126,214,o),
(187,185,c),
(187,179,l),
(131,166,o),
(94,145,o),
(94,95,cs,{
name = hr03;
}),
(94,50,o),
(122,27,o),
(166,14,c),
(166,8,l),
(104,-8,o),
(67,-35,o),
(67,-93,cs,{
name = hr04;
}),
(67,-163,o),
(121,-212,o),
(317,-212,cs),
(513,-212,o),
(603,-161,o),
(603,-52,cs)
);
},
{
closed = 1;
nodes = (
(463,-98,o),
(433,-117,o),
(366,-117,cs),
(279,-117,ls),
(214,-117,o),
(189,-94,o),
(189,-62,cs),
(189,-45,o),
(196,-31,o),
(209,-20,c),
(386,-20,ls),
(446,-20,o),
(463,-36,o),
(463,-63,cs)
);
},
{
closed = 1;
nodes = (
(256,254,o),
(230,287,o),
(230,332,cs,{
name = hr05;
}),
(230,356,l),
(230,401,o),
(256,434,o),
(314,434,cs),
(373,434,o),
(400,401,o),
(400,356,cs),
(400,332,ls),
(400,287,o),
(373,254,o),
(314,254,cs)
);
}
);
width = 640;
}
);
unicode = 103;
},
{
glyphname = g.alt01;
lastChange = "2021-02-28 18:55:49 +0000";
layers = (
{
anchors = (
{
name = top;
pos = (307,516);
}
);
layerId = master02;
shapes = (
{
closed = 1;
nodes = (
(445,516,l),
(445,432,l),
(441,432,l),
(408,495,o),
(354,528,o),
(282,528,cs,{
name = hr01;
}),
(156,528,o),
(80,427,o),
(80,265,cs),
(80,103,o),
(156,2,o),
(282,2,cs),
(354,2,o),
(408,35,o),
(441,98,c),
(445,98,l),
(445,12,ls),
(445,-90,o),
(396,-142,o),
(299,-142,cs),
(240,-142,o),
(195,-122,o),
(160,-86,c),
(113,-141,l),
(154,-183,o),
(214,-212,o),
(298,-212,cs,{
name = hr02;
}),
(442,-212,o),
(525,-125,o),
(525,17,cs),
(525,516,l)
);
},
{
closed = 1;
nodes = (
(220,73,o),
(166,135,o),
(166,228,cs),
(166,302,ls),
(166,395,o),
(220,457,o),
(313,457,cs,{
name = hr03;
}),
(384,457,o),
(445,420,o),
(445,351,c),
(445,179,l),
(445,110,o),
(384,73,o),
(313,73,cs)
);
}
);
width = 640;
},
{
anchors = (
{
name = top;
pos = (311,516);
}
);
layerId = master03;
shapes = (
{
closed = 1;
nodes = (
(413,516,l),
(413,422,l),
(406,422,l),
(380,484,o),
(336,528,o),
(253,528,cs,{
name = hr01;
}),
(139,528,o),
(59,444,o),
(59,271,cs),
(59,98,o),
(139,14,o),
(253,14,cs),
(336,14,o),
(380,59,o),
(406,121,c),
(413,121,l),
(413,18,ls),
(413,-53,o),
(376,-96,o),
(296,-96,cs),
(245,-96,o),
(203,-78,o),
(169,-43,c),
(90,-137,l),
(131,-180,o),
(197,-212,o),
(300,-212,cs,{
name = hr02;
}),
(473,-212,o),
(561,-122,o),
(561,31,cs),
(561,516,l)
);
},
{
closed = 1;
nodes = (
(251,129,o),
(213,173,o),
(213,245,cs),
(213,298,l),
(213,370,o),
(251,413,o),
(317,413,cs,{
name = hr03;
}),
(369,413,o),
(413,388,o),
(413,334,c),
(413,208,l),
(413,154,o),
(369,129,o),
(317,129,cs)
);
}
);
width = 640;
}
);
},
{
glyphname = g.alt02;
lastChange = "2021-02-28 18:55:49 +0000";
layers = (
{
anchors = (
{
name = top;
pos = (320,516);
}
);
layerId = master02;
shapes = (
{
closed = 1;
nodes = (
(493,-212,o),
(581,-163,o),
(581,-59,cs),
(581,25,o),
(524,79,o),
(391,79,cs),
(277,79,ls),
(228,79,o),
(194,86,o),
(194,117,cs),
(194,152,o),
(237,170,o),
(268,176,c),
(284,173,o),
(300,172,o),
(317,172,cs),
(438,172,o),
(518,245,o),
(518,350,cs,{
name = hr01;
}),
(518,388,o),
(507,425,o),
(482,452,c),
(576,452,l),
(576,516,l),
(395,516,l),
(372,524,o),
(346,528,o),
(317,528,cs,{
name = hr02;
}),
(196,528,o),
(117,455,o),
(117,350,cs),
(117,277,o),
(155,220,o),
(218,192,c),
(218,188,l),
(165,175,o),
(125,151,o),
(125,98,cs,{
name = hr03;
}),
(125,63,o),
(142,41,o),
(171,27,c),
(171,15,l),
(118,1,o),
(87,-29,o),
(87,-84,cs,{
name = hr04;
}),
(87,-166,o),
(155,-212,o),
(321,-212,cs)
);
},
{
closed = 1;
nodes = (
(238,234,o),
(201,275,o),
(201,336,cs,{
name = hr05;
}),
(201,365,ls),
(201,426,o),
(238,466,o),
(317,466,cs),
(397,466,o),
(434,426,o),
(434,365,cs),
(434,336,ls),
(434,275,o),
(397,234,o),
(317,234,cs)
);
},
{
closed = 1;
nodes = (
(506,-119,o),
(451,-148,o),
(358,-148,cs),
(280,-148,ls),
(196,-148,o),
(163,-110,o),
(163,-65,cs),
(163,-32,o),
(181,-9,o),
(215,5,c),
(394,5,ls),
(477,5,o),
(506,-22,o),
(506,-63,cs,{
name = hr06;
})
);
}
);
width = 640;
},
{
anchors = (
{
name = top;
pos = (316,516);
}
);
layerId = master03;
shapes = (
{
closed = 1;
nodes = (
(513,-212,o),
(603,-161,o),
(603,-52,cs),
(603,35,o),
(546,97,o),
(398,97,cs),
(280,97,ls),
(239,97,o),
(204,99,o),
(204,132,cs),
(204,150,o),
(215,162,o),
(230,170,c,{
name = hr01;
}),
(255,163,o),
(284,160,o),
(314,160,cs),
(450,160,o),
(540,226,o),
(540,342,cs),
(540,373,o),
(534,397,o),
(518,418,c),
(601,418,l),
(601,516,l),
(407,516,l),
(380,524,o),
(349,528,o),
(316,528,cs,{
name = hr02;
}),
(179,528,o),
(90,464,o),
(90,345,cs),
(90,269,o),
(126,215,o),
(187,185,c),
(187,179,l),
(131,166,o),
(94,145,o),
(94,95,cs,{
name = hr03;
}),
(94,50,o),
(122,27,o),
(166,14,c),
(166,8,l),
(104,-8,o),
(67,-35,o),
(67,-93,cs,{
name = hr04;
}),
(67,-163,o),
(121,-212,o),
(317,-212,cs)
);
},
{
closed = 1;
nodes = (
(256,254,o),
(230,287,o),
(230,332,cs,{
name = hr05;
}),
(230,356,ls),
(230,401,o),
(256,434,o),
(314,434,cs),
(373,434,o),
(400,401,o),
(400,356,cs),
(400,332,ls),
(400,287,o),
(373,254,o),
(314,254,cs)
);
},
{
closed = 1;
nodes = (
(463,-98,o),
(433,-117,o),
(366,-117,cs),
(279,-117,ls),
(214,-117,o),
(189,-94,o),
(189,-62,cs),
(189,-45,o),
(196,-31,o),
(209,-20,c),
(386,-20,ls),
(446,-20,o),
(463,-36,o),
(463,-63,cs,{
name = hr06;
})
);
}
);
width = 640;
}
);
},
{
glyphname = h;
lastChange = "2021-02-28 18:55:49 +0000";
layers = (
{
anchors = (
{
name = bottom;
pos = (323,0);
},
{
name = top;
pos = (158,698);
}
);
layerId = master02;
shapes = (
{
closed = 1;
nodes = (
(198,0,l),
(198,358,l),
(198,426,o),
(262,457,o),
(326,457,cs),
(405,457,o),
(448,411,o),
(448,317,cs),
(448,0,l),
(528,0,l),
(528,331,ls),
(528,456,o),
(457,528,o),
(349,528,cs),
(264,528,o),
(224,483,o),
(202,432,c),
(198,432,l),
(198,740,l),
(118,740,l),
(118,0,l,{
name = hr00;
})
);
}
);
width = 640;
},
{
anchors = (
{
name = bottom;
pos = (322,0);
},
{
name = top;
pos = (159,698);
}
);
layerId = master03;
shapes = (
{
closed = 1;
nodes = (
(233,0,l),
(233,339,l),
(233,389,o),
(278,414,o),
(324,414,cs),
(382,414,o),
(411,379,o),
(411,314,cs),
(411,0,l),
(559,0,l),
(559,334,ls),
(559,459,o),
(490,528,o),
(391,528,cs),
(308,528,o),
(262,480,o),
(239,422,c),
(233,422,l),
(233,740,l),
(85,740,l),
(85,0,l,{
name = hr00;
})
);
}
);
width = 640;
}
);
unicode = 104;
},
{
glyphname = i;
lastChange = "2021-02-28 18:55:49 +0000";
layers = (
{
anchors = (
{
name = bottom;
pos = (352,0);
},
{
name = bottomright;
pos = (566,0);
}
);
layerId = master02;
shapes = (
{
closed = 1;
nodes = (
(398,630,o),
(415,652,o),
(415,681,cs),
(415,697,ls),
(415,726,o),
(398,748,o),
(352,748,cs),
(306,748,o),
(289,726,o),
(289,697,cs),
(289,681,ls),
(289,652,o),
(306,630,o),
(352,630,cs)
);
},
{
closed = 1;
nodes = (
(566,0,l),
(566,68,l),
(392,68,l,{
name = hr01;
}),
(392,516,l),
(126,516,l),
(126,448,l),
(312,448,l),
(312,68,l),
(126,68,l),
(126,0,l)
);
}
);
width = 640;
},
{
anchors = (
{
name = bottom;
pos = (352,0);
},
{
name = bottomright;
pos = (578,0);
}
);
layerId = master03;
shapes = (
{
closed = 1;
nodes = (
(418,582,o),
(441,613,o),
(441,652,cs),
(441,681,ls),
(441,721,o),
(418,751,o),
(352,751,cs),
(286,751,o),
(263,721,o),
(263,681,cs),
(263,652,ls),
(263,613,o),
(286,582,o),
(352,582,cs)
);
},
{
closed = 1;
nodes = (
(578,0,l),
(578,115,l),
(426,115,l,{
name = hr01;
}),
(426,516,l),
(114,516,l),
(114,401,l),
(278,401,l),
(278,115,l),
(114,115,l),
(114,0,l)
);
}
);
width = 640;
}
);
unicode = 105;
},
{
glyphname = j;
lastChange = "2021-02-28 18:55:49 +0000";
layers = (
{
layerId = master02;
shapes = (
{
closed = 1;
nodes = (
(338,-200,ls),
(416,-200,o),
(452,-151,o),
(452,-82,cs),
(452,516,l),
(113,516,l),
(113,448,l),
(372,448,l),
(372,-132,l),
(122,-132,l),
(122,-200,l)
);
},
{
closed = 1;
nodes = (
(458,630,o),
(475,652,o),
(475,681,cs,{
name = hr01;
}),
(475,697,ls),
(475,726,o),
(458,748,o),
(412,748,cs),
(366,748,o),
(349,726,o),
(349,697,cs),
(349,681,ls),
(349,652,o),
(366,630,o),
(412,630,cs)
);
}
);
width = 640;
},
{
layerId = master03;
shapes = (
{
closed = 1;
nodes = (
(301,-200,ls),
(407,-200,o),
(458,-138,o),
(458,-51,cs),
(458,516,l),
(110,516,l),
(110,401,l),
(310,401,l),
(310,-85,l),
(112,-85,l),
(112,-200,l)
);
},
{
closed = 1;
nodes = (
(449,582,o),
(473,613,o),
(473,652,cs,{
name = hr01;
}),
(473,681,ls),
(473,721,o),
(449,751,o),
(384,751,cs),
(318,751,o),
(295,721,o),
(295,681,cs),
(295,652,ls),
(295,613,o),
(318,582,o),
(384,582,cs)
);
}
);
width = 640;
}
);
unicode = 106;
},
{
glyphname = k;
lastChange = "2021-02-28 18:55:49 +0000";
layers = (
{
anchors = (
{
name = bottom;
pos = (343,0);
}
);
layerId = master02;
shapes = (
{
closed = 1;
nodes = (
(205,0,l),
(205,187,l),
(294,268,l),
(495,0,l),
(594,0,l),
(355,314,l),
(569,516,l),
(471,516,l),
(299,358,l),
(209,273,l),
(205,273,l),
(205,740,l),
(125,740,l),
(125,0,l,{
name = hr00;
})
);
}
);
width = 640;
},
{
anchors = (
{
name = bottom;
pos = (328,0);
}
);
layerId = master03;
shapes = (
{
closed = 1;
nodes = (
(233,0,l),
(233,179,l),
(282,228,l),
(432,0,l),
(608,0,l),
(387,312,l),
(587,516,l),
(417,516,l),
(309,401,l),
(240,320,l),
(233,320,l),
(233,740,l),
(85,740,l),
(85,0,l,{
name = hr00;
})
);
}
);
width = 640;
}
);
unicode = 107;
},
{
glyphname = l;
lastChange = "2021-02-28 18:55:49 +0000";
layers = (
{
anchors = (
{
name = bottom;
pos = (320,0);
},
{
name = top;
pos = (320,698);
},
{
name = topright;
pos = (446,740);
}
);
layerId = master02;
shapes = (
{
closed = 1;
nodes = (
(540,0,l),
(540,68,l),
(360,68,l),
(360,740,l),
(100,740,l),
(100,672,l),
(280,672,l),
(280,68,l),
(100,68,l),
(100,0,l,{
name = hr00;
})
);
}
);
width = 640;
},
{
anchors = (
{
name = bottom;
pos = (320,0);
},
{
name = top;
pos = (320,698);
},
{
name = topright;
pos = (457,740);
}
);
layerId = master03;
shapes = (
{
closed = 1;
nodes = (
(552,0,l),
(552,115,l),
(394,115,l),
(394,740,l),
(88,740,l),
(88,625,l),
(246,625,l),
(246,115,l),
(88,115,l),
(88,0,l,{
name = hr00;
})
);
}
);
width = 640;
}
);
unicode = 108;
},
{
glyphname = m;
lastChange = "2021-02-28 18:55:49 +0000";
layers = (
{
anchors = (
{
name = bottom;
pos = (320,0);
},
{
name = top;
pos = (320,516);
}
);
layerId = master02;
shapes = (
{
closed = 1;
nodes = (
(148,379,l),
(148,434,o),
(178,462,o),
(221,462,cs),
(268,462,o),
(283,433,o),
(283,345,cs),
(283,0,l),
(357,0,l),
(357,379,l),
(357,434,o),
(387,462,o),
(429,462,cs),
(477,462,o),
(492,433,o),
(492,345,cs),
(492,0,l),
(566,0,l),
(566,358,ls),
(566,467,o),
(544,528,o),
(460,528,cs),
(399,528,o),
(367,494,o),
(348,447,c),
(345,447,l),
(339,495,o),
(310,528,o),
(251,528,cs),
(194,528,o),
(168,496,o),
(152,456,c),
(148,456,l),
(148,516,l,{
name = hr01;
}),
(74,516,l),
(74,0,l),
(148,0,l)
);
}
);
width = 640;
},
{
anchors = (
{
name = bottom;
pos = (320,0);
},
{
name = top;
pos = (320,516);
}
);
layerId = master03;
shapes = (
{
closed = 1;
nodes = (
(169,368,l),
(169,403,o),
(190,419,o),
(217,419,cs),
(243,419,o),
(260,402,o),
(260,354,cs),
(260,0,l),
(380,0,l),
(380,368,l),
(380,403,o),
(401,419,o),
(426,419,cs),
(453,419,o),
(471,402,o),
(471,354,cs),
(471,0,l),
(590,0,l),
(590,369,ls),
(590,475,o),
(554,528,o),
(482,528,cs),
(418,528,o),
(389,487,o),
(372,440,c),
(366,440,l),
(355,497,o),
(323,528,o),
(274,528,cs),
(219,528,o),
(192,488,o),
(176,440,c),
(169,440,l),
(169,516,l,{
name = hr01;
}),
(50,516,l),
(50,0,l),
(169,0,l)
);
}
);
width = 640;
}
);
unicode = 109;
},
{
glyphname = n;
lastChange = "2021-02-28 18:55:49 +0000";
layers = (
{
anchors = (
{
name = bottom;
pos = (323,0);
},
{
name = top;
pos = (323,516);
}
);
layerId = master02;
shapes = (
{
closed = 1;
nodes = (
(198,358,l),
(198,426,o),
(262,457,o),
(326,457,cs),
(405,457,o),
(448,411,o),
(448,317,cs),
(448,0,l),
(528,0,l),
(528,331,ls),
(528,456,o),
(457,528,o),
(349,528,cs),
(264,528,o),
(224,483,o),
(202,432,c),
(198,432,l),
(198,516,l,{
name = hr01;
}),
(118,516,l),
(118,0,l),
(198,0,l)
);
}
);
width = 640;
},
{
anchors = (
{
name = bottom;
pos = (322,0);
},
{
name = top;
pos = (322,516);
}
);
layerId = master03;
shapes = (
{
closed = 1;
nodes = (
(233,339,l),
(233,389,o),
(278,414,o),
(324,414,cs),
(382,414,o),
(411,379,o),
(411,314,cs),
(411,0,l),
(559,0,l),
(559,334,ls),
(559,459,o),
(490,528,o),
(391,528,cs),
(308,528,o),
(262,480,o),
(239,422,c),
(233,422,l),
(233,516,l,{
name = hr01;
}),
(85,516,l),
(85,0,l),
(233,0,l)
);
}
);
width = 640;
}
);
unicode = 110;
},
{
glyphname = o;
lastChange = "2021-02-28 18:55:49 +0000";
layers = (
{
anchors = (
{
name = bottom;
pos = (320,0);
},
{
name = top;
pos = (320,516);
}
);
layerId = master02;
shapes = (
{
closed = 1;
nodes = (
(465,-12,o),
(554,94,o),
(554,258,cs),
(554,422,o),
(465,528,o),
(320,528,cs),
(175,528,o),
(86,422,o),
(86,258,cs),
(86,94,o),
(175,-12,o),
(320,-12,cs,{
name = hr00;
})
);
},
{
closed = 1;
nodes = (
(231,57,o),
(171,110,o),
(171,221,cs),
(171,295,ls),
(171,406,o),
(231,459,o),
(320,459,cs),
(409,459,o),
(469,406,o),
(469,295,cs),
(469,221,ls),
(469,110,o),
(409,57,o),
(320,57,cs)
);
}
);
width = 640;
},
{
anchors = (
{
name = bottom;
pos = (320,0);
},
{
name = top;
pos = (320,516);
}
);
layerId = master03;
shapes = (
{
closed = 1;
nodes = (
(481,-12,o),
(579,91,o),
(579,258,cs),
(579,425,o),
(481,528,o),
(320,528,cs),
(159,528,o),
(61,425,o),
(61,258,cs),
(61,91,o),
(159,-12,o),
(320,-12,cs,{
name = hr00;
})
);
},
{
closed = 1;
nodes = (
(254,98,o),
(214,141,o),
(214,217,cs),
(214,299,l),
(214,375,o),
(254,418,o),
(320,418,cs),
(386,418,o),
(426,375,o),
(426,299,cs),
(426,217,ls),
(426,141,o),
(386,98,o),
(320,98,cs)
);
}
);
width = 640;
}
);
unicode = 111;
},
{
glyphname = p;
lastChange = "2021-02-28 18:55:49 +0000";
layers = (
{
anchors = (
{
name = top;
pos = (337,516);
}
);
layerId = master02;
shapes = (
{
closed = 1;
nodes = (
(195,-200,l),
(195,84,l),
(199,84,l),
(232,21,o),
(286,-12,o),
(358,-12,cs),
(484,-12,o),
(560,89,o),
(560,258,cs),
(560,427,o),
(484,528,o),
(358,528,cs),
(286,528,o),
(232,495,o),
(199,432,c),
(195,432,l),
(195,516,l,{
name = hr01;
}),
(115,516,l),
(115,-200,l)
);
},
{
closed = 1;
nodes = (
(256,59,o),
(195,96,o),
(195,165,c),
(195,351,l),
(195,420,o),
(256,457,o),
(327,457,cs,{
name = hr02;
}),
(420,457,o),
(474,395,o),
(474,302,cs),
(474,214,ls),
(474,121,o),
(420,59,o),
(327,59,cs)
);
}
);
width = 640;
},
{
anchors = (
{
name = top;
pos = (330,516);
}
);
layerId = master03;
shapes = (
{
closed = 1;
nodes = (
(227,-200,l),
(227,94,l),
(234,94,l),
(260,32,o),
(304,-12,o),
(387,-12,cs),
(501,-12,o),
(581,71,o),
(581,258,cs),
(581,445,o),
(501,528,o),
(387,528,cs),
(304,528,o),
(260,484,o),
(234,422,c),
(227,422,l),
(227,516,l,{
name = hr01;
}),
(79,516,l),
(79,-200,l)
);
},
{
closed = 1;
nodes = (
(271,103,o),
(227,128,o),
(227,182,c),
(227,334,l),
(227,388,o),
(271,413,o),
(323,413,cs,{
name = hr02;
}),
(389,413,o),
(427,370,o),
(427,298,cs),
(427,218,l),
(427,146,o),
(389,103,o),
(323,103,cs)
);
}
);
width = 640;
}
);
unicode = 112;
},
{
glyphname = q;
lastChange = "2021-02-28 18:55:49 +0000";
layers = (
{
anchors = (
{
name = top;
pos = (302,516);
}
);
layerId = master02;
shapes = (
{
closed = 1;
nodes = (
(525,-200,l),
(525,516,l),
(445,516,l),
(445,432,l),
(441,432,l),
(408,495,o),
(354,528,o),
(282,528,cs,{
name = hr01;
}),
(156,528,o),
(80,427,o),
(80,258,cs),
(80,89,o),
(156,-12,o),
(282,-12,cs),
(354,-12,o),
(408,21,o),
(441,84,c),
(445,84,l),
(445,-200,l)
);
},
{
closed = 1;
nodes = (
(220,59,o),
(166,121,o),
(166,214,cs),
(166,302,ls),
(166,395,o),
(220,457,o),
(313,457,cs),
(384,457,o),
(445,420,o),
(445,351,c),
(445,165,l),
(445,96,o),
(384,59,o),
(313,59,cs)
);
}
);
width = 640;
},
{
anchors = (
{
name = top;
pos = (310,516);
}
);
layerId = master03;
shapes = (
{
closed = 1;
nodes = (
(561,-200,l),
(561,516,l),
(413,516,l),
(413,422,l),
(406,422,l),
(380,484,o),
(336,528,o),
(253,528,cs,{
name = hr01;
}),
(139,528,o),
(59,445,o),
(59,258,cs),
(59,71,o),
(139,-12,o),
(253,-12,cs),
(336,-12,o),
(380,32,o),
(406,94,c),
(413,94,l),
(413,-200,l)
);
},
{
closed = 1;
nodes = (
(251,103,o),
(213,146,o),
(213,218,cs),
(213,298,l),
(213,370,o),
(251,413,o),
(317,413,cs),
(369,413,o),
(413,388,o),
(413,334,c),
(413,182,l),
(413,128,o),
(369,103,o),
(317,103,cs)
);
}
);
width = 640;
}
);
unicode = 113;
},
{
glyphname = r;
lastChange = "2021-02-28 18:55:49 +0000";
layers = (
{
anchors = (
{
name = bottom;
pos = (288,0);
},
{
name = top;
pos = (373,516);
}
);
layerId = master02;
shapes = (
{
closed = 1;
nodes = (
(528,0,l),
(528,68,l),
(328,68,l),
(328,291,ls),
(328,371,o),
(381,436,o),
(482,436,cs),
(579,436,l),
(579,516,l),
(507,516,ls),
(399,516,o),
(353,454,o),
(333,386,c),
(328,386,l),
(328,516,l),
(97,516,l),
(97,448,l,{
name = hr01;
}),
(248,448,l),
(248,68,l),
(97,68,l),
(97,0,l)
);
}
);
width = 640;
},
{
anchors = (
{
name = bottom;
pos = (287,0);
},
{
name = top;
pos = (345,516);
}
);
layerId = master03;
shapes = (
{
closed = 1;
nodes = (
(531,0,l),
(531,115,l),
(361,115,l),
(361,268,ls),
(361,330,o),
(399,380,o),
(472,380,cs),
(582,380,l),
(582,516,l),
(533,516,ls),
(431,516,o),
(387,446,o),
(368,370,c),
(361,370,l),
(361,516,l),
(94,516,l),
(94,401,l,{
name = hr01;
}),
(213,401,l),
(213,115,l),
(94,115,l),
(94,0,l)
);
}
);
width = 640;
}
);
unicode = 114;
},
{
glyphname = s;
lastChange = "2021-02-28 18:55:49 +0000";
layers = (
{
anchors = (
{
name = bottom;
pos = (314,0);
},
{
name = top;
pos = (318,516);
}
);
layerId = master02;
shapes = (
{
closed = 1;
nodes = (
(458,-12,o),
(544,47,o),
(544,149,cs),
(544,261,o),
(441,281,o),
(367,292,cs),
(286,304,ls),
(240,311,o),
(195,325,o),
(195,379,cs),
(195,432,o),
(240,461,o),
(321,461,cs),
(412,461,o),
(458,425,o),
(482,396,c),
(534,445,l),
(485,497,o),
(417,528,o),
(324,528,cs),
(204,528,o),
(116,477,o),
(116,374,cs),
(116,262,o),
(220,242,o),
(293,231,cs),
(374,219,ls),
(421,212,o),
(465,198,o),
(465,144,cs),
(465,83,o),
(408,55,o),
(328,55,cs),
(246,55,o),
(190,84,o),
(141,136,c),
(87,89,l),
(141,28,o),
(218,-12,o),
(326,-12,cs,{
name = hr00;
})
);
}
);
width = 640;
},
{
anchors = (
{
name = bottom;
pos = (313,0);
},
{
name = top;
pos = (325,516);
}
);
layerId = master03;
shapes = (
{
closed = 1;
nodes = (
(467,-12,o),
(554,56,o),
(554,163,cs),
(554,261,o),
(481,300,o),
(388,314,cs),
(306,327,ls),
(266,333,o),
(242,342,o),
(242,372,cs),
(242,406,o),
(272,424,o),
(328,424,cs),
(395,424,o),
(444,398,o),
(474,365,c),
(548,449,l),
(505,499,o),
(434,528,o),
(333,528,cs),
(184,528,o),
(97,463,o),
(97,355,cs),
(97,257,o),
(170,218,o),
(262,204,cs),
(345,191,ls),
(385,185,o),
(409,176,o),
(409,147,cs),
(409,110,o),
(373,92,o),
(315,92,cs),
(246,92,o),
(192,118,o),
(152,162,c),
(69,85,l),
(111,25,o),
(200,-12,o),
(314,-12,cs,{
name = hr00;
})
);
}
);
width = 640;
}
);
unicode = 115;
},
{
glyphname = t;
lastChange = "2021-02-28 18:55:49 +0000";
layers = (
{
anchors = (
{
name = bottom;
pos = (395,0);
},
{
name = topright;
pos = (407,760);
}
);
layerId = master02;
shapes = (
{
closed = 1;
nodes = (
(546,68,l),
(311,68,l),
(311,448,l),
(546,448,l),
(546,516,l),
(311,516,l),
(311,698,l),
(234,698,l),
(234,563,ls),
(234,528,o),
(221,516,o),
(187,516,cs),
(59,516,l),
(59,448,l),
(231,448,l),
(231,118,ls),
(231,49,o),
(267,0,o),
(345,0,cs),
(546,0,l,{
name = hr00;
})
);
}
);
width = 640;
},
{
anchors = (
{
name = bottom;
pos = (381,0);
},
{
name = topright;
pos = (416,780);
}
);
layerId = master03;
shapes = (
{
closed = 1;
nodes = (
(551,115,l),
(350,115,l),
(350,401,l),
(551,401,l),
(551,516,l),
(350,516,l),
(350,698,l),
(214,698,l),
(214,577,ls),
(214,531,o),
(197,516,o),
(153,516,cs),
(62,516,l),
(62,401,l),
(202,401,l),
(202,149,ls),
(202,62,o),
(253,0,o),
(360,0,cs),
(551,0,l,{
name = hr00;
})
);
}
);
width = 640;
}
);
unicode = 116;
},
{
glyphname = u;
lastChange = "2021-02-28 18:55:49 +0000";
layers = (
{
anchors = (
{
name = bottom;
pos = (317,0);
},
{
name = bottomright;
pos = (522,0);
},
{
name = top;
pos = (317,516);
}
);
layerId = master02;
shapes = (
{
closed = 1;
nodes = (
(522,0,l),
(522,516,l),
(442,516,l),
(442,158,l),
(442,90,o),
(378,59,o),
(314,59,cs,{
name = hr01;
}),
(235,59,o),
(192,105,o),
(192,199,cs),
(192,516,l),
(112,516,l),
(112,185,ls),
(112,60,o),
(183,-12,o),
(291,-12,cs),
(376,-12,o),
(416,33,o),
(438,84,c,{
name = hr02;
}),
(442,84,l),
(442,0,l)
);
}
);
width = 640;
},
{
anchors = (
{
name = bottom;
pos = (318,0);
},
{
name = bottomright;
pos = (555,0);
},
{
name = top;
pos = (318,516);
}
);
layerId = master03;
shapes = (
{
closed = 1;
nodes = (
(555,0,l),
(555,516,l),
(407,516,l),
(407,177,ls),
(407,127,o),
(362,102,o),
(316,102,cs,{
name = hr01;
}),
(258,102,o),
(229,137,o),
(229,202,cs),
(229,516,l),
(81,516,l),
(81,182,ls),
(81,57,o),
(150,-12,o),
(249,-12,cs),
(332,-12,o),
(378,36,o),
(401,94,c,{
name = hr02;
}),
(407,94,l),
(407,0,l)
);
}
);
width = 640;
}
);
unicode = 117;
},
{
glyphname = v;
lastChange = "2021-02-28 18:55:49 +0000";
layers = (
{
anchors = (
{
name = bottom;
pos = (320,0);
},
{
name = top;
pos = (320,516);
}
);
layerId = master02;
shapes = (
{
closed = 1;
nodes = (
(556,516,l),
(477,516,l),
(403,300,l),
(323,67,l),
(319,67,l),
(239,300,l),
(165,516,l),
(84,516,l),
(269,0,l),
(371,0,l,{
name = hr00;
})
);
}
);
width = 640;
},
{
anchors = (
{
name = bottom;
pos = (320,0);
},
{
name = top;
pos = (320,516);
}
);
layerId = master03;
shapes = (
{
closed = 1;
nodes = (
(593,516,l),
(443,516,l),
(376,295,l),
(327,123,l),
(319,123,l),
(270,295,l),
(203,516,l),
(47,516,l),
(232,0,l),
(408,0,l,{
name = hr00;
})
);
}
);
width = 640;
}
);
unicode = 118;
},
{
glyphname = w;
lastChange = "2021-02-28 18:55:49 +0000";
layers = (
{
anchors = (
{
name = bottom;
pos = (320,0);
},
{
name = top;
pos = (320,516);
}
);
layerId = master02;
shapes = (
{
closed = 1;
nodes = (
(233,0,l),
(317,432,l),
(325,432,l),
(407,0,l),
(511,0,l),
(590,516,l),
(521,516,l),
(462,70,l),
(453,70,l),
(365,516,l),
(277,516,l),
(189,70,l),
(180,70,l),
(121,516,l),
(50,516,l),
(129,0,l,{
name = hr00;
})
);
}
);
width = 640;
},
{
anchors = (
{
name = bottom;
pos = (320,0);
},
{
name = top;
pos = (320,516);
}
);
layerId = master03;
shapes = (
{
closed = 1;
nodes = (
(264,0,l),
(315,356,l),
(325,356,l),
(376,0,l),
(552,0,l),
(613,516,l),
(496,516,l),
(458,98,l),
(448,98,l),
(388,516,l),
(258,516,l),
(197,98,l),
(187,98,l),
(150,516,l),
(27,516,l),
(88,0,l,{
name = hr00;
})
);
}
);
width = 640;
}
);
unicode = 119;
},
{
glyphname = x;
lastChange = "2021-02-28 18:55:49 +0000";
layers = (
{
anchors = (
{
name = bottom;
pos = (320,0);
},
{
name = top;
pos = (320,516);
}
);
layerId = master02;
shapes = (
{
closed = 1;
nodes = (
(257,121,l),
(314,203,l),
(318,203,l),
(377,121,l),
(464,0,l),
(560,0,l),
(366,263,l),
(555,516,l),
(463,516,l),
(386,407,l),
(326,321,l),
(322,321,l),
(260,407,l),
(182,516,l),
(86,516,l),
(273,262,l),
(81,0,l),
(173,0,l,{
name = hr00;
})
);
}
);
width = 640;
},
{
anchors = (
{
name = bottom;
pos = (320,0);
},
{
name = top;
pos = (320,516);
}
);
layerId = master03;
shapes = (
{
closed = 1;
nodes = (
(265,97,l),
(309,166,l),
(317,166,l),
(362,97,l),
(427,0,l),
(597,0,l),
(404,270,l),
(584,516,l),
(429,516,l),
(373,433,l),
(330,366,l),
(322,366,l),
(280,433,l),
(225,516,l),
(56,516,l),
(236,262,l),
(43,0,l),
(199,0,l,{
name = hr00;
})
);
}
);
width = 640;
}
);
unicode = 120;
},
{
glyphname = y;
lastChange = "2021-02-28 18:55:49 +0000";
layers = (
{
anchors = (
{
name = bottom;
pos = (480,0);
},
{
name = top;
pos = (320,516);
}
);
layerId = master02;
shapes = (
{
closed = 1;
nodes = (
(323,104,l),
(319,104,l),
(242,300,l),
(155,516,l),
(73,516,l),
(281,10,l),
(223,-132,l),
(103,-132,l),
(103,-200,l),
(179,-200,ls),
(257,-200,o),
(287,-172,o),
(311,-113,cs),
(567,516,l),
(487,516,l),
(400,300,l,{
name = hr00;
})
);
}
);
width = 640;
},
{
anchors = (
{
name = bottom;
pos = (502,0);
},
{
name = top;
pos = (323,516);
}
);
layerId = master03;
shapes = (
{
closed = 1;
nodes = (
(328,149,l),
(320,149,l),
(273,299,l),
(198,516,l),
(39,516,l),
(247,3,l),
(215,-85,l),
(91,-85,l),
(91,-200,l),
(193,-200,ls),
(281,-200,o),
(328,-158,o),
(358,-83,cs),
(601,516,l),
(450,516,l),
(373,299,l,{
name = hr00;
})
);
}
);
width = 640;
}
);
unicode = 121;
},
{
glyphname = z;
lastChange = "2021-02-28 18:55:49 +0000";
layers = (
{
anchors = (
{
name = bottom;
pos = (320,0);
},
{
name = top;
pos = (320,516);
}
);
layerId = master02;
shapes = (
{
closed = 1;
nodes = (
(535,68,l),
(192,68,l),
(525,439,l),
(525,516,l),
(116,516,l),
(116,448,l),
(438,448,l),
(105,77,l),
(105,0,l),
(535,0,l,{
name = hr00;
})
);
}
);
width = 640;
},
{
anchors = (
{
name = bottom;
pos = (320,0);
},
{
name = top;
pos = (320,516);
}
);
layerId = master03;
shapes = (
{
closed = 1;
nodes = (
(554,115,l),
(257,115,l),
(544,393,l),
(544,516,l),
(96,516,l),
(96,401,l),
(373,401,l),
(86,123,l),
(86,0,l),
(554,0,l,{
name = hr00;
})
);
}
);
width = 640;
}
);
unicode = 122;
},
{
glyphname = A;
lastChange = "2021-02-28 18:55:49 +0000";
layers = (
{
anchors = (
{
name = bottom;
pos = (320,0);
},
{
name = bottomright;
pos = (590,0);
},
{
name = top;
pos = (320,698);
}
);
layerId = master02;
shapes = (
{
closed = 1;
nodes = (
(376,698,l),
(265,698,l),
(51,0,l),
(138,0,l),
(197,199,l),
(442,199,l),
(501,0,l),
(590,0,l,{
name = hr00;
})
);
},
{
closed = 1;
nodes = (
(217,272,l),
(315,609,l),
(324,609,l),
(422,272,l)
);
}
);
width = 640;
},
{
anchors = (
{
name = bottom;
pos = (320,0);
},
{
name = bottomright;
pos = (615,0);
},
{
name = top;
pos = (320,698);
}
);
layerId = master03;
shapes = (
{
closed = 1;
nodes = (
(426,698,l),
(214,698,l),
(25,0,l),
(177,0,l),
(220,168,l),
(411,168,l),
(455,0,l),
(615,0,l,{
name = hr00;
})
);
},
{
closed = 1;
nodes = (
(244,289,l),
(312,553,l),
(320,553,l),
(388,289,l)
);
}
);
width = 640;
}
);
unicode = 65;
},
{
glyphname = B;
lastChange = "2021-02-28 18:55:49 +0000";
layers = (
{
anchors = (
{
name = bottom;
pos = (335,0);
},
{
name = top;
pos = (315,698);
}
);
layerId = master02;
shapes = (
{
closed = 1;
nodes = (
(375,0,ls),
(483,0,o),
(563,88,o),
(563,201,cs),
(563,298,o),
(506,347,o),
(428,365,c),
(428,368,l),
(492,388,o),
(537,435,o),
(537,518,cs,{
name = hr01;
}),
(537,627,o),
(464,698,o),
(345,698,cs),
(108,698,l),
(108,0,l)
);
},
{
closed = 1;
nodes = (
(192,326,l),
(350,326,ls),
(427,326,o),
(474,290,o),
(474,220,cs,{
name = hr02;
}),
(474,179,ls),
(474,108,o),
(427,73,o),
(350,73,cs),
(192,73,l)
);
},
{
closed = 1;
nodes = (
(192,625,l),
(336,625,ls),
(406,625,o),
(449,593,o),
(449,529,cs,{
name = hr03;
}),
(449,490,ls),
(449,426,o),
(406,395,o),
(336,395,cs),
(192,395,l)
);
}
);
width = 640;
},
{
anchors = (
{
name = bottom;
pos = (320,0);
},
{
name = top;
pos = (315,698);
}
);
layerId = master03;
shapes = (
{
closed = 1;
nodes = (
(365,0,ls),
(497,0,o),
(576,75,o),
(576,192,cs),
(576,286,o),
(526,338,o),
(440,359,c),
(440,365,l),
(513,386,o),
(554,433,o),
(554,512,cs,{
name = hr01;
}),
(554,626,o),
(478,698,o),
(342,698,cs),
(97,698,l),
(97,0,l)
);
},
{
closed = 1;
nodes = (
(243,302,l),
(319,302,ls),
(390,302,o),
(423,281,o),
(423,218,cs,{
name = hr02;
}),
(423,189,ls),
(423,125,o),
(390,105,o),
(319,105,cs),
(243,105,l)
);
},
{
closed = 1;
nodes = (
(243,593,l),
(300,593,ls),
(370,593,o),
(401,574,o),
(401,513,cs,{
name = hr03;
}),
(401,483,ls),
(401,422,o),
(370,402,o),
(300,402,cs),
(243,402,l)
);
}
);
width = 640;
}
);
unicode = 66;
},
{
glyphname = C;
lastChange = "2021-02-28 18:55:49 +0000";
layers = (
{
anchors = (
{
name = bottom;
pos = (328,0);
},
{
name = top;
pos = (348,698);
}
);
layerId = master02;
shapes = (
{
closed = 1;
nodes = (
(471,-12,o),
(524,65,o),
(558,141,c),
(486,174,l),
(461,112,o),
(428,61,o),
(343,61,cs),
(232,61,o),
(179,152,o),
(179,292,cs),
(179,406,ls),
(179,546,o),
(232,637,o),
(343,637,cs),
(428,637,o),
(461,586,o),
(486,524,c),
(558,557,l),
(524,633,o),
(471,710,o),
(343,710,cs),
(173,710,o),
(90,581,o),
(90,349,cs),
(90,117,o),
(173,-12,o),
(343,-12,cs,{
name = hr00;
})
);
}
);
width = 640;
},
{
anchors = (
{
name = bottom;
pos = (323,0);
},
{
name = top;
pos = (332,698);
}
);
layerId = master03;
shapes = (
{
closed = 1;
nodes = (
(480,-12,o),
(555,67,o),
(583,189,c),
(443,223,l),
(428,157,o),
(403,109,o),
(333,109,cs),
(252,109,o),
(221,177,o),
(221,288,cs),
(221,410,l),
(221,521,o),
(252,589,o),
(333,589,cs),
(403,589,o),
(428,541,o),
(443,475,c),
(583,509,l),
(555,631,o),
(480,710,o),
(336,710,cs),
(149,710,o),
(61,578,o),
(61,349,cs),
(61,120,o),
(149,-12,o),
(336,-12,cs,{
name = hr00;
})
);
}
);
width = 640;
}
);
unicode = 67;
},
{
glyphname = D;
lastChange = "2021-02-28 18:55:49 +0000";
layers = (
{
anchors = (
{
name = bottom;
pos = (297,0);
},
{
name = top;
pos = (297,698);
}
);
layerId = master02;
shapes = (
{
closed = 1;
nodes = (
(310,0,l),
(480,0,o),
(564,120,o),
(564,349,cs),
(564,578,o),
(480,698,o),
(310,698,cs),
(115,698,l),
(115,0,l,{
name = hr00;
})
);
},
{
closed = 1;
nodes = (
(199,625,l),
(306,625,ls),
(417,625,o),
(475,543,o),
(475,403,cs),
(475,295,l),
(475,155,o),
(417,73,o),
(306,73,cs),
(199,73,l)
);
}
);
width = 640;
},
{
anchors = (
{
name = bottom;
pos = (298,0);
},
{
name = top;
pos = (298,698);
}
);
layerId = master03;
shapes = (
{
closed = 1;
nodes = (
(309,0,l),
(496,0,o),
(586,125,o),
(586,349,cs),
(586,573,o),
(496,698,o),
(309,698,cs),
(84,698,l),
(84,0,l,{
name = hr00;
})
);
},
{
closed = 1;
nodes = (
(232,580,l),
(299,580,ls),
(388,580,o),
(428,521,o),
(428,413,cs),
(428,286,l),
(428,177,o),
(388,118,o),
(299,118,cs),
(232,118,l)
);
}
);
width = 640;
}
);
unicode = 68;
},
{
glyphname = E;
lastChange = "2021-02-28 18:55:49 +0000";
layers = (
{
anchors = (
{
name = bottom;
pos = (325,0);
},
{
name = bottomright;
pos = (540,0);
},
{
name = top;
pos = (325,698);
}
);
layerId = master02;
shapes = (
{
closed = 1;
nodes = (
(540,73,l),
(194,73,l),
(194,317,l),
(528,317,l),
(528,390,l),
(194,390,l),
(194,625,l),
(540,625,l),
(540,698,l),
(110,698,l),
(110,0,l),
(540,0,l,{
name = hr00;
})
);
}
);
width = 640;
},
{
anchors = (
{
name = bottom;
pos = (323,0);
},
{
name = bottomright;
pos = (546,0);
},
{
name = top;
pos = (323,698);
}
);
layerId = master03;
shapes = (
{
closed = 1;
nodes = (
(546,123,l),
(250,123,l),
(250,292,l),
(536,292,l),
(536,415,l),
(250,415,l),
(250,575,l),
(546,575,l),
(546,698,l),
(100,698,l),
(100,0,l),
(546,0,l,{
name = hr00;
})
);
}
);
width = 640;
}
);
unicode = 69;
},
{
glyphname = F;
lastChange = "2021-02-28 18:55:49 +0000";
layers = (
{
anchors = (
{
name = bottom;
pos = (152,0);
},
{
name = top;
pos = (330,698);
}
);
layerId = master02;
shapes = (
{
closed = 1;
nodes = (
(194,317,l),
(520,317,l),
(520,390,l),
(194,390,l),
(194,625,l),
(550,625,l),
(550,698,l),
(110,698,l),
(110,0,l),
(194,0,l,{
name = hr00;
})
);
}
);
width = 640;
},
{
anchors = (
{
name = bottom;
pos = (171,0);
},
{
name = top;
pos = (331,698);
}
);
layerId = master03;
shapes = (
{
closed = 1;
nodes = (
(250,292,l),
(530,292,l),
(530,415,l),
(250,415,l),
(250,575,l),
(563,575,l),
(563,698,l),
(100,698,l),
(100,0,l),
(250,0,l,{
name = hr00;
})
);
}
);
width = 640;
}
);
unicode = 70;
},
{
glyphname = G;
lastChange = "2021-02-28 18:55:49 +0000";
layers = (
{
anchors = (
{
name = bottom;
pos = (320,0);
},
{
name = top;
pos = (326,698);
}
);
layerId = master02;
shapes = (
{
closed = 1;
nodes = (
(542,0,l),
(542,345,l),
(317,345,l),
(317,278,l),
(464,278,l),
(464,206,ls),
(464,120,o),
(410,59,o),
(320,59,cs,{
name = hr01;
}),
(206,59,o),
(165,158,o),
(165,298,cs),
(165,406,ls),
(165,546,o),
(216,637,o),
(328,637,cs),
(412,637,o),
(445,586,o),
(470,524,c),
(542,557,l),
(512,633,o),
(456,710,o),
(325,710,cs),
(157,710,o),
(76,582,o),
(76,344,cs),
(76,116,o),
(150,-12,o),
(301,-12,cs),
(397,-12,o),
(436,39,o),
(459,93,c,{
name = hr02;
}),
(464,93,l),
(464,0,l)
);
}
);
width = 640;
},
{
anchors = (
{
name = bottom;
pos = (318,0);
},
{
name = top;
pos = (321,698);
}
);
layerId = master03;
shapes = (
{
closed = 1;
nodes = (
(565,0,l),
(565,373,l),
(312,373,l),
(312,267,l),
(431,267,l),
(431,216,ls),
(431,154,o),
(397,109,o),
(330,109,cs,{
name = hr01;
}),
(243,109,o),
(214,183,o),
(214,296,cs),
(214,410,ls),
(214,522,o),
(242,589,o),
(318,589,cs),
(387,589,o),
(410,534,o),
(425,475,c),
(565,509,l),
(537,629,o),
(465,710,o),
(321,710,cs),
(140,710,o),
(55,580,o),
(55,343,cs),
(55,121,o),
(129,-12,o),
(266,-12,cs),
(352,-12,o),
(399,41,o),
(422,99,c,{
name = hr02;
}),
(431,99,l),
(431,0,l)
);
}
);
width = 640;
}
);
unicode = 71;
},
{
glyphname = H;
lastChange = "2021-02-28 18:55:49 +0000";
layers = (
{
anchors = (
{
name = bottom;
pos = (320,0);
},
{
name = top;
pos = (320,698);
}
);
layerId = master02;
shapes = (
{
closed = 1;
nodes = (
(540,0,l),
(540,698,l),
(456,698,l),
(456,390,l),
(184,390,l),
(184,698,l),
(100,698,l),
(100,0,l),
(184,0,l),
(184,317,l),
(456,317,l),
(456,0,l,{
name = hr00;
})
);
}
);
width = 640;
},
{
anchors = (
{
name = bottom;
pos = (320,0);
},
{
name = top;
pos = (320,698);
}
);
layerId = master03;
shapes = (
{
closed = 1;
nodes = (
(559,0,l),
(559,698,l),
(408,698,l),
(408,415,l),
(232,415,l),
(232,698,l),
(81,698,l),
(81,0,l),
(232,0,l),
(232,292,l),
(408,292,l),
(408,0,l,{
name = hr00;
})
);
}
);
width = 640;
}
);
unicode = 72;
},
{
glyphname = I;
lastChange = "2021-02-28 18:55:49 +0000";
layers = (
{
anchors = (
{
name = bottom;
pos = (320,0);
},
{
name = bottomright;
pos = (536,0);
},
{
name = top;
pos = (320,698);
}
);
layerId = master02;
shapes = (
{
closed = 1;
nodes = (
(536,67,l),
(362,67,l),
(362,631,l),
(536,631,l),
(536,698,l),
(104,698,l),
(104,631,l),
(278,631,l),
(278,67,l),
(104,67,l),
(104,0,l),
(536,0,l,{
name = hr00;
})
);
}
);
width = 640;
},
{
anchors = (
{
name = bottom;
pos = (320,0);
},
{
name = bottomright;
pos = (545,0);
},
{
name = top;
pos = (320,698);
}
);
layerId = master03;
shapes = (
{
closed = 1;
nodes = (
(545,111,l),
(395,111,l),
(395,587,l),
(545,587,l),
(545,698,l),
(95,698,l),
(95,587,l),
(245,587,l),
(245,111,l),
(95,111,l),
(95,0,l),
(545,0,l,{
name = hr00;
})
);
}
);
width = 640;
}
);
unicode = 73;
},
{
glyphname = J;
lastChange = "2021-02-28 18:55:49 +0000";
layers = (
{
anchors = (
{
name = bottom;
pos = (297,0);
},
{
name = top;
pos = (333,698);
}
);
layerId = master02;
shapes = (
{
closed = 1;
nodes = (
(164,625,l),
(416,625,l),
(416,196,ls),
(416,105,o),
(372,62,o),
(296,62,cs),
(218,62,o),
(187,107,o),
(174,163,c),
(94,146,l),
(115,46,o),
(188,-12,o),
(294,-12,cs),
(415,-12,o),
(500,63,o),
(500,181,c),
(500,698,l),
(164,698,l,{
name = hr00;
})
);
}
);
width = 640;
},
{
anchors = (
{
name = bottom;
pos = (295,0);
},
{
name = top;
pos = (341,698);
}
);
layerId = master03;
shapes = (
{
closed = 1;
nodes = (
(149,575,l),
(379,575,l),
(379,210,ls),
(379,142,o),
(349,110,o),
(298,110,cs),
(238,110,o),
(211,152,o),
(200,211,c),
(58,182,l),
(80,66,o),
(155,-12,o),
(298,-12,cs),
(440,-12,o),
(531,69,o),
(531,195,cs),
(531,698,l),
(149,698,l,{
name = hr00;
})
);
}
);
width = 640;
}
);
unicode = 74;
},
{
glyphname = K;
lastChange = "2021-02-28 18:55:49 +0000";
layers = (
{
anchors = (
{
name = bottom;
pos = (342,0);
},
{
name = top;
pos = (333,698);
}
);
layerId = master02;
shapes = (
{
closed = 1;
nodes = (
(598,0,l),
(346,404,l),
(591,698,l),
(490,698,l),
(284,450,l),
(192,334,l),
(189,334,l),
(189,698,l),
(105,698,l),
(105,0,l),
(189,0,l),
(189,224,l),
(289,342,l),
(500,0,l,{
name = hr00;
})
);
}
);
width = 640;
},
{
anchors = (
{
name = bottom;
pos = (345,0);
},
{
name = top;
pos = (337,698);
}
);
layerId = master03;
shapes = (
{
closed = 1;
nodes = (
(623,0,l),
(404,403,l),
(613,698,l),
(445,698,l),
(322,522,l),
(246,406,l),
(238,406,l),
(238,698,l),
(88,698,l),
(88,0,l),
(238,0,l),
(238,204,l),
(300,291,l),
(454,0,l,{
name = hr00;
})
);
}
);
width = 640;
}
);
unicode = 75;
},
{
glyphname = L;
lastChange = "2021-02-28 18:55:49 +0000";
layers = (
{
anchors = (
{
name = bottom;
pos = (347,0);
},
{
name = top;
pos = (182,698);
},
{
name = topright;
pos = (310,740);
}
);
layerId = master02;
shapes = (
{
closed = 1;
nodes = (
(555,73,l),
(224,73,l),
(224,698,l),
(140,698,l),
(140,0,l),
(555,0,l,{
name = hr00;
})
);
}
);
width = 640;
},
{
anchors = (
{
name = bottom;
pos = (337,0);
},
{
name = top;
pos = (187,698);
},
{
name = topright;
pos = (340,740);
}
);
layerId = master03;
shapes = (
{
closed = 1;
nodes = (
(563,123,l),
(263,123,l),
(263,698,l),
(112,698,l),
(112,0,l),
(563,0,l,{
name = hr00;
})
);
}
);
width = 640;
}
);
unicode = 76;
},
{
glyphname = M;
lastChange = "2021-02-28 18:55:49 +0000";
layers = (
{
anchors = (
{
name = bottom;
pos = (320,0);
},
{
name = top;
pos = (320,698);
}
);
layerId = master02;
shapes = (
{
closed = 1;
nodes = (
(552,0,l),
(552,698,l),
(448,698,l),
(325,390,l),
(319,390,l),
(196,698,l),
(88,698,l),
(88,0,l),
(165,0,l),
(165,350,l),
(165,571,l),
(173,571,l),
(320,212,l),
(467,571,l),
(475,571,l),
(475,350,l),
(475,0,l,{
name = hr00;
})
);
}
);
width = 640;
},
{
anchors = (
{
name = bottom;
pos = (320,0);
},
{
name = top;
pos = (320,698);
}
);
layerId = master03;
shapes = (
{
closed = 1;
nodes = (
(581,0,l),
(581,698,l),
(416,698,l),
(330,463,l),
(322,463,l),
(236,698,l),
(59,698,l),
(59,0,l),
(189,0,l),
(189,311,l),
(181,506,l),
(190,506,l),
(320,147,l),
(450,506,l),
(459,506,l),
(451,311,l),
(451,0,l,{
name = hr00;
})
);
}
);
width = 640;
}
);
unicode = 77;
},
{
glyphname = N;
lastChange = "2021-02-28 18:55:49 +0000";
layers = (
{
anchors = (
{
name = bottom;
pos = (320,0);
},
{
name = top;
pos = (320,698);
}
);
layerId = master02;
shapes = (
{
closed = 1;
nodes = (
(540,0,l),
(540,698,l),
(464,698,l),
(464,113,l),
(457,113,l),
(219,698,l),
(100,698,l),
(100,0,l),
(176,0,l),
(176,591,l),
(183,591,l),
(421,0,l,{
name = hr00;
})
);
}
);
width = 640;
},
{
anchors = (
{
name = bottom;
pos = (320,0);
},
{
name = top;
pos = (320,698);
}
);
layerId = master03;
shapes = (
{
closed = 1;
nodes = (
(559,0,l),
(559,698,l),
(431,698,l),
(431,234,l),
(420,234,l),
(261,698,l),
(81,698,l),
(81,0,l),
(209,0,l),
(209,464,l),
(220,464,l),
(379,0,l,{
name = hr00;
})
);
}
);
width = 640;
}
);
unicode = 78;
},
{
glyphname = O;
lastChange = "2021-02-28 18:55:49 +0000";
layers = (
{
anchors = (
{
name = bottom;
pos = (320,0);
},
{
name = top;
pos = (320,698);
}
);
layerId = master02;
shapes = (
{
closed = 1;
nodes = (
(490,-12,o),
(564,121,o),
(564,349,cs),
(564,577,o),
(490,710,o),
(320,710,cs),
(150,710,o),
(76,577,o),
(76,349,cs),
(76,121,o),
(150,-12,o),
(320,-12,cs,{
name = hr00;
})
);
},
{
closed = 1;
nodes = (
(209,61,o),
(165,152,o),
(165,292,cs),
(165,406,ls),
(165,546,o),
(209,637,o),
(320,637,cs),
(431,637,o),
(475,546,o),
(475,406,cs),
(475,292,l),
(475,152,o),
(431,61,o),
(320,61,cs)
);
}
);
width = 640;
},
{
anchors = (
{
name = bottom;
pos = (320,0);
},
{
name = top;
pos = (320,698);
}
);
layerId = master03;
shapes = (
{
closed = 1;
nodes = (
(507,-12,o),
(593,121,o),
(593,349,cs),
(593,577,o),
(507,710,o),
(320,710,cs),
(133,710,o),
(47,577,o),
(47,349,cs),
(47,121,o),
(133,-12,o),
(320,-12,cs,{
name = hr00;
})
);
},
{
closed = 1;
nodes = (
(235,109,o),
(207,176,o),
(207,288,cs),
(207,410,ls),
(207,522,o),
(235,589,o),
(320,589,cs),
(405,589,o),
(433,522,o),
(433,410,cs),
(433,289,l),
(433,176,o),
(405,109,o),
(320,109,cs)
);
}
);
width = 640;
}
);
unicode = 79;
},
{
glyphname = P;
lastChange = "2021-02-28 18:55:49 +0000";
layers = (
{
anchors = (
{
name = bottom;
pos = (152,0);
},
{
name = top;
pos = (320,698);
}
);
layerId = master02;
shapes = (
{
closed = 1;
nodes = (
(194,296,l),
(364,296,ls),
(493,296,o),
(563,371,o),
(563,497,cs),
(563,623,o),
(493,698,o),
(364,698,cs),
(110,698,l),
(110,0,l),
(194,0,l,{
name = hr00;
})
);
},
{
closed = 1;
nodes = (
(362,625,ls),
(432,625,o),
(474,588,o),
(474,523,cs),
(474,471,ls),
(474,406,o),
(432,369,o),
(362,369,cs),
(194,369,l),
(194,625,l)
);
}
);
width = 640;
},
{
anchors = (
{
name = bottom;
pos = (171,0);
},
{
name = top;
pos = (320,698);
}
);
layerId = master03;
shapes = (
{
closed = 1;
nodes = (
(247,254,l),
(366,254,ls),
(503,254,o),
(580,341,o),
(580,476,cs),
(580,611,o),
(503,698,o),
(366,698,cs),
(96,698,l),
(96,0,l),
(247,0,l,{
name = hr00;
})
);
},
{
closed = 1;
nodes = (
(328,577,ls),
(398,577,o),
(422,552,o),
(422,491,cs),
(422,461,l),
(422,400,o),
(398,375,o),
(328,375,cs),
(247,375,l),
(247,577,l)
);
}
);
width = 640;
}
);
unicode = 80;
},
{
glyphname = Q;
lastChange = "2021-02-28 18:55:49 +0000";
layers = (
{
anchors = (
{
name = top;
pos = (320,698);
}
);
layerId = master02;
shapes = (
{
closed = 1;
nodes = (
(360,-96,l),
(360,-9,l),
(501,10,o),
(564,140,o),
(564,349,cs),
(564,577,o),
(490,710,o),
(320,710,cs),
(150,710,o),
(76,577,o),
(76,349,cs),
(76,140,o),
(138,10,o),
(280,-9,c),
(280,-46,ls),
(280,-115,o),
(316,-164,o),
(394,-164,cs),
(511,-164,l),
(511,-96,l,{
name = hr00;
})
);
},
{
closed = 1;
nodes = (
(209,61,o),
(165,152,o),
(165,292,cs),
(165,406,ls),
(165,546,o),
(209,637,o),
(320,637,cs),
(431,637,o),
(475,546,o),
(475,406,cs),
(475,292,ls),
(475,152,o),
(431,61,o),
(320,61,cs)
);
}
);
width = 640;
},
{
anchors = (
{
name = top;
pos = (320,698);
}
);
layerId = master03;
shapes = (
{
closed = 1;
nodes = (
(385,-84,l),
(385,-6,l),
(527,22,o),
(593,149,o),
(593,349,cs),
(593,577,o),
(507,710,o),
(320,710,cs),
(133,710,o),
(47,577,o),
(47,349,cs),
(47,149,o),
(113,22,o),
(255,-6,c),
(255,-47,ls),
(255,-134,o),
(296,-191,o),
(404,-191,cs),
(546,-191,l),
(546,-84,l,{
name = hr00;
})
);
},
{
closed = 1;
nodes = (
(235,109,o),
(207,176,o),
(207,288,cs),
(207,410,ls),
(207,522,o),
(235,589,o),
(320,589,cs),
(405,589,o),
(433,522,o),
(433,410,cs),
(433,289,ls),
(433,176,o),
(405,109,o),
(320,109,cs)
);
}
);
width = 640;
}
);
unicode = 81;
},
{
glyphname = R;
lastChange = "2021-02-28 18:55:49 +0000";
layers = (
{
anchors = (
{
name = bottom;
pos = (328,0);
},
{
name = top;
pos = (328,698);
}
);
layerId = master02;
shapes = (
{
closed = 1;
nodes = (
(305,298,l),
(475,0,l),
(569,0,l),
(391,302,l),
(502,313,o),
(563,385,o),
(563,497,cs),
(563,623,o),
(493,698,o),
(364,698,cs),
(110,698,l),
(110,0,l),
(194,0,l),
(194,298,l,{
name = hr00;
})
);
},
{
closed = 1;
nodes = (
(194,625,l),
(362,625,ls),
(432,625,o),
(474,588,o),
(474,523,cs),
(474,471,ls),
(474,406,o),
(432,369,o),
(362,369,cs),
(194,369,l)
);
}
);
width = 640;
},
{
anchors = (
{
name = bottom;
pos = (335,0);
},
{
name = top;
pos = (324,698);
}
);
layerId = master03;
shapes = (
{
closed = 1;
nodes = (
(313,259,l),
(430,0,l),
(594,0,l),
(457,279,l),
(535,301,o),
(580,378,o),
(580,476,cs),
(580,611,o),
(503,698,o),
(366,698,cs),
(96,698,l),
(96,0,l),
(244,0,l),
(244,259,l,{
name = hr00;
})
);
},
{
closed = 1;
nodes = (
(244,577,l),
(330,577,ls),
(400,577,o),
(424,552,o),
(424,491,cs),
(424,461,ls),
(424,400,o),
(400,375,o),
(330,375,cs),
(244,375,l)
);
}
);
width = 640;
}
);
unicode = 82;
},
{
glyphname = S;
lastChange = "2021-02-28 18:55:49 +0000";
layers = (
{
anchors = (
{
name = bottom;
pos = (317,0);
},
{
name = top;
pos = (318,698);
}
);
layerId = master02;
shapes = (
{
closed = 1;
nodes = (
(473,-12,o),
(562,66,o),
(562,195,cs),
(562,286,o),
(517,362,o),
(380,386,cs),
(305,399,ls),
(206,416,o),
(174,456,o),
(174,518,cs),
(174,597,o),
(227,638,o),
(321,638,cs),
(408,638,o),
(458,603,o),
(497,552,c),
(556,603,l),
(509,670,o),
(433,710,o),
(322,710,cs),
(180,710,o),
(89,644,o),
(89,516,cs),
(89,428,o),
(132,349,o),
(269,326,cs),
(347,313,ls),
(442,297,o),
(477,261,o),
(477,193,cs),
(477,109,o),
(422,60,o),
(321,60,cs),
(237,60,o),
(180,93,o),
(126,161,c),
(65,111,l),
(117,39,o),
(193,-12,o),
(318,-12,cs,{
name = hr00;
})
);
}
);
width = 640;
},
{
anchors = (
{
name = bottom;
pos = (312,0);
},
{
name = top;
pos = (325,698);
}
);
layerId = master03;
shapes = (
{
closed = 1;
nodes = (
(484,-12,o),
(576,84,o),
(576,215,cs),
(576,325,o),
(511,391,o),
(399,411,cs),
(326,424,ls),
(258,436,o),
(230,457,o),
(230,505,cs),
(230,560,o),
(264,588,o),
(331,588,cs),
(394,588,o),
(446,563,o),
(483,522,c),
(568,617,l),
(519,674,o),
(437,710,o),
(330,710,cs),
(172,710,o),
(79,632,o),
(79,498,cs),
(79,396,o),
(132,319,o),
(257,298,cs),
(330,286,ls),
(398,275,o),
(424,252,o),
(424,203,cs),
(424,143,o),
(385,110,o),
(314,110,cs),
(252,110,o),
(189,136,o),
(138,192,c),
(51,96,l),
(104,30,o),
(193,-12,o),
(309,-12,cs,{
name = hr00;
})
);
}
);
width = 640;
}
);
unicode = 83;
},
{
glyphname = T;
lastChange = "2021-02-28 18:55:49 +0000";
layers = (
{
anchors = (
{
name = bottom;
pos = (320,0);
},
{
name = top;
pos = (320,698);
}
);
layerId = master02;
shapes = (
{
closed = 1;
nodes = (
(595,698,l),
(45,698,l),
(45,625,l),
(278,625,l),
(278,0,l),
(362,0,l),
(362,625,l),
(595,625,l,{
name = hr00;
})
);
}
);
width = 640;
},
{
anchors = (
{
name = bottom;
pos = (320,0);
},
{
name = top;
pos = (320,698);
}
);
layerId = master03;
shapes = (
{
closed = 1;
nodes = (
(596,698,l),
(44,698,l),
(44,575,l),
(245,575,l),
(245,0,l),
(395,0,l),
(395,575,l),
(596,575,l,{
name = hr00;
})
);
}
);
width = 640;
}
);
unicode = 84;
},
{
glyphname = U;
lastChange = "2021-02-28 18:55:49 +0000";
layers = (
{
anchors = (
{
name = bottom;
pos = (320,0);
},
{
name = bottomright;
pos = (414,0);
},
{
name = top;
pos = (320,698);
}
);
layerId = master02;
shapes = (
{
closed = 1;
nodes = (
(100,299,ls),
(100,92,o),
(130,-12,o),
(320,-12,cs),
(510,-12,o),
(540,92,o),
(540,299,cs),
(540,698,l),
(456,698,l),
(456,279,ls),
(456,144,o),
(451,61,o),
(320,61,cs),
(189,61,o),
(184,144,o),
(184,279,cs),
(184,698,l),
(100,698,l,{
name = hr00;
})
);
}
);
width = 640;
},
{
anchors = (
{
name = bottom;
pos = (320,0);
},
{
name = bottomright;
pos = (424,0);
},
{
name = top;
pos = (320,698);
}
);
layerId = master03;
shapes = (
{
closed = 1;
nodes = (
(75,276,ls),
(75,85,o),
(117,-12,o),
(320,-12,cs),
(523,-12,o),
(565,85,o),
(565,276,cs),
(565,698,l),
(415,698,l),
(415,256,ls),
(415,167,o),
(408,109,o),
(320,109,cs),
(232,109,o),
(225,167,o),
(225,256,cs),
(225,698,l),
(75,698,l,{
name = hr00;
})
);
}
);
width = 640;
}
);
unicode = 85;
},
{
glyphname = V;
lastChange = "2021-02-28 18:55:49 +0000";
layers = (
{
anchors = (
{
name = bottom;
pos = (320,0);
},
{
name = top;
pos = (320,698);
}
);
layerId = master02;
shapes = (
{
closed = 1;
nodes = (
(584,698,l),
(498,698,l),
(399,349,l),
(324,85,l),
(319,85,l),
(244,349,l),
(145,698,l),
(56,698,l),
(263,0,l),
(377,0,l,{
name = hr00;
})
);
}
);
width = 640;
},
{
anchors = (
{
name = bottom;
pos = (320,0);
},
{
name = top;
pos = (320,698);
}
);
layerId = master03;
shapes = (
{
closed = 1;
nodes = (
(611,698,l),
(452,698,l),
(369,343,l),
(327,142,l),
(319,142,l),
(278,343,l),
(196,698,l),
(29,698,l),
(214,0,l),
(426,0,l,{
name = hr00;
})
);
}
);
width = 640;
}
);
unicode = 86;
},
{
glyphname = W;
lastChange = "2021-02-28 18:55:49 +0000";
layers = (
{
anchors = (
{
name = bottom;
pos = (320,0);
},
{
name = top;
pos = (320,698);
}
);
layerId = master02;
shapes = (
{
closed = 1;
nodes = (
(316,417,l),
(324,417,l),
(409,0,l),
(530,0,l),
(585,698,l),
(512,698,l),
(483,298,l),
(468,87,l),
(460,87,l),
(368,516,l),
(274,516,l),
(182,87,l),
(174,87,l),
(159,298,l),
(130,698,l),
(55,698,l),
(110,0,l),
(231,0,l,{
name = hr00;
})
);
}
);
width = 640;
},
{
anchors = (
{
name = bottom;
pos = (320,0);
},
{
name = top;
pos = (320,698);
}
);
layerId = master03;
shapes = (
{
closed = 1;
nodes = (
(315,385,l),
(325,385,l),
(376,0,l),
(566,0,l),
(609,698,l),
(485,698,l),
(465,276,l),
(459,148,l),
(450,148,l),
(390,546,l),
(255,546,l),
(195,148,l),
(186,148,l),
(180,280,l),
(160,698,l),
(31,698,l),
(74,0,l),
(264,0,l,{
name = hr00;
})
);
}
);
width = 640;
}
);
unicode = 87;
},
{
glyphname = X;
lastChange = "2021-02-28 18:55:49 +0000";
layers = (
{
anchors = (
{
name = bottom;
pos = (320,0);
},
{
name = top;
pos = (320,698);
}
);
layerId = master02;
shapes = (
{
closed = 1;
nodes = (
(588,698,l),
(496,698,l),
(412,563,l),
(326,422,l),
(322,422,l),
(235,563,l),
(154,698,l),
(59,698,l),
(274,356,l),
(46,0,l),
(138,0,l),
(226,139,l),
(321,291,l),
(325,291,l),
(417,139,l),
(500,0,l),
(595,0,l),
(372,357,l,{
name = hr00;
})
);
}
);
width = 640;
},
{
anchors = (
{
name = bottom;
pos = (320,0);
},
{
name = top;
pos = (320,698);
}
);
layerId = master03;
shapes = (
{
closed = 1;
nodes = (
(598,698,l),
(441,698,l),
(381,587,l),
(329,475,l),
(321,475,l),
(270,587,l),
(213,698,l),
(42,698,l),
(225,361,l),
(29,0,l),
(186,0,l),
(260,139,l),
(310,249,l),
(319,249,l),
(368,139,l),
(440,0,l),
(611,0,l),
(415,359,l,{
name = hr00;
})
);
}
);
width = 640;
}
);
unicode = 88;
},
{
glyphname = Y;
lastChange = "2021-02-28 18:55:49 +0000";
layers = (
{
anchors = (
{
name = bottom;
pos = (320,0);
},
{
name = top;
pos = (320,698);
}
);
layerId = master02;
shapes = (
{
closed = 1;
nodes = (
(362,274,l),
(603,698,l),
(509,698,l),
(409,516,l),
(322,357,l),
(318,357,l),
(233,516,l),
(133,698,l),
(37,698,l),
(278,274,l),
(278,0,l),
(362,0,l,{
name = hr00;
})
);
}
);
width = 640;
},
{
anchors = (
{
name = bottom;
pos = (320,0);
},
{
name = top;
pos = (320,698);
}
);
layerId = master03;
shapes = (
{
closed = 1;
nodes = (
(395,247,l),
(616,698,l),
(455,698,l),
(381,536,l),
(327,399,l),
(319,399,l),
(265,536,l),
(191,698,l),
(24,698,l),
(245,247,l),
(245,0,l),
(395,0,l,{
name = hr00;
})
);
}
);
width = 640;
}
);
unicode = 89;
},
{
glyphname = Z;
lastChange = "2021-02-28 18:55:49 +0000";
layers = (
{
anchors = (
{
name = bottom;
pos = (320,0);
},
{
name = top;
pos = (320,698);
}
);
layerId = master02;
shapes = (
{
closed = 1;
nodes = (
(159,73,l),
(555,623,l),
(555,698,l),
(85,698,l),
(85,625,l),
(463,625,l),
(68,75,l),
(68,0,l),
(572,0,l),
(572,73,l,{
name = hr00;
})
);
}
);
width = 640;
},
{
anchors = (
{
name = bottom;
pos = (319,0);
},
{
name = top;
pos = (320,698);
}
);
layerId = master03;
shapes = (
{
closed = 1;
nodes = (
(236,123,l),
(561,567,l),
(561,698,l),
(78,698,l),
(78,575,l),
(393,575,l),
(68,131,l),
(68,0,l),
(571,0,l),
(571,123,l,{
name = hr00;
})
);
}
);
width = 640;
}
);
unicode = 90;
},
{
glyphname = zero;
lastChange = "2021-02-28 18:55:49 +0000";
layers = (
{
layerId = master02;
shapes = (
{
closed = 1;
nodes = (
(490,-12,o),
(564,121,o),
(564,349,cs),
(564,577,o),
(490,710,o),
(320,710,cs),
(150,710,o),
(76,577,o),
(76,349,cs),
(76,121,o),
(150,-12,o),
(320,-12,cs,{
name = hr00;
})
);
},
{
closed = 1;
nodes = (
(208,61,o),
(163,152,o),
(163,292,cs),
(163,406,ls),
(163,546,o),
(208,637,o),
(320,637,cs),
(432,637,o),
(477,546,o),
(477,406,cs),
(477,292,l),
(477,152,o),
(432,61,o),
(320,61,cs)
);
},
{
closed = 1;
nodes = (
(366,290,o),
(382,311,o),
(382,338,cs),
(382,360,ls),
(382,387,o),
(366,408,o),
(320,408,cs),
(274,408,o),
(258,387,o),
(258,360,cs),
(258,338,ls),
(258,311,o),
(274,290,o),
(320,290,cs)
);
}
);
width = 640;
},
{
layerId = master03;
shapes = (
{
closed = 1;
nodes = (
(507,-12,o),
(593,121,o),
(593,349,cs),
(593,577,o),
(507,710,o),
(320,710,cs),
(133,710,o),
(47,577,o),
(47,349,cs),
(47,121,o),
(133,-12,o),
(320,-12,cs,{
name = hr00;
})
);
},
{
closed = 1;
nodes = (
(231,106,o),
(200,173,o),
(200,284,cs),
(200,414,ls),
(200,525,o),
(231,592,o),
(320,592,cs),
(409,592,o),
(440,525,o),
(440,414,cs),
(440,284,l),
(440,173,o),
(409,106,o),
(320,106,cs)
);
},
{
closed = 1;
nodes = (
(366,290,o),
(382,311,o),
(382,338,cs),
(382,360,ls),
(382,387,o),
(366,408,o),
(320,408,cs),
(274,408,o),
(258,387,o),
(258,360,cs),
(258,338,l),
(258,311,o),
(274,290,o),
(320,290,cs)
);
}
);
width = 640;
}
);
unicode = 48;
},
{
glyphname = zero.alt01;
lastChange = "2021-02-28 18:55:49 +0000";
layers = (
{
layerId = master02;
shapes = (
{
closed = 1;
nodes = (
(490,-12,o),
(564,121,o),
(564,349,cs),
(564,577,o),
(490,710,o),
(320,710,cs),
(150,710,o),
(76,577,o),
(76,349,cs),
(76,121,o),
(150,-12,o),
(320,-12,cs,{
name = hr00;
})
);
},
{
closed = 1;
nodes = (
(389,637,o),
(433,603,o),
(456,543,c),
(167,227,l),
(164,247,o),
(163,269,o),
(163,292,c),
(163,406,ls),
(163,546,o),
(208,637,o),
(320,637,cs)
);
},
{
closed = 1;
nodes = (
(251,61,o),
(207,95,o),
(184,155,c),
(473,471,l),
(476,451,o),
(477,429,o),
(477,406,cs),
(477,292,ls),
(477,152,o),
(432,61,o),
(320,61,cs)
);
}
);
width = 640;
},
{
layerId = master03;
shapes = (
{
closed = 1;
nodes = (
(507,-12,o),
(593,121,o),
(593,349,cs),
(593,577,o),
(507,710,o),
(320,710,cs),
(133,710,o),
(47,577,o),
(47,349,cs),
(47,121,o),
(133,-12,o),
(320,-12,cs,{
name = hr00;
})
);
},
{
closed = 1;
nodes = (
(373,597,o),
(407,574,o),
(425,533,c),
(195,282,l),
(194,286,o),
(194,289,o),
(194,292,c),
(194,414,ls),
(194,529,o),
(227,597,o),
(320,597,cs)
);
},
{
closed = 1;
nodes = (
(267,101,o),
(233,124,o),
(215,165,c),
(445,416,l),
(446,412,o),
(446,409,o),
(446,406,cs),
(446,284,l),
(446,169,o),
(413,101,o),
(320,101,cs)
);
}
);
width = 640;
}
);
},
{
glyphname = one;
lastChange = "2021-02-28 18:55:49 +0000";
layers = (
{
layerId = master02;
shapes = (
{
closed = 1;
nodes = (
(573,73,l),
(389,73,l),
(389,698,l),
(258,698,l),
(73,525,l),
(122,472,l),
(298,636,l),
(305,636,l),
(305,73,l),
(105,73,l),
(105,0,l),
(573,0,l,{
name = hr00;
})
);
}
);
width = 640;
},
{
layerId = master03;
shapes = (
{
closed = 1;
nodes = (
(600,121,l),
(452,121,l),
(452,698,l),
(222,698,l),
(55,478,l),
(151,403,l),
(293,589,l),
(302,589,l),
(302,121,l),
(114,121,l),
(114,0,l),
(600,0,l,{
name = hr00;
})
);
}
);
width = 640;
}
);
unicode = 49;
},
{
glyphname = two;
lastChange = "2021-02-28 18:55:49 +0000";
layers = (
{
layerId = master02;
shapes = (
{
closed = 1;
nodes = (
(178,73,l),
(373,243,ls),
(466,324,o),
(529,402,o),
(529,508,cs),
(529,626,o),
(451,710,o),
(312,710,cs),
(175,710,o),
(112,628,o),
(85,546,c),
(160,518,l),
(182,590,o),
(225,637,o),
(310,637,cs),
(396,637,o),
(441,589,o),
(441,505,cs),
(441,493,ls),
(441,422,o),
(392,357,o),
(324,296,cs),
(91,86,l),
(91,0,l),
(557,0,l),
(557,73,l,{
name = hr00;
})
);
}
);
width = 640;
},
{
layerId = master03;
shapes = (
{
closed = 1;
nodes = (
(239,126,l),
(372,229,ls),
(477,309,o),
(560,384,o),
(560,500,cs),
(560,621,o),
(472,710,o),
(319,710,cs),
(171,710,o),
(89,628,o),
(58,532,c),
(189,482,l),
(204,535,o),
(237,580,o),
(304,580,cs),
(362,580,o),
(400,549,o),
(400,491,cs),
(400,481,ls),
(400,428,o),
(369,385,o),
(293,320,cs),
(73,137,l),
(73,0,l),
(575,0,l),
(575,126,l,{
name = hr00;
})
);
}
);
width = 640;
}
);
unicode = 50;
},
{
glyphname = three;
lastChange = "2021-02-28 18:55:49 +0000";
layers = (
{
layerId = master02;
shapes = (
{
closed = 1;
nodes = (
(213,330,l),
(296,330,ls),
(398,330,o),
(450,282,o),
(450,200,cs),
(450,192,ls),
(450,109,o),
(395,61,o),
(297,61,cs),
(209,61,o),
(168,100,o),
(131,155,c),
(68,107,l),
(111,47,o),
(174,-12,o),
(297,-12,cs),
(442,-12,o),
(538,71,o),
(538,191,cs),
(538,296,o),
(465,352,o),
(388,367,c),
(388,371,l),
(464,390,o),
(524,444,o),
(524,534,cs,{
name = hr01;
}),
(524,647,o),
(429,710,o),
(310,710,cs),
(196,710,o),
(134,652,o),
(98,596,c),
(161,548,l),
(190,601,o),
(234,637,o),
(308,637,cs),
(384,637,o),
(436,599,o),
(436,525,cs),
(436,518,ls),
(436,451,o),
(387,402,o),
(290,402,cs),
(213,402,l)
);
}
);
width = 640;
},
{
layerId = master03;
shapes = (
{
closed = 1;
nodes = (
(227,297,l),
(292,297,ls),
(370,297,o),
(417,268,o),
(417,211,cs),
(417,204,ls),
(417,146,o),
(376,110,o),
(305,110,cs),
(228,110,o),
(186,151,o),
(155,208,c),
(44,122,l),
(89,52,o),
(162,-12,o),
(302,-12,cs),
(467,-12,o),
(575,69,o),
(575,194,cs),
(575,290,o),
(511,347,o),
(426,362,c),
(426,368,l),
(500,381,o),
(562,436,o),
(562,525,cs,{
name = hr01;
}),
(562,637,o),
(463,710,o),
(312,710,cs),
(190,710,o),
(121,662,o),
(67,593,c),
(162,505,l),
(197,558,o),
(249,588,o),
(306,588,cs),
(368,588,o),
(404,555,o),
(404,505,cs),
(404,498,ls),
(404,455,o),
(370,422,o),
(293,422,cs),
(227,422,l)
);
}
);
width = 640;
}
);
unicode = 51;
},
{
glyphname = four;
lastChange = "2021-02-28 18:55:49 +0000";
layers = (
{
layerId = master02;
shapes = (
{
closed = 1;
nodes = (
(478,137,l),
(582,137,l),
(582,206,l),
(478,206,l),
(478,698,l),
(356,698,l),
(54,211,l),
(54,137,l),
(398,137,l),
(398,0,l),
(478,0,l,{
name = hr00;
})
);
},
{
closed = 1;
nodes = (
(398,633,l),
(398,206,l),
(129,206,l),
(394,633,l)
);
}
);
width = 640;
},
{
layerId = master03;
shapes = (
{
closed = 1;
nodes = (
(503,134,l),
(593,134,l),
(593,250,l),
(503,250,l),
(503,698,l),
(323,698,l),
(45,262,l),
(45,134,l),
(359,134,l),
(359,0,l),
(503,0,l,{
name = hr00;
})
);
},
{
closed = 1;
nodes = (
(359,543,l),
(359,250,l),
(166,250,l),
(350,543,l)
);
}
);
width = 640;
}
);
unicode = 52;
},
{
glyphname = five;
lastChange = "2021-02-28 18:55:49 +0000";
layers = (
{
layerId = master02;
shapes = (
{
closed = 1;
nodes = (
(141,698,l),
(116,314,l),
(187,304,l),
(217,337,o),
(249,363,o),
(315,363,cs),
(412,363,o),
(466,308,o),
(466,216,cs),
(466,208,ls),
(466,117,o),
(413,61,o),
(317,61,c),
(231,61,o),
(193,100,o),
(156,155,c),
(93,107,l),
(136,47,o),
(197,-12,o),
(315,-12,cs),
(464,-12,o),
(553,83,o),
(553,219,cs),
(553,354,o),
(464,434,o),
(342,434,cs),
(268,434,o),
(230,405,o),
(196,358,c),
(189,358,l),
(209,625,l),
(521,625,l),
(521,698,l,{
name = hr00;
})
);
}
);
width = 640;
},
{
layerId = master03;
shapes = (
{
closed = 1;
nodes = (
(112,698,l),
(86,303,l),
(209,286,l),
(228,307,o),
(264,335,o),
(320,335,cs),
(387,335,o),
(429,295,o),
(429,230,cs),
(429,222,ls),
(429,154,o),
(390,110,o),
(316,110,c),
(242,110,o),
(202,154,o),
(171,208,c),
(62,122,l),
(105,52,o),
(178,-12,o),
(315,-12,cs),
(489,-12,o),
(587,93,o),
(587,234,cs),
(587,374,o),
(489,456,o),
(374,456,cs),
(288,456,o),
(244,411,o),
(215,346,c),
(206,346,l),
(222,567,l),
(545,567,l),
(545,698,l,{
name = hr00;
})
);
}
);
width = 640;
}
);
unicode = 53;
},
{
glyphname = six;
lastChange = "2021-02-28 18:55:49 +0000";
layers = (
{
layerId = master02;
shapes = (
{
closed = 1;
nodes = (
(463,-12,o),
(556,82,o),
(556,219,cs),
(556,351,o),
(469,434,o),
(347,434,cs),
(260,434,o),
(209,391,o),
(175,334,c),
(170,336,l),
(209,498,o),
(293,589,o),
(445,698,c),
(337,698,l),
(223,625,o),
(84,463,o),
(84,256,cs),
(84,90,o),
(174,-12,o),
(321,-12,cs,{
name = hr00;
})
);
},
{
closed = 1;
nodes = (
(225,59,o),
(169,114,o),
(169,208,cs),
(169,216,ls),
(169,310,o),
(225,365,o),
(320,365,cs),
(415,365,o),
(471,310,o),
(471,216,cs),
(471,208,ls),
(471,114,o),
(415,59,o),
(320,59,c)
);
}
);
width = 640;
},
{
layerId = master03;
shapes = (
{
closed = 1;
nodes = (
(485,-12,o),
(589,90,o),
(589,232,cs),
(589,365,o),
(499,450,o),
(382,450,cs),
(291,450,o),
(249,398,o),
(224,345,c),
(215,348,l),
(244,483,o),
(347,577,o),
(520,698,c),
(313,698,l),
(192,617,o),
(58,461,o),
(58,265,cs),
(58,97,o),
(156,-12,o),
(324,-12,cs,{
name = hr00;
})
);
},
{
closed = 1;
nodes = (
(252,105,o),
(214,145,o),
(214,214,cs),
(214,228,ls),
(214,297,o),
(255,335,o),
(323,335,cs),
(393,335,o),
(433,297,o),
(433,228,cs),
(433,214,ls),
(433,145,o),
(395,105,o),
(323,105,c)
);
}
);
width = 640;
}
);
unicode = 54;
},
{
glyphname = seven;
lastChange = "2021-02-28 18:55:49 +0000";
layers = (
{
layerId = master02;
shapes = (
{
closed = 1;
nodes = (
(551,624,l),
(551,698,l),
(85,698,l),
(85,496,l),
(160,496,l),
(160,626,l),
(466,626,l),
(193,0,l),
(283,0,l,{
name = hr00;
})
);
}
);
width = 640;
},
{
layerId = master03;
shapes = (
{
closed = 1;
nodes = (
(573,568,l),
(573,698,l),
(71,698,l),
(71,449,l),
(198,449,l),
(198,576,l),
(424,576,l),
(184,0,l),
(342,0,l,{
name = hr00;
})
);
}
);
width = 640;
}
);
unicode = 55;
},
{
glyphname = eight;
lastChange = "2021-02-28 18:55:49 +0000";
layers = (
{
layerId = master02;
shapes = (
{
closed = 1;
nodes = (
(482,-12,o),
(565,75,o),
(565,190,cs),
(565,285,o),
(508,340,o),
(423,363,c),
(423,371,l),
(497,396,o),
(544,455,o),
(544,535,cs,{
name = hr01;
}),
(544,641,o),
(461,710,o),
(320,710,cs),
(179,710,o),
(96,641,o),
(96,535,cs),
(96,455,o),
(143,396,o),
(217,371,c),
(217,363,l),
(132,340,o),
(75,285,o),
(75,190,cs,{
name = hr02;
}),
(75,75,o),
(158,-12,o),
(320,-12,cs)
);
},
{
closed = 1;
nodes = (
(222,59,o),
(162,106,o),
(162,185,cs),
(162,207,ls),
(162,287,o),
(220,333,o),
(320,333,cs),
(420,333,o),
(478,287,o),
(478,207,cs),
(478,185,ls),
(478,106,o),
(418,59,o),
(320,59,cs)
);
},
{
closed = 1;
nodes = (
(230,401,o),
(181,442,o),
(181,513,cs,{
name = hr03;
}),
(181,527,ls),
(181,598,o),
(232,639,o),
(320,639,cs),
(408,639,o),
(459,598,o),
(459,527,cs),
(459,513,ls),
(459,442,o),
(410,401,o),
(320,401,cs)
);
}
);
width = 640;
},
{
layerId = master03;
shapes = (
{
closed = 1;
nodes = (
(488,-12,o),
(584,74,o),
(584,192,cs),
(584,282,o),
(526,338,o),
(445,360,c),
(445,368,l),
(514,393,o),
(563,445,o),
(563,526,cs,{
name = hr01;
}),
(563,633,o),
(476,710,o),
(320,710,cs),
(164,710,o),
(77,633,o),
(77,526,cs),
(77,445,o),
(126,393,o),
(195,368,c),
(195,360,l),
(114,338,o),
(56,282,o),
(56,192,cs,{
name = hr02;
}),
(56,74,o),
(152,-12,o),
(320,-12,cs)
);
},
{
closed = 1;
nodes = (
(251,103,o),
(213,138,o),
(213,192,cs),
(213,212,ls),
(213,267,o),
(250,301,o),
(320,301,cs),
(390,301,o),
(427,267,o),
(427,212,cs),
(427,192,ls),
(427,138,o),
(389,103,o),
(320,103,cs)
);
},
{
closed = 1;
nodes = (
(254,411,o),
(218,444,o),
(218,496,cs,{
name = hr03;
}),
(218,511,ls),
(218,563,o),
(255,595,o),
(320,595,cs),
(385,595,o),
(422,563,o),
(422,511,cs),
(422,496,ls),
(422,444,o),
(386,411,o),
(320,411,cs)
);
}
);
width = 640;
}
);
unicode = 56;
},
{
glyphname = nine;
lastChange = "2021-02-28 18:55:49 +0000";
layers = (
{
layerId = master02;
shapes = (
{
closed = 1;
nodes = (
(556,608,o),
(466,710,o),
(319,710,cs),
(177,710,o),
(84,616,o),
(84,479,cs),
(84,347,o),
(171,264,o),
(293,264,cs),
(380,264,o),
(431,307,o),
(465,364,c),
(470,362,l),
(431,200,o),
(347,109,o),
(195,0,c),
(303,0,l),
(417,73,o),
(556,235,o),
(556,442,cs,{
name = hr00;
})
);
},
{
closed = 1;
nodes = (
(225,333,o),
(169,388,o),
(169,482,cs),
(169,490,ls),
(169,584,o),
(225,639,o),
(320,639,cs),
(415,639,o),
(471,584,o),
(471,490,cs),
(471,482,ls),
(471,388,o),
(415,333,o),
(320,333,cs)
);
}
);
width = 640;
},
{
layerId = master03;
shapes = (
{
closed = 1;
nodes = (
(582,601,o),
(484,710,o),
(316,710,cs),
(155,710,o),
(51,608,o),
(51,466,cs),
(51,333,o),
(141,248,o),
(258,248,cs),
(349,248,o),
(391,300,o),
(416,353,c),
(425,350,l),
(396,215,o),
(293,121,o),
(120,0,c),
(327,0,l),
(448,81,o),
(582,237,o),
(582,433,cs,{
name = hr00;
})
);
},
{
closed = 1;
nodes = (
(247,363,o),
(207,401,o),
(207,470,cs),
(207,484,ls),
(207,553,o),
(245,593,o),
(317,593,cs),
(388,593,o),
(426,553,o),
(426,484,cs),
(426,470,ls),
(426,401,o),
(385,363,o),
(317,363,cs)
);
}
);
width = 640;
}
);
unicode = 57;
},
{
glyphname = ampersand;
lastChange = "2021-02-28 18:55:49 +0000";
layers = (
{
layerId = master02;
shapes = (
{
closed = 1;
nodes = (
(327,-12,o),
(386,34,o),
(405,103,c),
(410,103,l),
(497,0,l,{
name = hr01;
}),
(592,0,l),
(470,144,l),
(493,206,o),
(497,250,o),
(506,314,c),
(581,314,l),
(581,381,l),
(440,381,l),
(437,317,o),
(436,246,o),
(427,194,c),
(422,194,l),
(349,284,l),
(259,395,ls),
(208,459,o),
(188,494,o),
(188,536,cs),
(188,544,ls),
(188,601,o),
(226,642,o),
(286,642,cs),
(338,642,o),
(373,611,o),
(390,570,c),
(456,604,l),
(437,655,o),
(379,710,o),
(290,710,cs),
(191,710,o),
(109,642,o),
(109,541,cs),
(109,482,o),
(137,432,o),
(174,384,c),
(74,333,o),
(45,251,o),
(45,181,cs,{
name = hr02;
}),
(45,74,o),
(115,-12,o),
(237,-12,cs)
);
},
{
closed = 1;
nodes = (
(181,59,o),
(128,105,o),
(128,177,cs),
(128,192,ls),
(128,249,o),
(151,299,o),
(212,337,c),
(386,127,l),
(361,84,o),
(315,59,o),
(258,59,cs)
);
}
);
width = 640;
},
{
layerId = master03;
shapes = (
{
closed = 1;
nodes = (
(309,-12,o),
(365,29,o),
(374,97,c),
(381,97,l),
(461,0,l,{
name = hr01;
}),
(619,0,l),
(489,158,l),
(510,205,o),
(523,250,o),
(530,292,c),
(600,292,l),
(600,402,l),
(422,402,l),
(422,358,o),
(419,288,o),
(411,243,c),
(405,243,l),
(357,317,l),
(300,389,ls),
(237,469,o),
(217,492,o),
(217,530,cs),
(217,535,ls),
(217,573,o),
(244,600,o),
(284,600,cs),
(324,600,o),
(357,574,o),
(371,531,c),
(473,586,l),
(452,650,o),
(382,710,o),
(282,710,cs),
(170,710,o),
(87,634,o),
(87,534,cs),
(87,483,o),
(109,440,o),
(152,381,c),
(75,336,o),
(34,274,o),
(34,190,cs,{
name = hr02;
}),
(34,82,o),
(102,-12,o),
(227,-12,cs)
);
},
{
closed = 1;
nodes = (
(207,101,o),
(170,135,o),
(170,198,c),
(170,200,ls),
(170,238,o),
(178,272,o),
(212,305,c),
(341,141,l),
(323,111,o),
(294,101,o),
(264,101,cs)
);
}
);
width = 640;
}
);
unicode = 38;
},
{
glyphname = at;
lastChange = "2021-02-28 18:55:49 +0000";
layers = (
{
layerId = master02;
shapes = (
{
closed = 1;
nodes = (
(351,-48,ls),
(192,-48,o),
(157,74,o),
(157,229,cs),
(157,358,ls),
(157,559,o),
(204,646,o),
(323,646,cs),
(430,646,o),
(474,576,o),
(474,463,cs),
(474,439,l),
(469,439,l),
(456,473,o),
(428,508,o),
(369,508,cs),
(288,508,o),
(236,441,o),
(236,293,cs),
(236,146,o),
(288,79,o),
(369,79,cs),
(428,79,o),
(456,114,o),
(469,148,c),
(474,148,l),
(474,91,l),
(545,91,l),
(545,463,ls),
(545,603,o),
(481,710,o),
(321,710,cs),
(165,710,o),
(82,609,o),
(82,300,cs),
(82,24,o),
(148,-112,o),
(351,-112,cs),
(474,-112,l),
(474,-48,l,{
name = hr00;
})
);
},
{
closed = 1;
nodes = (
(340,139,o),
(310,174,o),
(310,263,c),
(310,324,ls),
(310,413,o),
(340,448,o),
(395,448,cs),
(443,448,o),
(474,421,o),
(474,370,cs),
(474,217,ls),
(474,166,o),
(443,139,o),
(395,139,cs)
);
}
);
width = 640;
},
{
layerId = master03;
shapes = (
{
closed = 1;
nodes = (
(361,-17,ls),
(223,-17,o),
(170,74,o),
(170,229,cs),
(170,358,ls),
(170,559,o),
(229,615,o),
(327,615,cs),
(410,615,o),
(466,576,o),
(466,463,cs),
(466,436,l),
(459,436,l),
(444,485,o),
(411,509,o),
(365,509,cs),
(287,509,o),
(241,442,o),
(241,294,cs),
(241,146,o),
(287,79,o),
(365,79,cs),
(411,79,o),
(444,103,o),
(459,152,c),
(466,152,l),
(466,91,l),
(573,91,l),
(573,463,ls),
(573,602,o),
(494,710,o),
(321,710,cs),
(152,710,o),
(58,608,o),
(58,305,cs),
(58,24,o),
(139,-113,o),
(361,-113,cs),
(466,-113,l),
(466,-17,l,{
name = hr00;
})
);
},
{
closed = 1;
nodes = (
(373,165,o),
(353,187,o),
(353,261,c),
(353,327,ls),
(353,401,o),
(373,423,o),
(409,423,cs),
(446,423,o),
(466,400,o),
(466,364,cs),
(466,224,ls),
(466,188,o),
(446,165,o),
(409,165,cs)
);
}
);
width = 640;
}
);
unicode = 64;
},
{
glyphname = hyphen;
lastChange = "2021-02-28 18:55:49 +0000";
layers = (
{
layerId = master02;
shapes = (
{
closed = 1;
nodes = (
(465,346,l),
(175,346,l),
(175,262,l),
(465,262,l,{
name = hr00;
})
);
}
);
width = 640;
},
{
layerId = master03;
shapes = (
{
closed = 1;
nodes = (
(480,376,l),
(160,376,l),
(160,234,l),
(480,234,l,{
name = hr00;
})
);
}
);
width = 640;
}
);
unicode = 45;
},
{
glyphname = endash;
lastChange = "2021-02-28 18:55:49 +0000";
layers = (
{
layerId = master02;
shapes = (
{
closed = 1;
nodes = (
(560,341,l),
(80,341,l),
(80,267,l),
(560,267,l,{
name = hr00;
})
);
}
);
width = 640;
},
{
layerId = master03;
shapes = (
{
closed = 1;
nodes = (
(560,365,l),
(80,365,l),
(80,244,l),
(560,244,l,{
name = hr00;
})
);
}
);
width = 640;
}
);
unicode = 8211;
},
{
glyphname = emdash;
lastChange = "2021-02-28 18:55:49 +0000";
layers = (
{
layerId = master02;
shapes = (
{
closed = 1;
nodes = (
(620,341,l),
(20,341,l),
(20,267,l),
(620,267,l,{
name = hr00;
})
);
}
);
width = 640;
},
{
layerId = master03;
shapes = (
{
closed = 1;
nodes = (
(620,365,l),
(20,365,l),
(20,244,l),
(620,244,l,{
name = hr00;
})
);
}
);
width = 640;
}
);
unicode = 8212;
},
{
glyphname = underscore;
lastChange = "2021-02-28 18:55:49 +0000";
layers = (
{
layerId = master02;
shapes = (
{
closed = 1;
nodes = (
(560,-95,l),
(80,-95,l),
(80,-169,l),
(560,-169,l,{
name = hr00;
})
);
}
);
width = 640;
},
{
layerId = master03;
shapes = (
{
closed = 1;
nodes = (
(560,-71,l),
(80,-71,l),
(80,-192,l),
(560,-192,l,{
name = hr00;
})
);
}
);
width = 640;
}
);
unicode = 95;
},
{
glyphname = period;
lastChange = "2021-02-28 18:55:49 +0000";
layers = (
{
layerId = master02;
shapes = (
{
closed = 1;
nodes = (
(374,-9,o),
(394,17,o),
(394,51,cs),
(394,69,ls),
(394,103,o),
(374,129,o),
(320,129,cs),
(266,129,o),
(246,103,o),
(246,69,cs),
(246,51,ls),
(246,17,o),
(266,-9,o),
(320,-9,cs,{
name = hr00;
})
);
}
);
width = 640;
},
{
layerId = master03;
shapes = (
{
closed = 1;
nodes = (
(395,-12,o),
(425,26,o),
(425,71,cs),
(425,106,l),
(425,151,o),
(395,189,o),
(320,189,cs),
(245,189,o),
(215,151,o),
(215,106,cs),
(215,71,ls),
(215,26,o),
(245,-12,o),
(320,-12,cs,{
name = hr00;
})
);
}
);
width = 640;
}
);
unicode = 46;
},
{
glyphname = ellipsis;
lastChange = "2021-02-28 18:55:49 +0000";
layers = (
{
layerId = master02;
shapes = (
{
closed = 1;
nodes = (
(173,-4,o),
(190,18,o),
(190,47,cs),
(190,76,ls),
(190,105,o),
(173,127,o),
(127,127,cs),
(81,127,o),
(64,105,o),
(64,76,cs),
(64,47,ls),
(64,18,o),
(81,-4,o),
(127,-4,cs,{
name = hr00;
})
);
},
{
closed = 1;
nodes = (
(366,-4,o),
(383,18,o),
(383,47,cs),
(383,76,ls),
(383,105,o),
(366,127,o),
(320,127,cs),
(274,127,o),
(257,105,o),
(257,76,cs),
(257,47,ls),
(257,18,o),
(274,-4,o),
(320,-4,cs)
);
},
{
closed = 1;
nodes = (
(559,-4,o),
(576,18,o),
(576,47,cs),
(576,76,ls),
(576,105,o),
(559,127,o),
(513,127,cs),
(467,127,o),
(450,105,o),
(450,76,cs),
(450,47,ls),
(450,18,o),
(467,-4,o),
(513,-4,cs)
);
}
);
width = 640;
},
{
layerId = master03;
shapes = (
{
closed = 1;
nodes = (
(170,-7,o),
(194,18,o),
(194,47,cs),
(194,93,ls),
(194,122,o),
(170,147,o),
(122,147,cs),
(72,147,o),
(49,122,o),
(49,93,cs),
(49,47,ls),
(49,18,o),
(72,-7,o),
(122,-7,cs,{
name = hr00;
})
);
},
{
closed = 1;
nodes = (
(369,-7,o),
(393,18,o),
(393,47,cs),
(393,93,ls),
(393,122,o),
(369,147,o),
(320,147,cs),
(271,147,o),
(247,122,o),
(247,93,cs),
(247,47,ls),
(247,18,o),
(271,-7,o),
(320,-7,cs)
);
},
{
closed = 1;
nodes = (
(567,-7,o),
(591,18,o),
(591,47,cs),
(591,93,ls),
(591,122,o),
(567,147,o),
(518,147,cs),
(470,147,o),
(446,122,o),
(446,93,cs),
(446,47,ls),
(446,18,o),
(470,-7,o),
(518,-7,cs)
);
}
);
width = 640;
}
);
unicode = 8230;
},
{
glyphname = comma;
lastChange = "2021-02-28 18:55:49 +0000";
layers = (
{
layerId = master02;
shapes = (
{
closed = 1;
nodes = (
(291,-141,l),
(406,136,l),
(277,136,l),
(224,-141,l,{
name = hr00;
})
);
}
);
width = 640;
},
{
layerId = master03;
shapes = (
{
closed = 1;
nodes = (
(300,-151,l),
(437,174,l),
(247,174,l),
(190,-151,l,{
name = hr00;
})
);
}
);
width = 640;
}
);
unicode = 44;
},
{
glyphname = quotesingle;
lastChange = "2021-02-28 18:55:49 +0000";
layers = (
{
layerId = master02;
shapes = (
{
closed = 1;
nodes = (
(358,740,l),
(282,740,l),
(282,463,l),
(358,463,l,{
name = hr00;
})
);
}
);
width = 640;
},
{
layerId = master03;
shapes = (
{
closed = 1;
nodes = (
(386,740,l),
(254,740,l),
(254,414,l),
(386,414,l,{
name = hr00;
})
);
}
);
width = 640;
}
);
unicode = 39;
},
{
glyphname = quoteleft;
lastChange = "2021-02-28 18:55:49 +0000";
layers = (
{
layerId = master02;
shapes = (
{
closed = 1;
nodes = (
(344,463,l),
(397,740,l),
(330,740,l),
(215,463,l,{
name = hr00;
})
);
}
);
width = 640;
},
{
layerId = master03;
shapes = (
{
closed = 1;
nodes = (
(372,414,l),
(429,740,l),
(320,740,l),
(182,414,l,{
name = hr00;
})
);
}
);
width = 640;
}
);
unicode = 8216;
},
{
glyphname = quoteright;
lastChange = "2021-02-28 18:55:49 +0000";
layers = (
{
layerId = master02;
shapes = (
{
closed = 1;
nodes = (
(310,463,l),
(425,740,l),
(296,740,l),
(243,463,l,{
name = hr00;
})
);
}
);
width = 640;
},
{
layerId = master03;
shapes = (
{
closed = 1;
nodes = (
(320,414,l),
(458,740,l),
(268,740,l),
(211,414,l,{
name = hr00;
})
);
}
);
width = 640;
}
);
unicode = 8217;
},
{
glyphname = quotesinglbase;
lastChange = "2021-02-28 18:55:49 +0000";
layers = (
{
layerId = master02;
shapes = (
{
closed = 1;
nodes = (
(291,-141,l),
(406,136,l),
(277,136,l),
(224,-141,l,{
name = hr00;
})
);
}
);
width = 640;
},
{
layerId = master03;
shapes = (
{
closed = 1;
nodes = (
(300,-151,l),
(437,174,l),
(247,174,l),
(190,-151,l,{
name = hr00;
})
);
}
);
width = 640;
}
);
unicode = 8218;
},
{
glyphname = guilsinglleft;
lastChange = "2021-02-28 18:55:49 +0000";
layers = (
{
layerId = master02;
shapes = (
{
closed = 1;
nodes = (
(273,270,l),
(421,427,l),
(396,484,l),
(190,310,l),
(190,230,l),
(396,56,l),
(421,113,l,{
name = hr00;
})
);
}
);
width = 640;
},
{
layerId = master03;
shapes = (
{
closed = 1;
nodes = (
(308,272,l),
(438,410,l),
(393,506,l),
(193,338,l),
(193,206,l),
(393,38,l),
(438,133,l,{
name = hr00;
})
);
}
);
width = 640;
}
);
unicode = 8249;
},
{
glyphname = guilsinglright;
lastChange = "2021-02-28 18:55:49 +0000";
layers = (
{
layerId = master02;
shapes = (
{
closed = 1;
nodes = (
(450,230,l),
(450,310,l),
(244,484,l),
(219,427,l),
(367,270,l),
(219,113,l),
(244,56,l,{
name = hr00;
})
);
}
);
width = 640;
},
{
layerId = master03;
shapes = (
{
closed = 1;
nodes = (
(447,206,l),
(447,338,l),
(247,506,l),
(202,410,l),
(332,272,l),
(202,133,l),
(247,38,l,{
name = hr00;
})
);
}
);
width = 640;
}
);
unicode = 8250;
},
{
glyphname = exclamdown;
lastChange = "2021-02-28 18:55:49 +0000";
layers = (
{
layerId = master02;
shapes = (
{
closed = 1;
nodes = (
(364,21,l),
(336,283,l),
(304,283,l),
(276,21,l),
(276,-182,l),
(364,-182,l)
);
},
{
closed = 1;
nodes = (
(374,387,o),
(394,413,o),
(394,447,cs,{
name = hr01;
}),
(394,465,ls),
(394,499,o),
(374,525,o),
(320,525,cs),
(266,525,o),
(246,499,o),
(246,465,cs),
(246,447,ls),
(246,413,o),
(266,387,o),
(320,387,c)
);
}
);
width = 640;
},
{
layerId = master03;
shapes = (
{
closed = 1;
nodes = (
(401,21,l),
(344,273,l),
(296,273,l),
(239,21,l),
(239,-182,l),
(401,-182,l)
);
},
{
closed = 1;
nodes = (
(391,341,o),
(418,376,o),
(418,418,cs,{
name = hr01;
}),
(418,450,ls),
(418,493,o),
(391,528,o),
(320,528,cs),
(249,528,o),
(222,493,o),
(222,450,cs),
(222,418,ls),
(222,376,o),
(249,341,o),
(320,341,cs)
);
}
);
width = 640;
}
);
unicode = 161;
},
{
glyphname = exclam;
lastChange = "2021-02-28 18:55:49 +0000";
layers = (
{
layerId = master02;
shapes = (
{
closed = 1;
nodes = (
(364,495,l),
(364,698,l),
(276,698,l),
(276,495,l),
(304,233,l),
(336,233,l)
);
},
{
closed = 1;
nodes = (
(374,-9,o),
(394,17,o),
(394,51,cs,{
name = hr01;
}),
(394,69,ls),
(394,103,o),
(374,129,o),
(320,129,cs),
(266,129,o),
(246,103,o),
(246,69,cs),
(246,51,ls),
(246,17,o),
(266,-9,o),
(320,-9,cs)
);
}
);
width = 640;
},
{
layerId = master03;
shapes = (
{
closed = 1;
nodes = (
(401,495,l),
(401,698,l),
(239,698,l),
(239,495,l),
(296,243,l),
(344,243,l)
);
},
{
closed = 1;
nodes = (
(391,-12,o),
(418,23,o),
(418,66,cs,{
name = hr01;
}),
(418,98,ls),
(418,140,o),
(391,175,o),
(320,175,cs),
(249,175,o),
(222,140,o),
(222,98,cs),
(222,66,ls),
(222,23,o),
(249,-12,o),
(320,-12,cs)
);
}
);
width = 640;
}
);
unicode = 33;
},
{
glyphname = questiondown;
lastChange = "2021-02-28 18:55:49 +0000";
layers = (
{
layerId = master02;
shapes = (
{
closed = 1;
nodes = (
(447,-194,o),
(517,-120,o),
(543,-32,c),
(468,-4,l),
(450,-71,o),
(402,-121,o),
(322,-121,cs),
(245,-121,o),
(197,-83,o),
(197,-9,cs),
(197,5,ls),
(197,95,o),
(267,139,o),
(381,144,c),
(381,301,l),
(302,301,l),
(302,200,l),
(208,183,o),
(110,121,o),
(110,-5,cs),
(110,-120,o),
(192,-194,o),
(319,-194,cs,{
name = hr00;
})
);
},
{
closed = 1;
nodes = (
(392,387,o),
(412,413,o),
(412,447,cs),
(412,465,ls),
(412,499,o),
(392,525,o),
(338,525,cs),
(284,525,o),
(264,499,o),
(264,465,cs),
(264,447,ls),
(264,413,o),
(284,387,o),
(338,387,cs)
);
}
);
width = 640;
},
{
layerId = master03;
shapes = (
{
closed = 1;
nodes = (
(467,-194,o),
(536,-114,o),
(559,-34,c),
(437,17,l),
(424,-33,o),
(388,-68,o),
(334,-68,cs),
(286,-68,o),
(249,-45,o),
(249,10,cs),
(249,24,ls),
(249,100,o),
(312,126,o),
(412,130,c),
(412,283,l),
(272,283,l),
(272,211,l),
(176,195,o),
(93,124,o),
(93,11,cs),
(93,-110,o),
(187,-194,o),
(329,-194,cs)
);
},
{
closed = 1;
nodes = (
(410,341,o),
(438,376,o),
(438,418,cs,{
name = hr01;
}),
(438,450,ls),
(438,493,o),
(410,528,o),
(340,528,cs),
(269,528,o),
(241,493,o),
(241,450,cs),
(241,418,ls),
(241,376,o),
(269,341,o),
(340,341,cs)
);
}
);
width = 640;
}
);
unicode = 191;
},
{
glyphname = question;
lastChange = "2021-02-28 18:55:49 +0000";
layers = (
{
layerId = master02;
shapes = (
{
closed = 1;
nodes = (
(338,316,l),
(432,333,o),
(530,395,o),
(530,521,cs),
(530,636,o),
(448,710,o),
(321,710,cs),
(193,710,o),
(123,636,o),
(97,548,c),
(172,520,l),
(190,587,o),
(238,637,o),
(318,637,cs),
(395,637,o),
(443,599,o),
(443,525,cs),
(443,511,ls),
(443,421,o),
(373,377,o),
(259,372,c),
(259,215,l),
(338,215,l)
);
},
{
closed = 1;
nodes = (
(356,-9,o),
(376,17,o),
(376,51,cs,{
name = hr01;
}),
(376,69,ls),
(376,103,o),
(356,129,o),
(302,129,cs),
(248,129,o),
(228,103,o),
(228,69,cs),
(228,51,ls),
(228,17,o),
(248,-9,o),
(302,-9,cs)
);
}
);
width = 640;
},
{
layerId = master03;
shapes = (
{
closed = 1;
nodes = (
(368,305,l),
(464,321,o),
(547,392,o),
(547,505,cs),
(547,626,o),
(453,710,o),
(311,710,cs),
(173,710,o),
(104,630,o),
(81,550,c),
(203,499,l),
(216,549,o),
(252,584,o),
(306,584,cs),
(354,584,o),
(391,561,o),
(391,506,cs),
(391,492,ls),
(391,416,o),
(328,390,o),
(228,386,c),
(228,233,l),
(368,233,l)
);
},
{
closed = 1;
nodes = (
(371,-12,o),
(399,23,o),
(399,66,cs,{
name = hr01;
}),
(399,98,ls),
(399,140,o),
(371,175,o),
(300,175,cs),
(230,175,o),
(202,140,o),
(202,98,cs),
(202,66,ls),
(202,23,o),
(230,-12,o),
(300,-12,cs)
);
}
);
width = 640;
}
);
unicode = 63;
},
{
glyphname = parenleft;
lastChange = "2021-02-28 18:55:49 +0000";
layers = (
{
layerId = master02;
shapes = (
{
closed = 1;
nodes = (
(225,116,o),
(320,-54,o),
(433,-138,c),
(514,-138,l),
(398,-51,o),
(300,97,o),
(300,268,cs),
(300,354,ls),
(300,525,o),
(398,673,o),
(514,760,c),
(433,760,l),
(320,676,o),
(225,506,o),
(225,311,cs,{
name = hr00;
})
);
}
);
width = 640;
},
{
layerId = master03;
shapes = (
{
closed = 1;
nodes = (
(194,116,o),
(289,-54,o),
(402,-138,c),
(550,-138,l),
(426,-53,o),
(318,93,o),
(318,260,cs),
(318,362,ls),
(318,529,o),
(426,675,o),
(550,760,c),
(402,760,l),
(289,676,o),
(194,506,o),
(194,311,cs,{
name = hr00;
})
);
}
);
width = 640;
}
);
unicode = 40;
},
{
glyphname = parenright;
lastChange = "2021-02-28 18:55:49 +0000";
layers = (
{
layerId = master02;
shapes = (
{
closed = 1;
nodes = (
(415,506,o),
(320,676,o),
(207,760,c),
(126,760,l),
(242,673,o),
(340,525,o),
(340,354,cs),
(340,268,ls),
(340,97,o),
(242,-51,o),
(126,-138,c),
(207,-138,l),
(320,-54,o),
(415,116,o),
(415,311,cs,{
name = hr00;
})
);
}
);
width = 640;
},
{
layerId = master03;
shapes = (
{
closed = 1;
nodes = (
(446,506,o),
(351,676,o),
(238,760,c),
(90,760,l),
(214,675,o),
(322,529,o),
(322,362,cs),
(322,260,ls),
(322,93,o),
(214,-53,o),
(90,-138,c),
(238,-138,l),
(351,-54,o),
(446,116,o),
(446,311,cs,{
name = hr00;
})
);
}
);
width = 640;
}
);
unicode = 41;
},
{
glyphname = bracketleft;
lastChange = "2021-02-28 18:55:49 +0000";
layers = (
{
layerId = master02;
shapes = (
{
closed = 1;
nodes = (
(525,-76,l),
(314,-76,l),
(314,698,l),
(525,698,l),
(525,760,l),
(245,760,l),
(245,-138,l),
(525,-138,l,{
name = hr00;
})
);
}
);
width = 640;
},
{
layerId = master03;
shapes = (
{
closed = 1;
nodes = (
(527,-39,l),
(322,-39,l),
(322,661,l),
(527,661,l),
(527,760,l),
(203,760,l),
(203,-138,l),
(527,-138,l,{
name = hr00;
})
);
}
);
width = 640;
}
);
unicode = 91;
},
{
glyphname = bracketright;
lastChange = "2021-02-28 18:55:49 +0000";
layers = (
{
layerId = master02;
shapes = (
{
closed = 1;
nodes = (
(115,698,l),
(326,698,l),
(326,-76,l),
(115,-76,l),
(115,-138,l),
(395,-138,l),
(395,760,l),
(115,760,l,{
name = hr00;
})
);
}
);
width = 640;
},
{
layerId = master03;
shapes = (
{
closed = 1;
nodes = (
(113,661,l),
(318,661,l),
(318,-39,l),
(113,-39,l),
(113,-138,l),
(437,-138,l),
(437,760,l),
(113,760,l,{
name = hr00;
})
);
}
);
width = 640;
}
);
unicode = 93;
},
{
glyphname = braceleft;
lastChange = "2021-02-28 18:55:49 +0000";
layers = (
{
layerId = master02;
shapes = (
{
closed = 1;
nodes = (
(515,-76,l),
(324,-76,l),
(324,1,ls),
(324,56,o),
(343,79,o),
(364,107,cs),
(386,136,o),
(411,166,o),
(411,208,cs),
(411,263,o),
(368,300,o),
(301,309,c),
(301,313,l),
(368,322,o),
(411,359,o),
(411,414,cs),
(411,456,o),
(386,486,o),
(364,515,cs),
(343,543,o),
(324,566,o),
(324,621,cs),
(324,698,l),
(515,698,l),
(515,760,l),
(339,760,ls),
(284,760,o),
(255,724,o),
(255,678,cs),
(255,615,ls),
(255,543,o),
(287,510,o),
(311,480,cs),
(333,453,o),
(341,436,o),
(341,415,cs),
(341,365,o),
(293,342,o),
(203,342,cs),
(125,342,l),
(125,280,l),
(203,280,ls),
(293,280,o),
(341,257,o),
(341,207,cs),
(341,186,o),
(333,169,o),
(311,142,cs),
(287,112,o),
(255,79,o),
(255,7,cs),
(255,-56,ls),
(255,-102,o),
(284,-138,o),
(339,-138,cs),
(515,-138,l,{
name = hr00;
})
);
}
);
width = 640;
},
{
layerId = master03;
shapes = (
{
closed = 1;
nodes = (
(528,-39,l),
(343,-39,l),
(343,9,ls),
(343,59,o),
(363,81,o),
(383,107,cs),
(406,135,o),
(430,166,o),
(430,208,cs,{
name = hr01;
}),
(430,263,o),
(392,298,o),
(312,307,c),
(312,315,l),
(392,324,o),
(430,359,o),
(430,414,cs),
(430,456,o),
(406,487,o),
(383,515,cs),
(363,541,o),
(343,563,o),
(343,613,cs,{
name = hr02;
}),
(343,661,l),
(528,661,l),
(528,760,l),
(350,760,ls),
(259,760,o),
(224,715,o),
(224,652,cs),
(224,607,ls),
(224,540,o),
(256,508,o),
(280,480,cs),
(302,453,o),
(310,436,o),
(310,415,cs,{
name = hr03;
}),
(310,381,o),
(273,361,o),
(202,361,cs),
(112,361,l),
(112,261,l),
(202,261,ls),
(273,261,o),
(310,241,o),
(310,207,cs),
(310,186,o),
(302,169,o),
(280,142,cs),
(256,114,o),
(224,82,o),
(224,15,cs,{
name = hr04;
}),
(224,-30,ls),
(224,-93,o),
(259,-138,o),
(350,-138,cs),
(528,-138,l)
);
}
);
width = 640;
}
);
unicode = 123;
},
{
glyphname = braceright;
lastChange = "2021-02-28 18:55:49 +0000";
layers = (
{
layerId = master02;
shapes = (
{
closed = 1;
nodes = (
(125,698,l),
(316,698,l),
(316,621,ls),
(316,566,o),
(297,543,o),
(276,515,cs),
(254,486,o),
(229,456,o),
(229,414,cs),
(229,359,o),
(272,322,o),
(339,313,c),
(339,309,l),
(272,300,o),
(229,263,o),
(229,208,cs),
(229,166,o),
(254,136,o),
(276,107,cs),
(297,79,o),
(316,56,o),
(316,1,cs),
(316,-76,l),
(125,-76,l),
(125,-138,l),
(301,-138,ls),
(356,-138,o),
(385,-102,o),
(385,-56,cs),
(385,7,ls),
(385,79,o),
(353,112,o),
(329,142,cs),
(307,169,o),
(299,186,o),
(299,207,cs),
(299,257,o),
(347,280,o),
(437,280,cs),
(515,280,l),
(515,342,l),
(437,342,ls),
(347,342,o),
(299,365,o),
(299,415,cs),
(299,436,o),
(307,453,o),
(329,480,cs),
(353,510,o),
(385,543,o),
(385,615,cs),
(385,678,ls),
(385,724,o),
(356,760,o),
(301,760,cs),
(125,760,l,{
name = hr00;
})
);
}
);
width = 640;
},
{
layerId = master03;
shapes = (
{
closed = 1;
nodes = (
(112,661,l),
(297,661,l),
(297,613,ls),
(297,563,o),
(277,541,o),
(257,515,cs),
(234,487,o),
(210,456,o),
(210,414,cs,{
name = hr01;
}),
(210,359,o),
(248,324,o),
(328,315,c),
(328,307,l),
(248,298,o),
(210,263,o),
(210,208,cs),
(210,166,o),
(234,135,o),
(257,107,cs),
(277,81,o),
(297,59,o),
(297,9,cs,{
name = hr02;
}),
(297,-39,l),
(112,-39,l),
(112,-138,l),
(290,-138,ls),
(381,-138,o),
(416,-93,o),
(416,-30,cs),
(416,15,ls),
(416,82,o),
(384,114,o),
(360,142,cs),
(338,169,o),
(330,186,o),
(330,207,cs,{
name = hr03;
}),
(330,241,o),
(367,261,o),
(438,261,cs),
(528,261,l),
(528,361,l),
(438,361,ls),
(367,361,o),
(330,381,o),
(330,415,cs),
(330,436,o),
(338,453,o),
(360,480,cs),
(384,508,o),
(416,540,o),
(416,607,cs,{
name = hr04;
}),
(416,652,ls),
(416,715,o),
(381,760,o),
(290,760,cs),
(112,760,l)
);
}
);
width = 640;
}
);
unicode = 125;
},
{
glyphname = slash;
lastChange = "2021-02-28 18:55:49 +0000";
layers = (
{
layerId = master02;
shapes = (
{
closed = 1;
nodes = (
(530,760,l),
(458,760,l),
(110,-138,l),
(182,-138,l,{
name = hr00;
})
);
}
);
width = 640;
},
{
layerId = master03;
shapes = (
{
closed = 1;
nodes = (
(547,760,l),
(414,760,l),
(93,-138,l),
(226,-138,l,{
name = hr00;
})
);
}
);
width = 640;
}
);
unicode = 47;
},
{
glyphname = backslash;
lastChange = "2021-02-28 18:55:49 +0000";
layers = (
{
layerId = master02;
shapes = (
{
closed = 1;
nodes = (
(182,760,l),
(110,760,l),
(458,-138,l),
(530,-138,l,{
name = hr00;
})
);
}
);
width = 640;
},
{
layerId = master03;
shapes = (
{
closed = 1;
nodes = (
(226,760,l),
(93,760,l),
(414,-138,l),
(547,-138,l,{
name = hr00;
})
);
}
);
width = 640;
}
);
unicode = 92;
},
{
glyphname = fraction;
lastChange = "2021-02-28 18:55:49 +0000";
layers = (
{
layerId = master02;
shapes = (
{
closed = 1;
nodes = (
(442,398,l),
(602,698,l),
(530,698,l),
(370,398,l,{
name = hr00;
})
);
},
{
closed = 1;
nodes = (
(110,0,l),
(270,300,l),
(198,300,l),
(38,0,l)
);
}
);
width = 640;
},
{
layerId = master03;
shapes = (
{
closed = 1;
nodes = (
(446,398,l),
(619,698,l),
(516,698,l),
(343,398,l,{
name = hr00;
})
);
},
{
closed = 1;
nodes = (
(124,0,l),
(297,300,l),
(194,300,l),
(21,0,l)
);
}
);
width = 640;
}
);
unicode = 8260;
},
{
glyphname = percent;
lastChange = "2021-02-28 18:55:49 +0000";
layers = (
{
layerId = master02;
shapes = (
{
closed = 1;
nodes = (
(276,356,o),
(338,416,o),
(338,533,cs),
(338,650,o),
(276,710,o),
(189,710,cs),
(102,710,o),
(40,650,o),
(40,533,cs),
(40,416,o),
(102,356,o),
(189,356,cs)
);
},
{
closed = 1;
nodes = (
(141,410,o),
(108,445,o),
(108,508,cs),
(108,558,ls),
(108,621,o),
(141,656,o),
(189,656,cs),
(237,656,o),
(270,621,o),
(270,558,cs),
(270,508,ls),
(270,445,o),
(237,410,o),
(189,410,cs)
);
},
{
closed = 1;
nodes = (
(442,398,l),
(602,698,l),
(530,698,l),
(370,398,l,{
name = hr01;
})
);
},
{
closed = 1;
nodes = (
(110,0,l),
(270,300,l,{
name = hr02;
}),
(198,300,l),
(38,0,l)
);
},
{
closed = 1;
nodes = (
(538,-12,o),
(600,48,o),
(600,165,cs),
(600,282,o),
(538,342,o),
(451,342,cs),
(364,342,o),
(302,282,o),
(302,165,cs),
(302,48,o),
(364,-12,o),
(451,-12,cs,{
name = hr03;
})
);
},
{
closed = 1;
nodes = (
(403,42,o),
(370,77,o),
(370,140,cs),
(370,190,ls),
(370,253,o),
(403,288,o),
(451,288,cs),
(499,288,o),
(532,253,o),
(532,190,cs),
(532,140,ls),
(532,77,o),
(499,42,o),
(451,42,cs)
);
}
);
width = 640;
},
{
layerId = master03;
shapes = (
{
closed = 1;
nodes = (
(284,338,o),
(342,409,o),
(342,524,cs),
(342,639,o),
(284,710,o),
(185,710,cs),
(86,710,o),
(28,639,o),
(28,524,cs),
(28,409,o),
(86,338,o),
(185,338,cs)
);
},
{
closed = 1;
nodes = (
(146,425,o),
(133,455,o),
(133,502,cs),
(133,546,ls),
(133,593,o),
(146,623,o),
(185,623,cs),
(224,623,o),
(237,593,o),
(237,546,cs),
(237,502,ls),
(237,455,o),
(224,425,o),
(185,425,cs)
);
},
{
closed = 1;
nodes = (
(467,398,l),
(618,698,l,{
name = hr01;
}),
(505,698,l),
(354,398,l)
);
},
{
closed = 1;
nodes = (
(135,0,l),
(286,300,l),
(173,300,l),
(22,0,l)
);
},
{
closed = 1;
nodes = (
(555,-12,o),
(613,59,o),
(613,174,cs),
(613,289,o),
(555,360,o),
(456,360,cs),
(357,360,o),
(299,289,o),
(299,174,cs),
(299,59,o),
(357,-12,o),
(456,-12,cs,{
name = hr02;
})
);
},
{
closed = 1;
nodes = (
(417,75,o),
(404,105,o),
(404,152,cs),
(404,196,ls),
(404,243,o),
(417,273,o),
(456,273,cs),
(495,273,o),
(508,243,o),
(508,196,cs),
(508,152,ls),
(508,105,o),
(495,75,o),
(456,75,cs)
);
}
);
width = 640;
}
);
unicode = 37;
},
{
glyphname = perthousand;
lastChange = "2021-02-28 18:55:49 +0000";
layers = (
{
layerId = master02;
shapes = (
{
closed = 1;
nodes = (
(246,400,o),
(298,453,o),
(298,555,cs),
(298,658,o),
(245,710,o),
(159,710,cs),
(72,710,o),
(20,657,o),
(20,555,cs),
(20,452,o),
(73,400,o),
(159,400,cs,{
name = hr00;
})
);
},
{
closed = 1;
nodes = (
(114,450,o),
(88,483,o),
(88,531,cs),
(88,579,ls),
(88,627,o),
(114,660,o),
(159,660,cs),
(204,660,o),
(230,627,o),
(230,579,cs),
(230,531,ls),
(230,483,o),
(204,450,o),
(159,450,cs)
);
},
{
closed = 1;
nodes = (
(551,454,l),
(531,504,l),
(81,328,l),
(101,278,l)
);
},
{
closed = 1;
nodes = (
(313,-12,o),
(349,6,o),
(373,38,c),
(379,38,l),
(403,6,o),
(439,-12,o),
(484,-12,cs),
(568,-12,o),
(620,41,o),
(620,143,cs),
(620,245,o),
(568,298,o),
(484,298,cs),
(439,298,o),
(403,280,o),
(379,248,c),
(374,248,l),
(349,280,o),
(313,298,o),
(268,298,cs),
(184,298,o),
(132,245,o),
(132,143,cs),
(132,41,o),
(184,-12,o),
(268,-12,cs)
);
},
{
closed = 1;
nodes = (
(226,38,o),
(200,71,o),
(200,119,cs),
(200,167,ls),
(200,215,o),
(226,248,o),
(271,248,cs),
(316,248,o),
(342,215,o),
(342,167,cs),
(342,119,ls),
(342,71,o),
(316,38,o),
(271,38,cs)
);
},
{
closed = 1;
nodes = (
(436,38,o),
(410,71,o),
(410,119,cs),
(410,167,ls),
(410,215,o),
(436,248,o),
(481,248,cs),
(526,248,o),
(552,215,o),
(552,167,cs),
(552,119,ls),
(552,71,o),
(526,38,o),
(481,38,cs)
);
}
);
width = 640;
},
{
layerId = master03;
shapes = (
{
closed = 1;
nodes = (
(264,400,o),
(316,462,o),
(316,555,cs),
(316,649,o),
(264,710,o),
(168,710,cs),
(72,710,o),
(20,649,o),
(20,555,cs),
(20,462,o),
(72,400,o),
(168,400,cs)
);
},
{
closed = 1;
nodes = (
(136,479,o),
(118,507,o),
(118,539,cs),
(118,571,ls),
(118,603,o),
(136,631,o),
(168,631,cs),
(200,631,o),
(218,603,o),
(218,571,cs),
(218,539,ls),
(218,507,o),
(200,479,o),
(168,479,cs)
);
},
{
closed = 1;
nodes = (
(561,418,l),
(541,485,l),
(79,343,l),
(99,276,l)
);
},
{
closed = 1;
nodes = (
(313,-12,o),
(348,6,o),
(369,33,c),
(377,33,l),
(398,5,o),
(432,-12,o),
(474,-12,cs),
(564,-12,o),
(620,49,o),
(620,143,cs),
(620,236,o),
(565,298,o),
(474,298,cs),
(433,298,o),
(398,280,o),
(377,253,c),
(369,253,l),
(348,281,o),
(314,298,o),
(272,298,cs),
(182,298,o),
(126,237,o),
(126,143,cs,{
name = hr01;
}),
(126,50,o),
(181,-12,o),
(272,-12,cs)
);
},
{
closed = 1;
nodes = (
(242,67,o),
(224,95,o),
(224,127,cs),
(224,159,ls),
(224,191,o),
(242,219,o),
(274,219,cs),
(306,219,o),
(324,191,o),
(324,159,cs),
(324,127,ls),
(324,95,o),
(306,67,o),
(274,67,cs)
);
},
{
closed = 1;
nodes = (
(440,67,o),
(422,95,o),
(422,127,cs),
(422,159,ls),
(422,191,o),
(440,219,o),
(472,219,cs),
(504,219,o),
(522,191,o),
(522,159,cs),
(522,127,ls),
(522,95,o),
(504,67,o),
(472,67,cs)
);
}
);
width = 640;
}
);
unicode = 8240;
},
{
glyphname = bar;
lastChange = "2021-02-28 18:55:49 +0000";
layers = (
{
layerId = master02;
shapes = (
{
closed = 1;
nodes = (
(355,760,l),
(285,760,l),
(285,-138,l),
(355,-138,l,{
name = hr00;
})
);
}
);
width = 640;
},
{
layerId = master03;
shapes = (
{
closed = 1;
nodes = (
(383,760,l),
(257,760,l),
(257,-138,l),
(383,-138,l,{
name = hr00;
})
);
}
);
width = 640;
}
);
unicode = 124;
},
{
glyphname = brokenbar;
lastChange = "2021-02-28 18:55:49 +0000";
layers = (
{
layerId = master02;
shapes = (
{
closed = 1;
nodes = (
(355,760,l),
(285,760,l),
(285,401,l),
(355,401,l,{
name = hr00;
})
);
},
{
closed = 1;
nodes = (
(355,221,l),
(285,221,l),
(285,-138,l),
(355,-138,l)
);
}
);
width = 640;
},
{
layerId = master03;
shapes = (
{
closed = 1;
nodes = (
(383,760,l),
(257,760,l),
(257,401,l),
(383,401,l,{
name = hr00;
})
);
},
{
closed = 1;
nodes = (
(383,221,l),
(257,221,l),
(257,-138,l),
(383,-138,l)
);
}
);
width = 640;
}
);
unicode = 166;
},
{
glyphname = section;
lastChange = "2021-02-28 18:55:49 +0000";
layers = (
{
layerId = master02;
shapes = (
{
closed = 1;
nodes = (
(507,56,o),
(483,103,o),
(431,135,c),
(431,140,l),
(502,168,o),
(543,219,o),
(543,283,cs,{
name = hr01;
}),
(543,351,o),
(496,407,o),
(386,438,cs),
(322,456,ls),
(255,475,o),
(216,503,o),
(216,553,cs),
(216,607,o),
(261,641,o),
(337,641,cs),
(388,641,o),
(429,625,o),
(461,598,c),
(508,654,l),
(461,694,o),
(399,710,o),
(338,710,cs),
(218,710,o),
(137,648,o),
(137,552,cs),
(137,499,o),
(161,452,o),
(213,420,c),
(213,415,l),
(142,387,o),
(101,336,o),
(101,272,cs,{
name = hr02;
}),
(101,204,o),
(148,148,o),
(258,117,cs),
(322,99,ls),
(389,80,o),
(428,52,o),
(428,2,cs),
(428,-52,o),
(383,-86,o),
(307,-86,cs),
(256,-86,o),
(215,-70,o),
(183,-43,c),
(136,-99,l),
(183,-139,o),
(245,-155,o),
(306,-155,cs),
(426,-155,o),
(507,-93,o),
(507,3,cs)
);
},
{
closed = 1;
nodes = (
(464,216,o),
(438,180,o),
(397,152,c),
(387,156,o),
(375,160,o),
(363,163,cs),
(300,180,ls),
(218,202,o),
(180,235,o),
(180,292,cs),
(180,339,o),
(206,375,o),
(247,403,c),
(257,399,o),
(269,395,o),
(281,392,cs),
(344,375,ls),
(426,353,o),
(464,320,o),
(464,263,cs,{
name = hr03;
})
);
}
);
width = 640;
},
{
layerId = master03;
shapes = (
{
closed = 1;
nodes = (
(531,59,o),
(507,108,o),
(452,143,c),
(452,159,l),
(527,190,o),
(562,239,o),
(562,296,cs,{
name = hr01;
}),
(562,355,o),
(523,415,o),
(408,446,cs),
(330,467,ls),
(269,483,o),
(241,501,o),
(241,537,cs),
(241,578,o),
(279,605,o),
(337,605,cs),
(387,605,o),
(431,585,o),
(466,550,c),
(539,638,l),
(481,691,o),
(407,710,o),
(338,710,cs),
(207,710,o),
(116,640,o),
(116,531,cs),
(116,475,o),
(140,426,o),
(195,391,c),
(195,375,l),
(120,344,o),
(85,295,o),
(85,238,cs,{
name = hr02;
}),
(85,179,o),
(124,119,o),
(239,88,cs),
(317,67,ls),
(378,51,o),
(406,33,o),
(406,-3,cs),
(406,-44,o),
(368,-71,o),
(310,-71,cs),
(260,-71,o),
(216,-51,o),
(181,-16,c),
(108,-104,l),
(166,-157,o),
(240,-176,o),
(309,-176,cs),
(440,-176,o),
(531,-106,o),
(531,3,cs)
);
},
{
closed = 1;
nodes = (
(439,221,o),
(425,194,o),
(401,168,c),
(391,172,o),
(380,176,o),
(368,179,cs),
(291,200,ls),
(225,218,o),
(208,248,o),
(208,282,cs),
(208,313,o),
(222,340,o),
(246,366,c),
(256,362,o),
(267,358,o),
(279,355,cs),
(356,334,ls),
(422,316,o),
(439,286,o),
(439,252,cs,{
name = hr03;
})
);
}
);
width = 640;
}
);
unicode = 167;
},
{
glyphname = paragraph;
lastChange = "2021-02-28 18:55:49 +0000";
layers = (
{
layerId = master02;
shapes = (
{
closed = 1;
nodes = (
(362,-149,l),
(362,634,l),
(452,634,l),
(452,-149,l),
(524,-149,l),
(524,698,l),
(290,698,ls),
(166,698,o),
(65,603,o),
(65,472,cs),
(65,341,o),
(166,246,o),
(290,246,c),
(290,-149,l,{
name = hr00;
})
);
}
);
width = 640;
},
{
layerId = master03;
shapes = (
{
closed = 1;
nodes = (
(384,-149,l),
(384,582,l),
(453,582,l),
(453,-149,l),
(572,-149,l),
(572,698,l),
(265,698,ls),
(141,698,o),
(40,603,o),
(40,472,cs),
(40,341,o),
(141,246,o),
(265,246,c),
(265,-149,l,{
name = hr00;
})
);
}
);
width = 640;
}
);
unicode = 182;
},
{
glyphname = copyright;
lastChange = "2021-02-28 18:55:49 +0000";
layers = (
{
layerId = master02;
shapes = (
{
closed = 1;
nodes = (
(487,18,o),
(620,145,o),
(620,349,cs),
(620,553,o),
(487,680,o),
(320,680,cs),
(153,680,o),
(20,553,o),
(20,349,cs),
(20,145,o),
(153,18,o),
(320,18,cs,{
name = hr00;
})
);
},
{
closed = 1;
nodes = (
(183,73,o),
(83,182,o),
(83,319,cs),
(83,379,ls),
(83,516,o),
(183,625,o),
(320,625,cs),
(457,625,o),
(557,516,o),
(557,379,cs),
(557,319,ls),
(557,182,o),
(457,73,o),
(320,73,cs)
);
},
{
closed = 1;
nodes = (
(390,171,o),
(434,205,o),
(456,252,c),
(406,283,l),
(388,250,o),
(366,228,o),
(326,228,cs),
(272,228,o),
(243,266,o),
(243,321,cs),
(243,378,ls),
(243,432,o),
(273,470,o),
(325,470,cs),
(362,470,o),
(384,450,o),
(398,418,c),
(451,447,l),
(429,495,o),
(388,527,o),
(325,527,cs),
(229,527,o),
(171,458,o),
(171,349,cs),
(171,241,o),
(228,171,o),
(325,171,cs)
);
}
);
width = 640;
},
{
layerId = master03;
shapes = (
{
closed = 1;
nodes = (
(487,18,o),
(620,145,o),
(620,349,cs),
(620,553,o),
(487,680,o),
(320,680,cs),
(153,680,o),
(20,553,o),
(20,349,cs),
(20,145,o),
(153,18,o),
(320,18,cs,{
name = hr00;
})
);
},
{
closed = 1;
nodes = (
(183,73,o),
(83,182,o),
(83,319,cs),
(83,379,ls),
(83,516,o),
(183,625,o),
(320,625,cs),
(457,625,o),
(557,516,o),
(557,379,cs),
(557,319,ls),
(557,182,o),
(457,73,o),
(320,73,cs)
);
},
{
closed = 1;
nodes = (
(419,153,o),
(466,201,o),
(489,255,c),
(404,298,l),
(390,269,o),
(369,246,o),
(332,246,cs),
(291,246,o),
(267,274,o),
(267,313,cs),
(267,386,ls),
(267,424,o),
(291,452,o),
(331,452,cs),
(365,452,o),
(385,431,o),
(398,400,c),
(483,443,l),
(459,503,o),
(411,545,o),
(329,545,cs),
(221,545,o),
(145,468,o),
(145,348,cs),
(145,231,o),
(218,153,o),
(329,153,cs)
);
}
);
width = 640;
}
);
unicode = 169;
},
{
glyphname = registered;
lastChange = "2021-02-28 18:55:49 +0000";
layers = (
{
layerId = master02;
shapes = (
{
closed = 1;
nodes = (
(422,346,o),
(503,424,o),
(503,528,cs),
(503,632,o),
(422,710,o),
(320,710,cs),
(218,710,o),
(137,632,o),
(137,528,cs),
(137,424,o),
(218,346,o),
(320,346,cs,{
name = hr00;
})
);
},
{
closed = 1;
nodes = (
(243,387,o),
(185,439,o),
(185,518,cs),
(185,538,ls),
(185,617,o),
(243,669,o),
(320,669,cs),
(397,669,o),
(455,617,o),
(455,538,cs),
(455,518,ls),
(455,439,o),
(397,387,o),
(320,387,cs)
);
},
{
closed = 1;
nodes = (
(319,506,l),
(358,436,l),
(403,436,l),
(357,512,l),
(380,520,o),
(394,539,o),
(394,564,cs),
(394,599,o),
(372,621,o),
(335,621,cs),
(250,621,l),
(250,436,l),
(290,436,l),
(290,506,l)
);
},
{
closed = 1;
nodes = (
(290,590,l),
(326,590,ls),
(342,590,o),
(352,581,o),
(352,566,cs),
(352,559,ls),
(352,544,o),
(342,535,o),
(326,535,cs),
(290,535,l)
);
}
);
width = 640;
},
{
layerId = master03;
shapes = (
{
closed = 1;
nodes = (
(422,346,o),
(503,424,o),
(503,528,cs),
(503,632,o),
(422,710,o),
(320,710,cs),
(218,710,o),
(137,632,o),
(137,528,cs),
(137,424,o),
(218,346,o),
(320,346,cs,{
name = hr00;
})
);
},
{
closed = 1;
nodes = (
(243,387,o),
(185,439,o),
(185,518,cs),
(185,538,ls),
(185,617,o),
(243,669,o),
(320,669,cs),
(397,669,o),
(455,617,o),
(455,538,cs),
(455,518,ls),
(455,439,o),
(397,387,o),
(320,387,cs)
);
},
{
closed = 1;
nodes = (
(320,490,l),
(350,436,l),
(411,436,l),
(372,501,l),
(393,511,o),
(406,530,o),
(406,558,cs),
(406,594,o),
(384,621,o),
(334,621,cs),
(242,621,l),
(242,436,l),
(298,436,l),
(298,490,l)
);
},
{
closed = 1;
nodes = (
(298,578,l),
(322,578,ls),
(338,578,o),
(348,570,o),
(348,558,cs),
(348,551,ls),
(348,538,o),
(338,531,o),
(322,531,cs),
(298,531,l)
);
}
);
width = 640;
}
);
unicode = 174;
},
{
glyphname = trademark;
lastChange = "2021-02-28 18:55:49 +0000";
layers = (
{
layerId = master02;
shapes = (
{
closed = 1;
nodes = (
(174,652,l),
(260,652,l),
(260,698,l),
(36,698,l),
(36,652,l),
(122,652,l),
(122,419,l),
(174,419,l,{
name = hr00;
})
);
},
{
closed = 1;
nodes = (
(350,546,l),
(349,629,l),
(353,629,l),
(432,473,l),
(511,629,l),
(515,629,l),
(514,546,l),
(514,419,l),
(562,419,l),
(562,698,l),
(500,698,l),
(435,564,l),
(432,564,l),
(367,698,l),
(302,698,l),
(302,419,l),
(350,419,l)
);
}
);
width = 640;
},
{
layerId = master03;
shapes = (
{
closed = 1;
nodes = (
(188,637,l),
(257,637,l),
(257,698,l),
(33,698,l),
(33,637,l),
(102,637,l),
(102,409,l),
(188,409,l,{
name = hr00;
})
);
},
{
closed = 1;
nodes = (
(350,506,l),
(342,599,l),
(346,599,l),
(425,453,l),
(504,599,l),
(508,599,l),
(500,506,l),
(500,409,l),
(572,409,l),
(572,698,l),
(487,698,l),
(431,591,l),
(425,591,l),
(369,698,l),
(278,698,l),
(278,409,l),
(350,409,l)
);
}
);
width = 640;
}
);
unicode = 8482;
},
{
glyphname = ordfeminine;
lastChange = "2021-02-28 18:55:49 +0000";
layers = (
{
layerId = master02;
shapes = (
{
closed = 1;
nodes = (
(483,413,l),
(445,413,l),
(445,583,ls),
(445,664,o),
(393,710,o),
(308,710,cs),
(234,710,o),
(190,674,o),
(170,640,c),
(212,606,l),
(227,636,o),
(259,658,o),
(305,658,cs),
(355,658,o),
(382,633,o),
(382,580,cs),
(382,552,l),
(309,552,ls),
(213,552,o),
(158,519,o),
(158,448,cs),
(158,389,o),
(197,349,o),
(269,349,cs,{
name = hr01;
}),
(331,349,o),
(367,379,o),
(382,410,c),
(386,410,l),
(388,377,o),
(405,357,o),
(449,357,cs,{
name = hr02;
}),
(483,357,l)
);
},
{
closed = 1;
nodes = (
(382,465,ls),
(382,425,o),
(335,400,o),
(282,400,cs,{
name = hr03;
}),
(242,400,o),
(221,415,o),
(221,449,cs),
(221,459,ls),
(221,490,o),
(252,506,o),
(307,506,cs),
(382,506,l)
);
}
);
width = 640;
},
{
layerId = master03;
shapes = (
{
closed = 1;
nodes = (
(509,415,l),
(469,415,l),
(469,573,ls),
(469,664,o),
(410,710,o),
(312,710,cs),
(231,710,o),
(179,680,o),
(155,639,c),
(211,589,l),
(231,615,o),
(256,634,o),
(300,634,cs),
(347,634,o),
(365,612,o),
(365,569,cs),
(365,551,l),
(307,551,ls),
(202,551,o),
(145,515,o),
(145,440,cs),
(145,372,o),
(191,332,o),
(261,332,cs,{
name = hr01;
}),
(316,332,o),
(358,357,o),
(371,404,c),
(375,404,l),
(379,363,o),
(407,340,o),
(449,340,cs,{
name = hr02;
}),
(509,340,l)
);
},
{
closed = 1;
nodes = (
(365,452,ls),
(365,418,o),
(337,400,o),
(300,400,cs,{
name = hr03;
}),
(267,400,o),
(246,413,o),
(246,438,cs),
(246,452,ls),
(246,480,o),
(269,495,o),
(310,495,cs),
(365,495,l)
);
}
);
width = 640;
}
);
unicode = 170;
},
{
glyphname = ordmasculine;
lastChange = "2021-02-28 18:55:49 +0000";
layers = (
{
layerId = master02;
shapes = (
{
closed = 1;
nodes = (
(420,349,o),
(480,418,o),
(480,530,cs),
(480,641,o),
(420,710,o),
(320,710,cs),
(220,710,o),
(160,641,o),
(160,530,c),
(160,418,o),
(219,349,o),
(320,349,cs,{
name = hr00;
})
);
},
{
closed = 1;
nodes = (
(260,402,o),
(229,443,o),
(229,500,cs),
(229,559,ls),
(229,616,o),
(260,657,o),
(320,657,cs),
(380,657,o),
(411,616,o),
(411,559,cs),
(411,500,ls),
(411,443,o),
(380,402,o),
(320,402,cs)
);
}
);
width = 640;
},
{
layerId = master03;
shapes = (
{
closed = 1;
nodes = (
(433,332,o),
(501,404,o),
(501,521,cs),
(501,638,o),
(433,710,o),
(320,710,cs),
(207,710,o),
(139,638,o),
(139,521,cs),
(139,404,o),
(207,332,o),
(320,332,cs,{
name = hr00;
})
);
},
{
closed = 1;
nodes = (
(274,409,o),
(246,439,o),
(246,492,cs),
(246,550,ls),
(246,603,o),
(274,633,o),
(320,633,cs),
(366,633,o),
(394,603,o),
(394,550,cs),
(394,492,ls),
(394,439,o),
(366,409,o),
(320,409,cs)
);
}
);
width = 640;
}
);
unicode = 186;
},
{
glyphname = degree;
lastChange = "2021-02-28 18:55:49 +0000";
layers = (
{
layerId = master02;
shapes = (
{
closed = 1;
nodes = (
(416,368,o),
(491,442,o),
(491,539,cs),
(491,636,o),
(416,710,o),
(320,710,cs),
(224,710,o),
(149,636,o),
(149,539,cs),
(149,442,o),
(224,368,o),
(320,368,cs,{
name = hr00;
})
);
},
{
closed = 1;
nodes = (
(259,432,o),
(219,479,o),
(219,539,cs),
(219,599,o),
(259,646,o),
(320,646,cs),
(381,646,o),
(421,599,o),
(421,539,cs),
(421,479,o),
(381,432,o),
(320,432,cs)
);
}
);
width = 640;
},
{
layerId = master03;
shapes = (
{
closed = 1;
nodes = (
(426,334,o),
(508,415,o),
(508,522,cs),
(508,629,o),
(426,710,o),
(320,710,cs),
(214,710,o),
(132,629,o),
(132,522,cs),
(132,415,o),
(214,334,o),
(320,334,cs,{
name = hr00;
})
);
},
{
closed = 1;
nodes = (
(268,429,o),
(234,470,o),
(234,522,cs),
(234,574,o),
(268,615,o),
(320,615,cs),
(372,615,o),
(406,574,o),
(406,522,cs),
(406,470,o),
(372,429,o),
(320,429,cs)
);
}
);
width = 640;
}
);
unicode = 176;
},
{
glyphname = asterisk;
lastChange = "2021-02-28 18:55:49 +0000";
layers = (
{
layerId = master02;
shapes = (
{
closed = 1;
nodes = (
(445,52,l),
(502,94,l),
(378,264,l),
(577,330,l),
(556,396,l),
(357,332,l),
(357,548,l),
(283,548,l),
(283,332,l),
(84,396,l),
(63,330,l),
(262,264,l),
(138,94,l),
(195,52,l),
(320,224,l,{
name = hr00;
})
);
}
);
width = 640;
},
{
layerId = master03;
shapes = (
{
closed = 1;
nodes = (
(429,40,l),
(533,109,l),
(419,259,l),
(590,317,l),
(551,432,l),
(384,371,l),
(384,548,l),
(256,548,l),
(256,371,l),
(89,432,l),
(50,317,l),
(221,259,l),
(107,109,l),
(211,40,l),
(320,189,l,{
name = hr00;
})
);
}
);
width = 640;
}
);
unicode = 42;
},
{
glyphname = dagger;
lastChange = "2021-02-28 18:55:49 +0000";
layers = (
{
layerId = master02;
shapes = (
{
closed = 1;
nodes = (
(355,452,l),
(550,452,l),
(550,516,l),
(355,516,l),
(355,740,l),
(285,740,l),
(285,516,l),
(90,516,l),
(90,452,l),
(285,452,l),
(285,-200,l),
(355,-200,l,{
name = hr00;
})
);
}
);
width = 640;
},
{
layerId = master03;
shapes = (
{
closed = 1;
nodes = (
(383,408,l),
(559,408,l),
(559,516,l),
(383,516,l),
(383,740,l),
(257,740,l),
(257,516,l),
(81,516,l),
(81,408,l),
(257,408,l),
(257,-200,l),
(383,-200,l,{
name = hr00;
})
);
}
);
width = 640;
}
);
unicode = 8224;
},
{
glyphname = daggerdbl;
lastChange = "2021-02-28 18:55:49 +0000";
layers = (
{
layerId = master02;
shapes = (
{
closed = 1;
nodes = (
(355,24,l),
(550,24,l),
(550,88,l),
(355,88,l),
(355,452,l),
(550,452,l),
(550,516,l),
(355,516,l),
(355,740,l),
(285,740,l),
(285,516,l),
(90,516,l),
(90,452,l),
(285,452,l),
(285,88,l),
(90,88,l),
(90,24,l),
(285,24,l),
(285,-200,l),
(355,-200,l,{
name = hr00;
})
);
}
);
width = 640;
},
{
layerId = master03;
shapes = (
{
closed = 1;
nodes = (
(383,24,l),
(559,24,l),
(559,132,l),
(383,132,l),
(383,408,l),
(559,408,l),
(559,516,l),
(383,516,l),
(383,740,l),
(257,740,l),
(257,516,l),
(81,516,l),
(81,408,l),
(257,408,l),
(257,132,l),
(81,132,l),
(81,24,l),
(257,24,l),
(257,-200,l),
(383,-200,l,{
name = hr00;
})
);
}
);
width = 640;
}
);
unicode = 8225;
},
{
glyphname = numbersign;
lastChange = "2021-02-28 18:55:49 +0000";
layers = (
{
layerId = master02;
shapes = (
{
closed = 1;
nodes = (
(203,0,l),
(326,698,l),
(253,698,l),
(215,482,l),
(72,482,l),
(72,416,l),
(203,416,l),
(180,282,l),
(36,282,l),
(36,216,l),
(168,216,l),
(130,0,l,{
name = hr00;
})
);
},
{
closed = 1;
nodes = (
(387,0,l),
(425,216,l),
(568,216,l),
(568,282,l),
(437,282,l),
(460,416,l),
(604,416,l),
(604,482,l),
(472,482,l),
(510,698,l),
(437,698,l),
(314,0,l)
);
}
);
width = 640;
},
{
layerId = master03;
shapes = (
{
closed = 1;
nodes = (
(220,0,l),
(343,698,l),
(226,698,l),
(192,504,l),
(67,504,l),
(67,394,l),
(172,394,l),
(157,304,l),
(29,304,l),
(29,194,l),
(137,194,l),
(103,0,l,{
name = hr00;
})
);
},
{
closed = 1;
nodes = (
(414,0,l),
(448,194,l),
(573,194,l),
(573,304,l),
(468,304,l),
(483,394,l),
(611,394,l),
(611,504,l),
(503,504,l),
(537,698,l),
(420,698,l),
(297,0,l)
);
}
);
width = 640;
}
);
unicode = 35;
},
{
glyphname = asciicircum;
lastChange = "2021-02-28 18:55:49 +0000";
layers = (
{
layerId = master02;
shapes = (
{
closed = 1;
nodes = (
(365,698,l),
(275,698,l),
(65,318,l),
(127,287,l),
(316,629,l),
(320,629,l),
(509,287,l),
(575,318,l,{
name = hr00;
})
);
}
);
width = 640;
},
{
layerId = master03;
shapes = (
{
closed = 1;
nodes = (
(399,698,l),
(242,698,l),
(47,293,l),
(158,239,l),
(311,562,l),
(323,562,l),
(476,239,l),
(593,293,l,{
name = hr00;
})
);
}
);
width = 640;
}
);
unicode = 94;
},
{
glyphname = asciitilde;
lastChange = "2021-02-28 18:55:49 +0000";
layers = (
{
layerId = master02;
shapes = (
{
closed = 1;
nodes = (
(502,237,o),
(550,285,o),
(568,348,c),
(507,373,l),
(490,333,o),
(468,304,o),
(429,304,cs),
(396,304,o),
(360,324,o),
(325,341,cs),
(290,358,o),
(253,373,o),
(212,373,cs),
(138,373,o),
(90,325,o),
(72,262,c),
(133,237,l),
(150,277,o),
(172,306,o),
(211,306,cs),
(244,306,o),
(280,286,o),
(315,269,cs),
(350,252,o),
(387,237,o),
(428,237,cs,{
name = hr00;
})
);
}
);
width = 640;
},
{
layerId = master03;
shapes = (
{
closed = 1;
nodes = (
(508,210,o),
(563,272,o),
(584,362,c),
(478,400,l),
(462,355,o),
(445,333,o),
(413,333,cs),
(388,333,o),
(364,346,o),
(330,363,cs),
(290,383,o),
(253,400,o),
(211,400,cs,{
name = hr01;
}),
(132,400,o),
(77,338,o),
(56,248,c),
(162,210,l),
(178,255,o),
(195,277,o),
(227,277,cs),
(252,277,o),
(276,264,o),
(310,247,cs),
(350,227,o),
(387,210,o),
(429,210,cs)
);
}
);
width = 640;
}
);
unicode = 126;
},
{
glyphname = plus;
lastChange = "2021-02-28 18:55:49 +0000";
layers = (
{
layerId = master02;
shapes = (
{
closed = 1;
nodes = (
(358,271,l),
(558,271,l),
(558,339,l),
(358,339,l),
(358,548,l),
(282,548,l),
(282,339,l),
(82,339,l),
(82,271,l),
(282,271,l),
(282,62,l),
(358,62,l,{
name = hr00;
})
);
}
);
width = 640;
},
{
layerId = master03;
shapes = (
{
closed = 1;
nodes = (
(384,246,l),
(558,246,l),
(558,364,l),
(384,364,l),
(384,548,l),
(256,548,l),
(256,364,l),
(82,364,l),
(82,246,l),
(256,246,l),
(256,62,l),
(384,62,l,{
name = hr00;
})
);
}
);
width = 640;
}
);
unicode = 43;
},
{
glyphname = minus;
lastChange = "2021-02-28 18:55:49 +0000";
layers = (
{
layerId = master02;
shapes = (
{
closed = 1;
nodes = (
(558,339,l),
(82,339,l),
(82,271,l),
(558,271,l,{
name = hr00;
})
);
}
);
width = 640;
},
{
layerId = master03;
shapes = (
{
closed = 1;
nodes = (
(558,364,l),
(82,364,l),
(82,246,l),
(558,246,l,{
name = hr00;
})
);
}
);
width = 640;
}
);
unicode = 8722;
},
{
glyphname = plusminus;
lastChange = "2021-02-28 18:55:49 +0000";
layers = (
{
layerId = master02;
shapes = (
{
closed = 1;
nodes = (
(358,351,l),
(558,351,l),
(558,419,l),
(358,419,l),
(358,618,l),
(282,618,l),
(282,419,l),
(82,419,l),
(82,351,l),
(282,351,l),
(282,152,l),
(358,152,l,{
name = hr00;
})
);
},
{
closed = 1;
nodes = (
(558,68,l),
(82,68,l),
(82,0,l),
(558,0,l)
);
}
);
width = 640;
},
{
layerId = master03;
shapes = (
{
closed = 1;
nodes = (
(384,350,l),
(558,350,l),
(558,468,l),
(384,468,l),
(384,634,l),
(256,634,l),
(256,468,l),
(82,468,l),
(82,350,l),
(256,350,l),
(256,184,l),
(384,184,l,{
name = hr00;
})
);
},
{
closed = 1;
nodes = (
(558,119,l),
(82,119,l),
(82,0,l),
(558,0,l)
);
}
);
width = 640;
}
);
unicode = 177;
},
{
glyphname = multiply;
lastChange = "2021-02-28 18:55:49 +0000";
layers = (
{
layerId = master02;
shapes = (
{
closed = 1;
nodes = (
(532,142,l),
(369,305,l),
(532,468,l),
(483,517,l),
(320,354,l),
(157,517,l),
(108,468,l),
(271,305,l),
(108,142,l),
(157,93,l),
(320,256,l),
(483,93,l,{
name = hr00;
})
);
}
);
width = 640;
},
{
layerId = master03;
shapes = (
{
closed = 1;
nodes = (
(550,160,l),
(405,305,l),
(550,450,l),
(465,535,l),
(320,390,l),
(175,535,l),
(90,450,l),
(235,305,l),
(90,160,l),
(175,75,l),
(320,220,l),
(465,75,l,{
name = hr00;
})
);
}
);
width = 640;
}
);
unicode = 215;
},
{
glyphname = divide;
lastChange = "2021-02-28 18:55:49 +0000";
layers = (
{
layerId = master02;
shapes = (
{
closed = 1;
nodes = (
(558,339,l),
(82,339,l),
(82,271,l),
(558,271,l,{
name = hr00;
})
);
},
{
closed = 1;
nodes = (
(366,52,o),
(382,73,o),
(382,100,cs),
(382,122,ls),
(382,149,o),
(366,170,o),
(320,170,cs),
(274,170,o),
(258,149,o),
(258,122,cs),
(258,100,ls),
(258,73,o),
(274,52,o),
(320,52,cs)
);
},
{
closed = 1;
nodes = (
(366,440,o),
(382,461,o),
(382,488,cs),
(382,510,ls),
(382,537,o),
(366,558,o),
(320,558,cs),
(274,558,o),
(258,537,o),
(258,510,cs),
(258,488,ls),
(258,461,o),
(274,440,o),
(320,440,cs)
);
}
);
width = 640;
},
{
layerId = master03;
shapes = (
{
closed = 1;
nodes = (
(558,364,l),
(82,364,l),
(82,246,l),
(558,246,l,{
name = hr00;
})
);
},
{
closed = 1;
nodes = (
(383,29,o),
(408,59,o),
(408,98,cs),
(408,122,ls),
(408,160,o),
(383,191,o),
(320,191,cs),
(257,191,o),
(232,160,o),
(232,122,cs),
(232,98,ls),
(232,59,o),
(257,29,o),
(320,29,cs)
);
},
{
closed = 1;
nodes = (
(383,419,o),
(408,450,o),
(408,488,cs),
(408,512,ls),
(408,551,o),
(383,581,o),
(320,581,cs),
(257,581,o),
(232,551,o),
(232,512,cs),
(232,488,ls),
(232,450,o),
(257,419,o),
(320,419,cs)
);
}
);
width = 640;
}
);
unicode = 247;
},
{
glyphname = equal;
lastChange = "2021-02-28 18:55:49 +0000";
layers = (
{
layerId = master02;
shapes = (
{
closed = 1;
nodes = (
(558,440,l),
(82,440,l),
(82,372,l),
(558,372,l,{
name = hr00;
})
);
},
{
closed = 1;
nodes = (
(558,240,l),
(82,240,l),
(82,172,l),
(558,172,l)
);
}
);
width = 640;
},
{
layerId = master03;
shapes = (
{
closed = 1;
nodes = (
(558,479,l),
(82,479,l),
(82,361,l),
(558,361,l,{
name = hr00;
})
);
},
{
closed = 1;
nodes = (
(558,249,l),
(82,249,l),
(82,131,l),
(558,131,l)
);
}
);
width = 640;
}
);
unicode = 61;
},
{
glyphname = notequal;
lastChange = "2021-02-28 18:55:49 +0000";
layers = (
{
layerId = master02;
shapes = (
{
closed = 1;
nodes = (
(283,172,l),
(558,172,l),
(558,240,l),
(320,240,l),
(391,372,l),
(558,372,l),
(558,440,l),
(428,440,l),
(483,540,l),
(411,540,l),
(357,440,l),
(82,440,l),
(82,372,l),
(320,372,l),
(249,240,l),
(82,240,l),
(82,172,l),
(212,172,l),
(157,72,l),
(229,72,l,{
name = hr00;
})
);
}
);
width = 640;
},
{
layerId = master03;
shapes = (
{
closed = 1;
nodes = (
(289,131,l),
(558,131,l),
(558,249,l),
(347,249,l),
(410,361,l),
(558,361,l),
(558,479,l),
(477,479,l),
(529,574,l),
(403,574,l),
(351,479,l),
(82,479,l),
(82,361,l),
(293,361,l),
(230,249,l),
(82,249,l),
(82,131,l),
(163,131,l),
(111,36,l),
(237,36,l,{
name = hr00;
})
);
}
);
width = 640;
}
);
unicode = 8800;
},
{
glyphname = less;
lastChange = "2021-02-28 18:55:49 +0000";
layers = (
{
layerId = master02;
shapes = (
{
closed = 1;
nodes = (
(535,101,l),
(180,302,l),
(180,310,l),
(535,511,l),
(535,594,l),
(105,345,l),
(105,265,l),
(535,16,l,{
name = hr00;
})
);
}
);
width = 640;
},
{
layerId = master03;
shapes = (
{
closed = 1;
nodes = (
(535,144,l),
(238,301,l),
(238,309,l),
(535,466,l),
(535,604,l),
(105,374,l),
(105,236,l),
(535,6,l,{
name = hr00;
})
);
}
);
width = 640;
}
);
unicode = 60;
},
{
glyphname = greater;
lastChange = "2021-02-28 18:55:49 +0000";
layers = (
{
layerId = master02;
shapes = (
{
closed = 1;
nodes = (
(535,265,l),
(535,345,l),
(105,594,l),
(105,509,l),
(460,308,l),
(460,300,l),
(105,99,l),
(105,16,l,{
name = hr00;
})
);
}
);
width = 640;
},
{
layerId = master03;
shapes = (
{
closed = 1;
nodes = (
(535,236,l),
(535,374,l),
(105,604,l),
(105,466,l),
(402,309,l),
(402,301,l),
(105,144,l),
(105,6,l,{
name = hr00;
})
);
}
);
width = 640;
}
);
unicode = 62;
},
{
glyphname = lessequal;
lastChange = "2021-02-28 18:55:49 +0000";
layers = (
{
layerId = master02;
shapes = (
{
closed = 1;
nodes = (
(535,68,l),
(105,68,l),
(105,0,l),
(535,0,l,{
name = hr00;
})
);
},
{
closed = 1;
nodes = (
(105,401,l),
(105,312,l),
(535,121,l),
(535,203,l),
(180,354,l),
(180,361,l),
(535,513,l),
(535,593,l)
);
}
);
width = 640;
},
{
layerId = master03;
shapes = (
{
closed = 1;
nodes = (
(535,116,l),
(105,116,l),
(105,0,l),
(535,0,l,{
name = hr00;
})
);
},
{
closed = 1;
nodes = (
(105,438,l),
(105,301,l),
(535,144,l),
(535,270,l),
(246,366,l),
(246,373,l),
(535,471,l),
(535,595,l)
);
}
);
width = 640;
}
);
unicode = 8804;
},
{
glyphname = greaterequal;
lastChange = "2021-02-28 18:55:49 +0000";
layers = (
{
layerId = master02;
shapes = (
{
closed = 1;
nodes = (
(535,313,l),
(535,402,l),
(105,593,l),
(105,511,l),
(460,360,l),
(460,353,l),
(105,201,l),
(105,121,l,{
name = hr00;
})
);
},
{
closed = 1;
nodes = (
(535,0,l),
(535,68,l),
(105,68,l),
(105,0,l)
);
}
);
width = 640;
},
{
layerId = master03;
shapes = (
{
closed = 1;
nodes = (
(535,301,l),
(535,438,l),
(105,595,l),
(105,473,l),
(393,375,l),
(393,368,l),
(105,272,l),
(105,144,l,{
name = hr00;
})
);
},
{
closed = 1;
nodes = (
(535,0,l),
(535,116,l),
(105,116,l),
(105,0,l)
);
}
);
width = 640;
}
);
unicode = 8805;
},
{
glyphname = periodcentered;
lastChange = "2021-02-28 18:55:49 +0000";
layers = (
{
layerId = master02;
shapes = (
{
closed = 1;
nodes = (
(374,235,o),
(394,261,o),
(394,295,cs),
(394,313,ls),
(394,347,o),
(374,373,o),
(320,373,cs),
(266,373,o),
(246,347,o),
(246,313,cs),
(246,295,ls),
(246,261,o),
(266,235,o),
(320,235,cs,{
name = hr00;
})
);
}
);
width = 640;
},
{
layerId = master03;
shapes = (
{
closed = 1;
nodes = (
(395,204,o),
(425,242,o),
(425,287,cs),
(425,322,ls),
(425,367,o),
(395,405,o),
(320,405,cs),
(245,405,o),
(215,367,o),
(215,322,cs),
(215,287,ls),
(215,242,o),
(245,204,o),
(320,204,cs,{
name = hr00;
})
);
}
);
width = 640;
}
);
unicode = 183;
},
{
glyphname = bullet;
lastChange = "2021-02-28 18:55:49 +0000";
layers = (
{
layerId = master02;
shapes = (
{
closed = 1;
nodes = (
(409,186,o),
(442,231,o),
(442,290,cs),
(442,318,ls),
(442,377,o),
(409,422,o),
(320,422,cs),
(231,422,o),
(198,377,o),
(198,318,cs),
(198,290,ls),
(198,231,o),
(231,186,o),
(320,186,cs,{
name = hr00;
})
);
}
);
width = 640;
},
{
layerId = master03;
shapes = (
{
closed = 1;
nodes = (
(433,156,o),
(474,212,o),
(474,287,cs),
(474,321,ls),
(474,396,o),
(433,452,o),
(320,452,cs),
(207,452,o),
(166,396,o),
(166,321,cs),
(166,287,ls),
(166,212,o),
(207,156,o),
(320,156,cs,{
name = hr00;
})
);
}
);
width = 640;
}
);
unicode = 8226;
},
{
glyphname = lozenge;
lastChange = "2021-02-28 18:55:49 +0000";
layers = (
{
layerId = master02;
shapes = (
{
closed = 1;
nodes = (
(579,349,l),
(361,698,l),
(280,698,l),
(62,349,l),
(280,0,l),
(361,0,l,{
name = hr00;
})
);
},
{
closed = 1;
nodes = (
(146,349,l),
(317,623,l),
(324,623,l),
(495,349,l),
(324,75,l),
(317,75,l)
);
}
);
width = 640;
},
{
layerId = master03;
shapes = (
{
closed = 1;
nodes = (
(592,349,l),
(374,698,l),
(266,698,l),
(48,349,l),
(266,0,l),
(374,0,l,{
name = hr00;
})
);
},
{
closed = 1;
nodes = (
(179,349,l),
(317,575,l),
(323,575,l),
(461,349,l),
(323,123,l),
(317,123,l)
);
}
);
width = 640;
}
);
unicode = 9674;
},
{
glyphname = logicalnot;
lastChange = "2021-02-28 18:55:49 +0000";
layers = (
{
layerId = master02;
shapes = (
{
closed = 1;
nodes = (
(542,339,l),
(82,339,l),
(82,271,l),
(473,271,l),
(473,78,l),
(542,78,l,{
name = hr00;
})
);
}
);
width = 640;
},
{
layerId = master03;
shapes = (
{
closed = 1;
nodes = (
(542,364,l),
(82,364,l),
(82,246,l),
(421,246,l),
(421,54,l),
(542,54,l,{
name = hr00;
})
);
}
);
width = 640;
}
);
unicode = 172;
},
{
glyphname = radical;
lastChange = "2021-02-28 18:55:49 +0000";
layers = (
{
layerId = master02;
shapes = (
{
closed = 1;
nodes = (
(592,698,l),
(514,698,l),
(415,351,l),
(334,67,l),
(329,67,l),
(252,351,l),
(207,516,l),
(44,516,l),
(44,452,l),
(146,452,l),
(273,0,l),
(387,0,l,{
name = hr00;
})
);
}
);
width = 640;
},
{
layerId = master03;
shapes = (
{
closed = 1;
nodes = (
(616,698,l),
(492,698,l),
(383,320,l),
(327,105,l),
(319,105,l),
(267,320,l),
(210,516,l),
(35,516,l),
(35,392,l),
(115,392,l),
(233,0,l),
(410,0,l,{
name = hr00;
})
);
}
);
width = 640;
}
);
unicode = 8730;
},
{
glyphname = integral;
lastChange = "2021-02-28 18:55:49 +0000";
layers = (
{
layerId = master02;
shapes = (
{
closed = 1;
nodes = (
(233,-200,ls),
(311,-200,o),
(347,-151,o),
(347,-82,cs),
(347,671,l),
(559,671,l),
(559,740,l),
(381,740,ls),
(303,740,o),
(267,691,o),
(267,622,c),
(267,-132,l),
(55,-132,l),
(55,-200,l,{
name = hr00;
})
);
}
);
width = 640;
},
{
layerId = master03;
shapes = (
{
closed = 1;
nodes = (
(223,-200,ls),
(330,-200,o),
(381,-138,o),
(381,-51,cs),
(381,625,l),
(566,625,l),
(566,740,l),
(391,740,ls),
(283,740,o),
(233,678,o),
(233,591,cs),
(233,-85,l),
(48,-85,l),
(48,-200,l,{
name = hr00;
})
);
}
);
width = 640;
}
);
unicode = 8747;
},
{
glyphname = infinity;
lastChange = "2021-02-28 18:55:49 +0000";
layers = (
{
layerId = master02;
shapes = (
{
closed = 1;
nodes = (
(234,126,o),
(283,171,o),
(300,259,c),
(304,259,l),
(333,166,o),
(384,126,o),
(455,126,cs),
(551,126,o),
(609,192,o),
(609,305,cs),
(609,418,o),
(555,484,o),
(462,484,cs),
(405,484,o),
(357,439,o),
(340,351,c),
(336,351,l),
(307,444,o),
(256,484,o),
(185,484,cs),
(89,484,o),
(31,418,o),
(31,305,cs),
(31,192,o),
(84,126,o),
(177,126,cs,{
name = hr00;
})
);
},
{
closed = 1;
nodes = (
(138,188,o),
(107,220,o),
(107,278,cs),
(107,332,ls),
(107,390,o),
(138,422,o),
(186,422,cs),
(231,422,o),
(268,378,o),
(289,307,c),
(268,234,o),
(231,188,o),
(186,188,cs)
);
},
{
closed = 1;
nodes = (
(409,188,o),
(372,232,o),
(351,303,c),
(372,376,o),
(409,422,o),
(454,422,cs),
(502,422,o),
(533,390,o),
(533,332,cs),
(533,278,ls),
(533,220,o),
(502,188,o),
(454,188,cs)
);
}
);
width = 640;
},
{
layerId = master03;
shapes = (
{
closed = 1;
nodes = (
(237,126,o),
(289,165,o),
(300,255,c),
(304,255,l),
(334,163,o),
(383,126,o),
(451,126,cs),
(551,126,o),
(609,192,o),
(609,305,cs),
(609,418,o),
(554,484,o),
(459,484,cs),
(403,484,o),
(351,445,o),
(340,355,c),
(336,355,l),
(306,447,o),
(257,484,o),
(189,484,cs),
(89,484,o),
(31,418,o),
(31,305,cs),
(31,192,o),
(86,126,o),
(181,126,cs,{
name = hr00;
})
);
},
{
closed = 1;
nodes = (
(167,228,o),
(147,253,o),
(147,298,cs),
(147,312,ls),
(147,357,o),
(167,382,o),
(194,382,cs),
(237,382,o),
(259,339,o),
(276,293,c),
(263,259,o),
(237,228,o),
(194,228,cs)
);
},
{
closed = 1;
nodes = (
(403,228,o),
(381,271,o),
(364,317,c),
(377,351,o),
(403,382,o),
(446,382,cs),
(473,382,o),
(493,357,o),
(493,312,cs),
(493,298,ls),
(493,253,o),
(473,228,o),
(446,228,cs)
);
}
);
width = 640;
}
);
unicode = 8734;
},
{
glyphname = estimated;
lastChange = "2021-02-28 18:55:49 +0000";
layers = (
{
layerId = master02;
shapes = (
{
closed = 1;
nodes = (
(594,349,l),
(594,556,o),
(486,710,o),
(320,710,cs),
(154,710,o),
(46,556,o),
(46,349,cs),
(46,142,o),
(154,-12,o),
(320,-12,cs),
(444,-12,o),
(519,60,o),
(566,147,c),
(525,170,l),
(482,91,o),
(422,34,o),
(320,34,cs),
(251,34,o),
(197,69,o),
(165,109,c),
(165,349,l,{
name = hr00;
})
);
},
{
closed = 1;
nodes = (
(165,594,l),
(199,635,o),
(252,666,o),
(320,666,cs),
(388,666,o),
(441,635,o),
(475,594,c),
(475,389,l),
(165,389,l)
);
}
);
width = 640;
},
{
layerId = master03;
shapes = (
{
closed = 1;
nodes = (
(594,349,l),
(594,556,o),
(486,710,o),
(320,710,cs),
(154,710,o),
(46,556,o),
(46,349,cs),
(46,142,o),
(154,-12,o),
(320,-12,cs),
(446,-12,o),
(521,62,o),
(569,151,c),
(517,180,l),
(476,101,o),
(418,44,o),
(320,44,cs),
(274,44,o),
(229,62,o),
(205,85,c),
(205,349,l,{
name = hr00;
})
);
},
{
closed = 1;
nodes = (
(205,618,l),
(230,641,o),
(274,656,o),
(320,656,cs),
(366,656,o),
(410,641,o),
(435,618,c),
(435,401,l),
(205,401,l)
);
}
);
width = 640;
}
);
unicode = 8494;
},
{
glyphname = litre;
lastChange = "2021-02-28 18:55:49 +0000";
layers = (
{
layerId = master02;
shapes = (
{
closed = 1;
nodes = (
(441,-12,o),
(499,50,o),
(530,127,c),
(472,162,l),
(435,94,o),
(404,55,o),
(345,55,cs),
(290,55,o),
(258,88,o),
(258,178,cs),
(258,223,l),
(394,343,o),
(468,452,o),
(468,585,cs),
(468,693,o),
(418,752,o),
(327,752,cs),
(239,752,o),
(179,698,o),
(179,555,cs),
(179,259,l),
(151,237,o),
(119,218,o),
(90,200,c),
(123,146,l),
(143,158,o),
(160,169,o),
(179,183,c),
(179,159,ls),
(179,58,o),
(235,-12,o),
(341,-12,cs,{
name = hr00;
})
);
},
{
closed = 1;
nodes = (
(366,685,o),
(393,660,o),
(393,592,cs),
(393,575,ls),
(393,485,o),
(345,398,o),
(258,309,c),
(258,562,ls),
(258,655,o),
(287,685,o),
(328,685,cs)
);
}
);
width = 640;
},
{
layerId = master03;
shapes = (
{
closed = 1;
nodes = (
(466,-12,o),
(536,57,o),
(575,158,c),
(455,219,l),
(416,140,o),
(392,116,o),
(352,116,cs),
(315,116,o),
(292,137,o),
(292,187,cs),
(292,228,l),
(444,345,o),
(518,437,o),
(518,562,cs),
(518,680,o),
(453,752,o),
(336,752,cs),
(232,752,o),
(152,695,o),
(152,546,cs),
(152,302,l),
(130,287,o),
(89,258,o),
(52,238,c),
(116,135,l),
(125,140,o),
(151,157,o),
(159,162,c),
(159,159,ls),
(159,53,o),
(245,-12,o),
(354,-12,cs,{
name = hr00;
})
);
},
{
closed = 1;
nodes = (
(364,621,o),
(382,603,o),
(382,560,cs),
(382,550,ls),
(382,478,o),
(344,425,o),
(292,378,c),
(292,551,ls),
(292,603,o),
(316,621,o),
(340,621,cs)
);
}
);
width = 640;
}
);
unicode = 8467;
},
{
glyphname = numerosign;
lastChange = "2021-02-28 18:55:49 +0000";
layers = (
{
layerId = master02;
shapes = (
{
closed = 1;
nodes = (
(572,345,o),
(609,404,o),
(609,526,cs),
(609,647,o),
(572,706,o),
(501,706,cs),
(430,706,o),
(393,647,o),
(393,526,cs),
(393,404,o),
(429,345,o),
(501,345,cs,{
name = hr00;
})
);
},
{
closed = 1;
nodes = (
(131,608,l),
(137,608,l),
(175,349,l),
(226,0,l),
(353,0,l),
(353,698,l),
(285,698,l),
(285,90,l),
(279,90,l),
(241,349,l),
(190,698,l),
(63,698,l),
(63,0,l),
(131,0,l)
);
},
{
closed = 1;
nodes = (
(463,399,o),
(455,431,o),
(455,488,cs),
(455,563,ls),
(455,620,o),
(463,652,o),
(501,652,cs),
(538,652,o),
(547,620,o),
(547,563,cs),
(547,488,ls),
(547,431,o),
(538,399,o),
(501,399,cs)
);
},
{
closed = 1;
nodes = (
(605,313,l),
(397,313,l),
(397,256,l),
(605,256,l)
);
}
);
width = 640;
},
{
layerId = master03;
shapes = (
{
closed = 1;
nodes = (
(578,325,o),
(617,387,o),
(617,516,cs),
(617,644,o),
(578,706,o),
(501,706,cs),
(421,706,o),
(381,644,o),
(381,516,cs),
(381,387,o),
(420,325,o),
(501,325,cs)
);
},
{
closed = 1;
nodes = (
(125,598,l),
(137,598,l),
(154,335,l),
(180,0,l),
(355,0,l),
(355,698,l,{
name = hr01;
}),
(267,698,l),
(267,100,l),
(255,100,l),
(238,363,l),
(212,698,l),
(37,698,l),
(37,0,l),
(125,0,l)
);
},
{
closed = 1;
nodes = (
(469,403,o),
(465,430,o),
(465,478,cs),
(465,553,ls),
(465,601,o),
(469,628,o),
(501,628,cs,{
name = hr02;
}),
(532,628,o),
(537,601,o),
(537,553,cs),
(537,478,ls),
(537,429,o),
(532,403,o),
(501,403,cs)
);
},
{
closed = 1;
nodes = (
(609,303,l),
(389,303,l),
(389,226,l),
(609,226,l)
);
}
);
width = 640;
}
);
unicode = 8470;
},
{
glyphname = partialdiff;
lastChange = "2021-02-28 18:55:49 +0000";
layers = (
{
layerId = master02;
shapes = (
{
closed = 1;
nodes = (
(554,530,o),
(396,636,o),
(293,698,c),
(162,698,l),
(301,632,o),
(424,538,o),
(469,410,c),
(465,408,l),
(432,460,o),
(381,504,o),
(299,504,cs),
(176,504,o),
(86,404,o),
(86,246,cs),
(86,89,o),
(174,-12,o),
(324,-12,cs),
(465,-12,o),
(554,78,o),
(554,272,cs,{
name = hr00;
})
);
},
{
closed = 1;
nodes = (
(231,57,o),
(171,107,o),
(171,211,cs),
(171,281,ls),
(171,385,o),
(231,435,o),
(320,435,cs),
(409,435,o),
(469,385,o),
(469,281,cs),
(469,211,ls),
(469,107,o),
(409,57,o),
(320,57,cs)
);
}
);
width = 640;
},
{
layerId = master03;
shapes = (
{
closed = 1;
nodes = (
(579,489,o),
(456,623,o),
(332,698,c),
(114,698,l),
(280,608,o),
(388,518,o),
(426,412,c),
(417,408,l),
(385,467,o),
(335,504,o),
(261,504,cs),
(139,504,o),
(61,404,o),
(61,255,cs),
(61,89,o),
(159,-12,o),
(322,-12,cs),
(475,-12,o),
(579,77,o),
(579,274,cs,{
name = hr00;
})
);
},
{
closed = 1;
nodes = (
(254,98,o),
(214,141,o),
(214,217,cs),
(214,273,ls),
(214,349,o),
(254,392,o),
(320,392,cs),
(386,392,o),
(426,349,o),
(426,273,cs),
(426,217,ls),
(426,141,o),
(386,98,o),
(320,98,cs)
);
}
);
width = 640;
}
);
unicode = 8706;
},
{
glyphname = cent;
lastChange = "2021-02-28 18:55:49 +0000";
layers = (
{
layerId = master02;
shapes = (
{
closed = 1;
nodes = (
(361,-11,l),
(451,-4,o),
(508,44,o),
(536,108,c),
(479,147,l),
(456,97,o),
(417,64,o),
(360,58,c),
(360,458,l),
(412,451,o),
(447,421,o),
(464,375,c),
(528,409,l),
(501,473,o),
(447,520,o),
(361,527,c),
(361,630,l),
(299,630,l),
(299,525,l),
(176,508,o),
(104,407,o),
(104,258,cs),
(104,110,o),
(175,8,o),
(299,-9,c),
(299,-114,l),
(361,-114,l,{
name = hr00;
})
);
},
{
closed = 1;
nodes = (
(190,302,ls),
(190,380,o),
(229,440,o),
(300,455,c),
(300,61,l),
(228,76,o),
(190,136,o),
(190,214,cs)
);
}
);
width = 640;
},
{
layerId = master03;
shapes = (
{
closed = 1;
nodes = (
(392,-8,l),
(477,5,o),
(532,51,o),
(563,114,c),
(458,173,l),
(442,143,o),
(417,116,o),
(383,104,c),
(383,411,l),
(414,398,o),
(435,372,o),
(448,344,c),
(555,402,l),
(525,465,o),
(474,511,o),
(392,524,c),
(392,630,l),
(278,630,l),
(278,522,l),
(154,499,o),
(80,402,o),
(80,258,cs),
(80,114,o),
(153,17,o),
(278,-6,c),
(278,-114,l),
(392,-114,l,{
name = hr00;
})
);
},
{
closed = 1;
nodes = (
(222,300,ls),
(222,353,o),
(245,393,o),
(288,410,c),
(288,106,l),
(244,124,o),
(222,164,o),
(222,216,cs)
);
}
);
width = 640;
}
);
unicode = 162;
},
{
glyphname = Euro;
lastChange = "2021-02-28 18:55:49 +0000";
layers = (
{
layerId = master02;
shapes = (
{
closed = 1;
nodes = (
(471,-12,o),
(524,65,o),
(558,141,c),
(488,173,l),
(463,110,o),
(429,59,o),
(343,59,cs),
(247,59,o),
(194,126,o),
(180,234,c),
(408,234,l),
(408,303,l),
(177,303,l),
(177,395,l),
(408,395,l),
(408,464,l),
(180,464,l),
(194,572,o),
(247,639,o),
(343,639,cs),
(429,639,o),
(463,588,o),
(488,525,c),
(558,557,l),
(524,633,o),
(471,710,o),
(343,710,cs),
(173,710,o),
(90,581,o),
(90,349,cs),
(90,117,o),
(173,-12,o),
(343,-12,cs,{
name = hr00;
})
);
}
);
width = 640;
},
{
layerId = master03;
shapes = (
{
closed = 1;
nodes = (
(492,-12,o),
(549,48,o),
(593,109,c),
(484,185,l),
(455,133,o),
(417,107,o),
(362,107,cs),
(288,107,o),
(243,150,o),
(227,223,c),
(449,223,l),
(449,313,l),
(221,313,l),
(221,385,l),
(449,385,l),
(449,475,l),
(227,475,l),
(243,548,o),
(288,591,o),
(362,591,cs),
(417,591,o),
(455,565,o),
(484,513,c),
(593,589,l),
(549,650,o),
(492,710,o),
(356,710,cs),
(173,710,o),
(65,577,o),
(65,349,cs),
(65,121,o),
(173,-12,o),
(356,-12,cs,{
name = hr00;
})
);
}
);
width = 640;
}
);
unicode = 8364;
},
{
glyphname = florin;
lastChange = "2021-02-28 18:55:49 +0000";
layers = (
{
layerId = master02;
shapes = (
{
closed = 1;
nodes = (
(159,-200,ls),
(237,-200,o),
(275,-156,o),
(287,-87,cs),
(363,370,l),
(548,370,l),
(559,438,l),
(374,438,l),
(406,629,l),
(618,629,l),
(630,698,l),
(447,698,ls),
(369,698,o),
(331,654,o),
(319,585,cs),
(295,438,l),
(109,438,l),
(98,370,l),
(283,370,l),
(200,-132,l),
(-11,-132,l),
(-23,-200,l,{
name = hr00;
})
);
}
);
width = 640;
},
{
layerId = master03;
shapes = (
{
closed = 1;
nodes = (
(154,-200,ls),
(261,-200,o),
(311,-148,o),
(325,-61,cs),
(389,323,l),
(563,323,l),
(581,438,l),
(409,438,l),
(433,583,l),
(618,583,l),
(637,698,l),
(452,698,ls),
(344,698,o),
(295,646,o),
(281,559,cs),
(261,438,l),
(97,438,l),
(78,323,l),
(241,323,l),
(173,-85,l),
(-11,-85,l),
(-30,-200,l,{
name = hr00;
})
);
}
);
width = 640;
}
);
unicode = 402;
},
{
glyphname = sterling;
lastChange = "2021-02-28 18:55:49 +0000";
layers = (
{
layerId = master02;
shapes = (
{
closed = 1;
nodes = (
(558,80,l),
(174,80,l),
(174,85,l),
(212,110,o),
(256,165,o),
(256,247,cs),
(256,261,o),
(255,273,o),
(253,286,c),
(435,286,l),
(435,355,l),
(234,355,l),
(220,397,o),
(204,440,o),
(204,494,cs,{
name = hr01;
}),
(204,596,o),
(260,637,o),
(347,637,cs),
(423,637,o),
(470,605,o),
(507,551,c),
(570,596,l),
(526,664,o),
(458,710,o),
(352,710,cs),
(207,710,o),
(118,623,o),
(118,499,cs),
(118,444,o),
(135,400,o),
(150,355,c),
(72,355,l),
(72,286,l),
(169,286,l),
(172,270,o),
(174,254,o),
(174,237,cs,{
name = hr02;
}),
(174,175,o),
(151,128,o),
(95,105,c),
(95,0,l),
(558,0,l)
);
}
);
width = 640;
},
{
layerId = master03;
shapes = (
{
closed = 1;
nodes = (
(573,128,l),
(244,128,l),
(244,137,l),
(280,156,o),
(322,194,o),
(322,262,cs),
(322,264,o),
(322,267,o),
(322,269,c),
(462,269,l),
(462,379,l),
(287,379,l),
(273,411,o),
(259,443,o),
(259,480,cs,{
name = hr01;
}),
(259,544,o),
(298,581,o),
(360,581,cs),
(415,581,o),
(449,552,o),
(480,512,c),
(579,605,l),
(528,672,o),
(456,710,o),
(355,710,cs),
(206,710,o),
(106,627,o),
(106,504,cs),
(106,456,o),
(121,416,o),
(137,379,c),
(66,379,l),
(66,269,l),
(173,269,l),
(174,265,o),
(174,261,o),
(174,257,cs,{
name = hr02;
}),
(174,201,o),
(142,159,o),
(89,136,c),
(89,0,l),
(573,0,l)
);
}
);
width = 640;
}
);
unicode = 163;
},
{
glyphname = dollar;
lastChange = "2021-02-28 18:55:49 +0000";
layers = (
{
layerId = master02;
shapes = (
{
closed = 1;
nodes = (
(361,-113,l),
(361,-11,l),
(496,0,o),
(572,75,o),
(572,191,cs),
(572,285,o),
(527,363,o),
(390,386,cs),
(360,391,l),
(360,636,l),
(426,629,o),
(470,599,o),
(506,551,c),
(569,596,l),
(519,664,o),
(453,702,o),
(361,709,c),
(361,811,l),
(299,811,l),
(299,709,l),
(173,700,o),
(95,632,o),
(95,520,cs),
(95,429,o),
(139,349,o),
(277,326,cs),
(300,322,l),
(300,61,l),
(230,68,o),
(179,101,o),
(131,161,c),
(70,111,l),
(118,44,o),
(188,-4,o),
(299,-11,c),
(299,-113,l,{
name = hr00;
})
);
},
{
closed = 1;
nodes = (
(176,589,o),
(221,629,o),
(300,637,c),
(300,401,l),
(211,419,o),
(176,455,o),
(176,520,cs)
);
},
{
closed = 1;
nodes = (
(491,117,o),
(444,71,o),
(360,62,c),
(360,312,l),
(453,296,o),
(491,261,o),
(491,190,cs)
);
}
);
width = 640;
},
{
layerId = master03;
shapes = (
{
closed = 1;
nodes = (
(387,-113,l),
(387,-5,l),
(516,18,o),
(588,102,o),
(588,212,cs),
(588,313,o),
(527,385,o),
(400,409,cs),
(377,413,l),
(377,580,l),
(419,571,o),
(455,551,o),
(483,520,c),
(569,616,l),
(529,662,o),
(470,696,o),
(387,707,c),
(387,811,l),
(273,811,l),
(273,706,l),
(144,689,o),
(72,614,o),
(72,502,cs),
(72,400,o),
(132,324,o),
(260,301,cs),
(283,297,l),
(283,113,l),
(229,121,o),
(179,146,o),
(137,191,c),
(50,96,l),
(97,37,o),
(174,-2,o),
(273,-10,c),
(273,-113,l,{
name = hr00;
})
);
},
{
closed = 1;
nodes = (
(213,549,o),
(234,575,o),
(283,583,c),
(283,432,l),
(234,445,o),
(213,465,o),
(213,507,cs)
);
},
{
closed = 1;
nodes = (
(448,156,o),
(425,125,o),
(377,114,c),
(377,279,l),
(426,267,o),
(448,247,o),
(448,202,cs)
);
}
);
width = 640;
}
);
unicode = 36;
},
{
glyphname = yen;
lastChange = "2021-02-28 18:55:49 +0000";
layers = (
{
layerId = master02;
shapes = (
{
closed = 1;
nodes = (
(545,0,l),
(545,69,l),
(360,69,l),
(360,255,l),
(545,255,l),
(545,324,l),
(404,324,l),
(598,698,l),
(507,698,l),
(323,324,l),
(319,324,l),
(135,698,l),
(42,698,l),
(236,324,l),
(95,324,l),
(95,255,l),
(280,255,l),
(280,69,l),
(95,69,l),
(95,0,l,{
name = hr00;
})
);
}
);
width = 640;
},
{
layerId = master03;
shapes = (
{
closed = 1;
nodes = (
(564,0,l),
(564,113,l),
(391,113,l),
(391,221,l),
(564,221,l),
(564,334,l),
(461,334,l),
(620,698,l),
(469,698,l),
(327,334,l),
(317,334,l),
(176,698,l),
(20,698,l),
(180,334,l),
(76,334,l),
(76,221,l),
(249,221,l),
(249,113,l),
(76,113,l),
(76,0,l,{
name = hr00;
})
);
}
);
width = 640;
}
);
unicode = 165;
},
{
glyphname = baht;
lastChange = "2021-02-28 18:55:49 +0000";
layers = (
{
layerId = master02;
shapes = (
{
closed = 1;
nodes = (
(370,0,ls),
(478,0,o),
(558,88,o),
(558,201,cs),
(558,294,o),
(503,339,o),
(433,361,c),
(433,364,l),
(498,385,o),
(546,429,o),
(546,518,cs,{
name = hr01;
}),
(546,627,o),
(473,698,o),
(354,698,c),
(346,698,l),
(346,811,l),
(284,811,l),
(284,698,l),
(108,698,l),
(108,0,l),
(284,0,l),
(284,-113,l),
(346,-113,l),
(346,0,l)
);
},
{
closed = 1;
nodes = (
(190,627,l),
(285,627,l),
(285,394,l),
(190,394,l)
);
},
{
closed = 1;
nodes = (
(421,627,o),
(462,594,o),
(462,530,cs),
(462,489,ls),
(462,425,o),
(421,394,o),
(345,394,c),
(345,627,l)
);
},
{
closed = 1;
nodes = (
(190,327,l),
(285,327,l),
(285,71,l),
(190,71,l)
);
},
{
closed = 1;
nodes = (
(428,327,o),
(473,291,o),
(473,221,cs,{
name = hr02;
}),
(473,177,ls),
(473,106,o),
(428,71,o),
(345,71,c),
(345,327,l)
);
}
);
width = 640;
},
{
layerId = master03;
shapes = (
{
closed = 1;
nodes = (
(379,0,l),
(510,0,o),
(588,75,o),
(588,192,cs),
(588,285,o),
(538,339,o),
(453,359,c),
(453,365,l),
(528,386,o),
(568,434,o),
(568,512,cs,{
name = hr01;
}),
(568,616,o),
(501,696,o),
(380,697,c),
(378,697,l),
(378,811,l),
(264,811,l),
(264,698,l),
(84,698,l),
(84,0,l),
(264,0,l),
(264,-113,l),
(378,-113,l),
(378,0,l)
);
},
{
closed = 1;
nodes = (
(218,594,l),
(274,594,l),
(274,401,l),
(218,401,l)
);
},
{
closed = 1;
nodes = (
(405,581,o),
(424,558,o),
(424,514,cs),
(424,481,ls),
(424,437,o),
(405,414,o),
(368,405,c),
(368,590,l)
);
},
{
closed = 1;
nodes = (
(218,302,l),
(274,302,l),
(274,104,l),
(218,104,l)
);
},
{
closed = 1;
nodes = (
(418,296,o),
(444,275,o),
(444,221,cs,{
name = hr02;
}),
(444,185,ls),
(444,131,o),
(418,110,o),
(368,105,c),
(368,301,l)
);
}
);
width = 640;
}
);
unicode = 3647;
},
{
glyphname = coloncurrency;
lastChange = "2021-02-28 18:55:49 +0000";
layers = (
{
layerId = master02;
shapes = (
{
closed = 1;
nodes = (
(367,-113,l),
(378,-10,l),
(481,3,o),
(527,72,o),
(558,141,c),
(490,172,l),
(469,120,o),
(442,75,o),
(383,61,c),
(441,606,l),
(463,586,o),
(478,558,o),
(490,527,c),
(558,557,l),
(536,607,o),
(505,657,o),
(451,686,c),
(464,811,l),
(402,811,l),
(391,706,l),
(377,709,o),
(360,710,o),
(333,710,c),
(344,811,l),
(282,811,l),
(270,701,l),
(149,668,o),
(90,545,o),
(90,349,cs),
(90,196,o),
(126,88,o),
(200,32,c),
(185,-113,l),
(247,-113,l),
(259,1,l),
(276,-5,o),
(295,-9,o),
(316,-11,c),
(305,-113,l,{
name = hr00;
})
);
},
{
closed = 1;
nodes = (
(339,642,o),
(368,640,o),
(386,636,c),
(325,58,l),
(302,60,o),
(282,66,o),
(265,76,c),
(324,640,l)
);
},
{
closed = 1;
nodes = (
(173,406,ls),
(173,511,o),
(203,588,o),
(264,622,c),
(212,126,l),
(186,167,o),
(173,223,o),
(173,292,c)
);
}
);
width = 640;
},
{
layerId = master03;
shapes = (
{
closed = 1;
nodes = (
(402,-113,l),
(409,-5,l),
(491,13,o),
(553,62,o),
(589,152,c),
(476,206,l),
(462,167,o),
(443,140,o),
(417,123,c),
(447,548,l),
(458,533,o),
(468,514,o),
(476,492,c),
(589,546,l),
(560,617,o),
(515,663,o),
(457,688,c),
(466,811,l),
(395,811,l),
(388,706,l),
(372,709,o),
(355,710,o),
(338,710,c),
(345,811,l),
(274,811,l),
(267,703,l),
(127,673,o),
(61,548,o),
(61,349,cs),
(61,175,o),
(112,57,o),
(219,10,c),
(210,-113,l),
(281,-113,l),
(288,-9,l),
(303,-11,o),
(319,-12,o),
(338,-12,c),
(331,-113,l,{
name = hr00;
})
);
},
{
closed = 1;
nodes = (
(345,598,o),
(363,597,o),
(381,592,c),
(347,100,l),
(319,100,o),
(306,102,o),
(295,104,c),
(329,598,l)
);
},
{
closed = 1;
nodes = (
(203,410,ls),
(203,486,o),
(218,546,o),
(259,577,c),
(230,154,l),
(210,187,o),
(203,234,o),
(203,288,c)
);
}
);
width = 640;
}
);
unicode = 8353;
},
{
glyphname = lira;
lastChange = "2021-02-28 18:55:49 +0000";
layers = (
{
layerId = master02;
shapes = (
{
closed = 1;
nodes = (
(174,80,l),
(174,85,l),
(206,106,o),
(242,148,o),
(253,209,c),
(435,209,l),
(435,274,l),
(254,274,l),
(251,303,o),
(242,329,o),
(233,356,c),
(435,356,l),
(435,421,l),
(213,421,l),
(208,444,o),
(204,467,o),
(204,494,cs,{
name = hr01;
}),
(204,596,o),
(260,637,o),
(347,637,cs),
(423,637,o),
(470,605,o),
(507,551,c),
(570,596,l),
(526,664,o),
(458,710,o),
(352,710,cs),
(207,710,o),
(118,623,o),
(118,499,cs),
(118,471,o),
(123,445,o),
(129,421,c),
(72,421,l),
(72,356,l),
(150,356,l),
(159,330,o),
(167,303,o),
(171,274,c,{
name = hr02;
}),
(72,274,l),
(72,209,l),
(172,209,l),
(166,161,o),
(142,124,o),
(95,105,c),
(95,0,l),
(558,0,l),
(558,80,l)
);
}
);
width = 640;
},
{
layerId = master03;
shapes = (
{
closed = 1;
nodes = (
(244,128,l),
(244,137,l),
(267,149,o),
(293,169,o),
(308,200,c),
(444,200,l),
(444,289,l),
(320,289,l),
(316,313,o),
(307,336,o),
(298,357,c),
(444,357,l),
(444,446,l),
(263,446,l),
(260,457,o),
(259,468,o),
(259,480,cs,{
name = hr01;
}),
(259,544,o),
(298,581,o),
(360,581,cs),
(415,581,o),
(449,552,o),
(480,512,c),
(579,605,l),
(528,672,o),
(456,710,o),
(355,710,cs),
(206,710,o),
(106,627,o),
(106,504,cs),
(106,483,o),
(109,464,o),
(113,446,c),
(69,446,l),
(69,357,l),
(147,357,l),
(157,334,o),
(166,312,o),
(171,289,c,{
name = hr02;
}),
(69,289,l),
(69,200,l),
(161,200,l),
(147,172,o),
(122,150,o),
(89,136,c),
(89,0,l),
(573,0,l),
(573,128,l)
);
}
);
width = 640;
}
);
unicode = 8356;
},
{
glyphname = naira;
lastChange = "2021-02-28 18:55:49 +0000";
layers = (
{
layerId = master02;
shapes = (
{
closed = 1;
nodes = (
(593,389,l),
(593,454,l),
(528,454,l),
(528,698,l),
(458,698,l),
(458,450,l),
(322,450,l),
(237,698,l),
(112,698,l),
(112,454,l),
(47,454,l),
(47,389,l),
(112,389,l),
(112,309,l),
(47,309,l),
(47,244,l),
(112,244,l),
(112,0,l),
(182,0,l),
(182,248,l),
(318,248,l),
(403,0,l),
(528,0,l),
(528,244,l),
(593,244,l),
(593,309,l),
(528,309,l),
(528,389,l,{
name = hr00;
})
);
},
{
closed = 1;
nodes = (
(182,622,l),
(189,622,l),
(298,304,l),
(182,304,l)
);
},
{
closed = 1;
nodes = (
(458,394,l),
(458,76,l),
(451,76,l),
(342,394,l)
);
}
);
width = 640;
},
{
layerId = master03;
shapes = (
{
closed = 1;
nodes = (
(597,373,l),
(597,467,l),
(552,467,l),
(552,698,l),
(442,698,l),
(442,460,l),
(342,460,l),
(276,698,l),
(88,698,l),
(88,467,l),
(43,467,l),
(43,373,l),
(88,373,l),
(88,325,l),
(43,325,l),
(43,231,l),
(88,231,l),
(88,0,l),
(198,0,l),
(198,238,l),
(298,238,l),
(364,0,l),
(552,0,l),
(552,231,l),
(597,231,l),
(597,325,l),
(552,325,l),
(552,373,l,{
name = hr00;
})
);
},
{
closed = 1;
nodes = (
(198,564,l),
(208,564,l),
(276,318,l),
(198,318,l)
);
},
{
closed = 1;
nodes = (
(442,380,l),
(442,134,l),
(432,134,l),
(364,380,l)
);
}
);
width = 640;
}
);
unicode = 8358;
},
{
glyphname = rupee;
lastChange = "2021-02-28 18:55:49 +0000";
layers = (
{
layerId = master02;
shapes = (
{
closed = 1;
nodes = (
(149,322,l),
(193,322,l),
(286,93,ls),
(318,15,o),
(374,-12,o),
(451,-12,cs,{
name = hr01;
}),
(559,-12,o),
(609,42,o),
(609,121,cs),
(609,187,o),
(574,217,o),
(531,260,cs),
(516,275,ls),
(477,314,o),
(462,331,o),
(462,361,cs),
(462,393,o),
(480,412,o),
(513,412,cs),
(536,412,o),
(556,403,o),
(573,390,c),
(605,444,l),
(575,467,o),
(542,476,o),
(509,476,cs),
(431,476,o),
(387,426,o),
(387,361,cs),
(387,306,o),
(419,268,o),
(461,226,cs),
(480,207,ls),
(514,173,o),
(534,159,o),
(534,121,cs),
(534,77,o),
(506,55,o),
(458,55,cs),
(408,55,o),
(380,78,o),
(358,130,cs),
(270,338,l),
(341,361,o),
(370,421,o),
(370,511,cs),
(370,630,o),
(320,698,o),
(198,698,cs),
(69,698,l),
(69,0,l,{
name = hr02;
}),
(149,0,l)
);
},
{
closed = 1;
nodes = (
(149,626,l),
(191,626,ls),
(258,626,o),
(288,593,o),
(288,532,cs),
(288,486,ls),
(288,425,o),
(258,392,o),
(191,392,cs),
(149,392,l)
);
}
);
width = 640;
},
{
layerId = master03;
shapes = (
{
closed = 1;
nodes = (
(176,321,l),
(189,321,l),
(247,128,ls),
(278,25,o),
(341,-12,o),
(437,-12,cs,{
name = hr01;
}),
(557,-12,o),
(610,45,o),
(610,128,cs),
(610,183,o),
(587,220,o),
(544,263,cs),
(529,278,ls),
(505,302,o),
(495,317,o),
(495,341,cs,{
name = hr02;
}),
(495,368,o),
(508,379,o),
(533,379,cs),
(551,379,o),
(566,373,o),
(582,362,c),
(620,449,l),
(591,468,o),
(553,476,o),
(520,476,cs),
(436,476,o),
(377,424,o),
(377,337,cs),
(377,283,o),
(400,246,o),
(443,203,cs),
(458,188,ls),
(482,164,o),
(492,148,o),
(492,126,cs,{
name = hr03;
}),
(492,99,o),
(477,86,o),
(446,86,cs),
(400,86,o),
(378,116,o),
(362,166,cs),
(304,347,l),
(361,380,o),
(388,446,o),
(388,516,cs),
(388,631,o),
(323,698,o),
(207,698,cs),
(57,698,l),
(57,0,l,{
name = hr04;
}),
(176,0,l)
);
},
{
closed = 1;
nodes = (
(176,597,l),
(210,597,ls),
(251,597,o),
(268,578,o),
(268,529,cs),
(268,487,ls),
(268,438,o),
(251,419,o),
(210,419,cs),
(176,419,l)
);
}
);
width = 640;
}
);
unicode = 8360;
},
{
glyphname = won;
lastChange = "2021-02-28 18:55:49 +0000";
layers = (
{
layerId = master02;
shapes = (
{
closed = 1;
nodes = (
(594,399,l),
(594,464,l),
(538,464,l),
(545,698,l),
(472,698,l),
(469,459,l),
(173,459,l),
(170,698,l),
(95,698,l),
(102,464,l),
(46,464,l),
(46,399,l),
(104,399,l),
(107,313,l),
(46,313,l),
(46,248,l),
(109,248,l),
(117,0,l),
(247,0,l),
(312,404,l),
(328,404,l),
(393,0,l),
(523,0,l),
(531,248,l),
(594,248,l),
(594,313,l),
(533,313,l),
(536,399,l,{
name = hr00;
})
);
},
{
closed = 1;
nodes = (
(174,404,l),
(251,404,l),
(197,74,l),
(180,74,l)
);
},
{
closed = 1;
nodes = (
(391,404,l),
(468,404,l),
(462,74,l),
(445,74,l)
);
}
);
width = 640;
},
{
layerId = master03;
shapes = (
{
closed = 1;
nodes = (
(612,437,l),
(612,529,l),
(560,529,l),
(566,698,l),
(443,698,l),
(443,522,l),
(200,522,l),
(200,698,l),
(74,698,l),
(80,529,l),
(28,529,l),
(28,437,l),
(83,437,l),
(85,361,l),
(28,361,l),
(28,270,l),
(88,270,l),
(97,0,l),
(277,0,l),
(308,444,l),
(332,444,l),
(363,0,l),
(543,0,l),
(552,270,l),
(612,270,l),
(612,361,l),
(555,361,l),
(557,437,l,{
name = hr00;
})
);
},
{
closed = 1;
nodes = (
(192,444,l),
(242,444,l),
(217,93,l),
(192,93,l)
);
},
{
closed = 1;
nodes = (
(401,444,l),
(451,444,l),
(451,93,l),
(426,93,l)
);
}
);
width = 640;
}
);
unicode = 8361;
},
{
glyphname = sheqel;
lastChange = "2021-02-28 18:55:49 +0000";
layers = (
{
layerId = master02;
shapes = (
{
closed = 1;
nodes = (
(376,0,ls),
(486,0,o),
(565,65,o),
(565,198,cs),
(565,698,l),
(488,698,l),
(488,182,ls),
(488,94,o),
(432,64,o),
(376,64,cs),
(292,64,l),
(292,551,l),
(216,551,l),
(216,0,l,{
name = hr00;
})
);
},
{
closed = 1;
nodes = (
(156,634,l),
(241,634,ls),
(297,634,o),
(352,604,o),
(352,516,cs),
(352,147,l),
(428,147,l),
(428,500,ls),
(428,633,o),
(351,698,o),
(241,698,cs),
(79,698,l),
(79,0,l),
(156,0,l)
);
}
);
width = 640;
},
{
layerId = master03;
shapes = (
{
closed = 1;
nodes = (
(401,0,ls),
(511,0,o),
(590,65,o),
(590,198,cs),
(590,698,l),
(487,698,l),
(487,199,ls),
(487,120,o),
(440,90,o),
(384,90,cs),
(299,90,l),
(299,531,l),
(204,531,l),
(204,0,l,{
name = hr00;
})
);
},
{
closed = 1;
nodes = (
(157,608,l),
(243,608,ls),
(299,608,o),
(345,578,o),
(345,499,cs),
(345,167,l),
(440,167,l),
(440,500,ls),
(440,633,o),
(363,698,o),
(253,698,cs),
(54,698,l),
(54,0,l),
(157,0,l)
);
}
);
width = 640;
}
);
unicode = 8362;
},
{
glyphname = dong;
lastChange = "2021-02-28 18:55:49 +0000";
layers = (
{
layerId = master02;
shapes = (
{
closed = 1;
nodes = (
(507,139,l),
(507,619,l),
(576,619,l),
(576,680,l),
(507,680,l),
(507,740,l),
(431,740,l),
(431,680,l),
(278,680,l),
(278,619,l),
(431,619,l),
(431,483,l),
(427,483,l),
(398,533,o),
(350,561,o),
(284,561,cs),
(172,561,o),
(103,484,o),
(103,345,cs),
(103,207,o),
(172,130,o),
(284,130,cs),
(350,130,o),
(398,158,o),
(427,208,c),
(431,208,l),
(431,139,l,{
name = hr00;
})
);
},
{
closed = 1;
nodes = (
(232,194,o),
(184,240,o),
(184,311,cs),
(184,380,ls),
(184,451,o),
(232,497,o),
(314,497,cs),
(377,497,o),
(431,460,o),
(431,405,c),
(431,286,l),
(431,230,o),
(377,194,o),
(314,194,cs)
);
},
{
closed = 1;
nodes = (
(538,68,l),
(102,68,l),
(102,0,l),
(538,0,l)
);
}
);
width = 640;
},
{
layerId = master03;
shapes = (
{
closed = 1;
nodes = (
(539,166,l),
(539,584,l),
(589,584,l),
(589,689,l),
(539,689,l),
(539,740,l),
(399,740,l),
(399,689,l),
(273,689,l),
(273,584,l),
(399,584,l),
(399,447,l),
(393,447,l),
(371,499,o),
(334,544,o),
(256,544,cs),
(159,544,o),
(90,484,o),
(90,350,cs),
(90,216,o),
(159,156,o),
(256,156,cs),
(334,156,o),
(371,201,o),
(393,253,c),
(399,253,l),
(399,166,l,{
name = hr00;
})
);
},
{
closed = 1;
nodes = (
(261,260,o),
(234,295,o),
(234,341,cs),
(234,359,ls),
(234,405,o),
(261,440,o),
(316,440,cs),
(369,440,o),
(399,408,o),
(399,376,c),
(399,324,l),
(399,292,o),
(369,260,o),
(316,260,cs)
);
},
{
closed = 1;
nodes = (
(562,107,l),
(102,107,l),
(102,0,l),
(562,0,l)
);
}
);
width = 640;
}
);
unicode = 8363;
},
{
glyphname = kip;
lastChange = "2021-02-28 18:55:49 +0000";
layers = (
{
layerId = master02;
shapes = (
{
closed = 1;
nodes = (
(260,327,l),
(480,0,l),
(582,0,l),
(357,327,l),
(566,327,l),
(566,396,l),
(350,396,l),
(566,698,l),
(471,698,l),
(258,396,l),
(204,396,l),
(204,698,l),
(120,698,l),
(120,396,l),
(48,396,l),
(48,327,l),
(120,327,l),
(120,0,l),
(204,0,l),
(204,327,l,{
name = hr00;
})
);
}
);
width = 640;
},
{
layerId = master03;
shapes = (
{
closed = 1;
nodes = (
(279,296,l),
(453,0,l),
(621,0,l),
(440,296,l),
(575,296,l),
(575,416,l),
(430,416,l),
(605,698,l),
(444,698,l),
(279,416,l),
(239,416,l),
(239,698,l),
(89,698,l),
(89,416,l),
(39,416,l),
(39,296,l),
(89,296,l),
(89,0,l),
(239,0,l),
(239,296,l,{
name = hr00;
})
);
}
);
width = 640;
}
);
unicode = 8365;
},
{
glyphname = tugrik;
lastChange = "2021-02-28 18:55:49 +0000";
layers = (
{
layerId = master02;
shapes = (
{
closed = 1;
nodes = (
(503,351,l),
(363,286,l),
(363,377,l),
(503,442,l),
(503,511,l),
(363,446,l),
(363,625,l),
(595,625,l),
(595,698,l),
(46,698,l),
(46,625,l),
(278,625,l),
(278,406,l),
(138,341,l),
(138,272,l),
(278,337,l),
(278,246,l),
(138,181,l),
(138,112,l),
(278,177,l),
(278,0,l),
(363,0,l),
(363,217,l),
(503,282,l,{
name = hr00;
})
);
}
);
width = 640;
},
{
layerId = master03;
shapes = (
{
closed = 1;
nodes = (
(520,334,l),
(391,278,l),
(391,362,l),
(520,418,l),
(520,518,l),
(391,462,l),
(391,581,l),
(596,581,l),
(596,698,l),
(44,698,l),
(44,581,l),
(249,581,l),
(249,400,l),
(120,344,l),
(120,244,l),
(249,300,l),
(249,216,l),
(120,160,l),
(120,60,l),
(249,116,l),
(249,0,l),
(391,0,l),
(391,178,l),
(520,234,l,{
name = hr00;
})
);
}
);
width = 640;
}
);
unicode = 8366;
},
{
glyphname = peso;
lastChange = "2021-02-28 18:55:49 +0000";
layers = (
{
layerId = master02;
shapes = (
{
closed = 1;
nodes = (
(344,194,ls),
(448,194,o),
(505,249,o),
(527,341,c),
(594,341,l),
(594,406,l),
(537,406,l),
(538,423,o),
(538,469,o),
(537,486,c),
(594,486,l),
(594,551,l),
(527,551,l),
(505,643,o),
(448,698,o),
(344,698,cs),
(103,698,l),
(103,551,l),
(48,551,l),
(48,486,l),
(103,486,l),
(103,406,l),
(48,406,l),
(48,341,l),
(103,341,l),
(103,0,l),
(185,0,l),
(185,194,l,{
name = hr00;
})
);
},
{
closed = 1;
nodes = (
(342,629,ls),
(404,629,o),
(440,600,o),
(452,549,c),
(185,549,l),
(185,629,l)
);
},
{
closed = 1;
nodes = (
(185,488,l),
(456,488,l),
(456,404,l),
(185,404,l)
);
},
{
closed = 1;
nodes = (
(185,343,l),
(452,343,l),
(440,292,o),
(404,263,o),
(342,263,cs),
(185,263,l)
);
}
);
width = 640;
},
{
layerId = master03;
shapes = (
{
closed = 1;
nodes = (
(338,171,ls),
(444,171,o),
(512,213,o),
(538,317,c),
(599,317,l),
(599,411,l),
(551,411,l),
(551,427,o),
(551,444,o),
(551,460,c),
(599,460,l),
(599,554,l),
(538,554,l),
(511,656,o),
(443,698,o),
(338,698,cs),
(96,698,l),
(96,554,l),
(45,554,l),
(45,460,l),
(96,460,l),
(96,411,l),
(45,411,l),
(45,317,l),
(96,317,l),
(96,0,l),
(238,0,l),
(238,171,l,{
name = hr00;
})
);
},
{
closed = 1;
nodes = (
(313,604,ls),
(368,604,o),
(392,587,o),
(402,549,c),
(238,549,l),
(238,604,l)
);
},
{
closed = 1;
nodes = (
(238,464,l),
(407,464,l),
(407,407,l),
(238,407,l)
);
},
{
closed = 1;
nodes = (
(238,322,l),
(403,322,l),
(394,283,o),
(370,266,o),
(313,266,cs),
(238,266,l)
);
}
);
width = 640;
}
);
unicode = 8369;
},
{
glyphname = guarani;
lastChange = "2021-02-28 18:55:49 +0000";
layers = (
{
layerId = master02;
shapes = (
{
closed = 1;
nodes = (
(272,-113,l),
(290,-10,l),
(301,-11,o),
(312,-12,o),
(324,-12,cs),
(474,-12,o),
(542,95,o),
(542,244,cs),
(542,345,l),
(352,345,l),
(401,625,l),
(439,605,o),
(459,568,o),
(476,527,c),
(544,557,l),
(519,613,o),
(484,670,o),
(415,696,c),
(435,811,l),
(372,811,l),
(354,709,l),
(346,710,o),
(337,710,o),
(328,710,cs),
(160,710,o),
(76,582,o),
(76,349,cs),
(76,166,o),
(128,48,o),
(230,5,c),
(209,-113,l,{
name = hr00;
})
);
},
{
closed = 1;
nodes = (
(188,114,o),
(159,190,o),
(159,292,cs),
(159,406,ls),
(159,549,o),
(215,641,o),
(329,641,cs),
(334,641,o),
(339,641,o),
(343,640,c),
(243,78,l)
);
},
{
closed = 1;
nodes = (
(317,55,o),
(308,56,o),
(301,57,c),
(340,280,l),
(466,280,l),
(466,228,ls),
(466,120,o),
(415,55,o),
(325,55,cs)
);
}
);
width = 640;
},
{
layerId = master03;
shapes = (
{
closed = 1;
nodes = (
(316,-113,l),
(330,-13,l),
(332,-13,o),
(334,-13,o),
(336,-13,cs),
(481,-7,o),
(565,90,o),
(565,234,cs),
(565,373,l),
(374,373,l),
(402,568,l),
(424,549,o),
(437,522,o),
(446,492,c),
(559,532,l),
(535,612,o),
(493,665,o),
(430,691,c),
(446,811,l),
(330,811,l),
(316,710,l),
(314,710,o),
(313,710,o),
(311,710,cs),
(136,705,o),
(55,574,o),
(55,350,cs),
(55,169,o),
(107,49,o),
(217,5,c),
(200,-113,l,{
name = hr00;
})
);
},
{
closed = 1;
nodes = (
(216,161,o),
(204,212,o),
(204,287,cs),
(204,410,ls),
(204,525,o),
(234,586,o),
(305,594,cs),
(307,594,o),
(308,594,o),
(310,594,c),
(244,132,l)
);
},
{
closed = 1;
nodes = (
(340,102,o),
(338,102,o),
(336,102,c),
(359,267,l),
(436,267,l),
(436,218,ls),
(436,159,o),
(410,102,o),
(342,102,cs)
);
}
);
width = 640;
}
);
unicode = 8370;
},
{
glyphname = hryvnia;
lastChange = "2021-02-28 18:55:49 +0000";
layers = (
{
layerId = master02;
shapes = (
{
closed = 1;
nodes = (
(407,-12,o),
(486,22,o),
(540,85,c),
(489,136,l),
(434,79,o),
(383,58,o),
(329,58,cs),
(250,58,o),
(203,103,o),
(203,180,cs),
(203,211,o),
(211,234,o),
(226,254,c),
(593,254,l),
(593,319,l),
(301,319,l),
(301,322,l),
(445,409,l),
(593,409,l),
(593,474,l),
(496,474,l),
(504,491,o),
(510,511,o),
(510,540,cs),
(510,643,o),
(433,710,o),
(318,710,cs),
(247,710,o),
(175,685,o),
(118,624,c),
(171,575,l),
(212,622,o),
(261,640,o),
(311,640,cs),
(385,640,o),
(429,602,o),
(429,531,cs),
(429,507,o),
(424,490,o),
(414,474,c),
(47,474,l),
(47,409,l),
(336,409,l),
(336,406,l),
(192,319,l),
(47,319,l),
(47,254,l),
(141,254,l),
(131,233,o),
(122,208,o),
(122,172,cs),
(122,66,o),
(199,-12,o),
(324,-12,cs,{
name = hr00;
})
);
}
);
width = 640;
},
{
layerId = master03;
shapes = (
{
closed = 1;
nodes = (
(425,-12,o),
(503,27,o),
(550,84,c),
(474,173,l),
(425,121,o),
(381,102,o),
(336,102,cs),
(277,102,o),
(243,134,o),
(243,188,cs),
(243,202,o),
(245,217,o),
(251,230,c),
(593,230,l),
(593,312,l),
(331,312,l),
(331,318,l),
(480,402,l),
(593,402,l),
(593,484,l),
(517,484,l),
(522,498,o),
(525,520,o),
(525,538,cs),
(525,630,o),
(449,710,o),
(315,710,cs),
(231,710,o),
(162,678,o),
(118,627,c),
(193,538,l),
(225,572,o),
(262,593,o),
(309,593,cs),
(360,593,o),
(390,568,o),
(390,516,cs),
(390,502,o),
(388,493,o),
(384,484,c),
(47,484,l),
(47,402,l),
(313,402,l),
(313,396,l),
(164,312,l),
(47,312,l),
(47,230,l),
(115,230,l),
(109,216,o),
(107,198,o),
(107,181,cs),
(107,75,o),
(183,-12,o),
(328,-12,cs,{
name = hr00;
})
);
}
);
width = 640;
}
);
unicode = 8372;
},
{
glyphname = cedi;
lastChange = "2021-02-28 18:55:49 +0000";
layers = (
{
layerId = master02;
shapes = (
{
closed = 1;
nodes = (
(277,-113,l),
(296,-8,l),
(311,-11,o),
(326,-12,o),
(343,-12,cs),
(471,-12,o),
(524,65,o),
(558,141,c),
(490,172,l),
(465,110,o),
(431,57,o),
(343,57,cs),
(330,57,o),
(318,58,o),
(306,61,c),
(407,629,l),
(450,610,o),
(472,571,o),
(490,527,c),
(558,557,l),
(532,616,o),
(494,675,o),
(420,699,c),
(440,811,l),
(377,811,l),
(359,710,l),
(343,710,ls),
(173,710,o),
(90,581,o),
(90,349,cs),
(90,172,o),
(138,55,o),
(236,10,c),
(214,-113,l,{
name = hr00;
})
);
},
{
closed = 1;
nodes = (
(198,123,o),
(173,196,o),
(173,292,cs),
(173,406,ls),
(173,549,o),
(227,641,o),
(348,641,c),
(250,85,l)
);
}
);
width = 640;
},
{
layerId = master03;
shapes = (
{
closed = 1;
nodes = (
(321,-113,l),
(335,-12,l),
(335,-12,o),
(336,-12,o),
(336,-12,c),
(480,-12,o),
(555,67,o),
(583,189,c),
(451,221,l),
(437,157,o),
(408,103,o),
(342,101,cs),
(342,101,o),
(341,101,o),
(341,101,c),
(408,576,l),
(434,558,o),
(448,528,o),
(459,495,c),
(576,534,l),
(555,606,o),
(513,667,o),
(435,695,c),
(451,811,l),
(336,811,l),
(322,710,l),
(321,710,l),
(146,702,o),
(61,574,o),
(61,349,cs),
(61,172,o),
(113,53,o),
(223,8,c),
(206,-113,l,{
name = hr00;
})
);
},
{
closed = 1;
nodes = (
(223,168,o),
(211,219,o),
(211,288,cs),
(211,410,ls),
(211,535,o),
(250,586,o),
(315,596,c),
(250,137,l)
);
}
);
width = 640;
}
);
unicode = 8373;
},
{
glyphname = tenge;
lastChange = "2021-02-28 18:55:49 +0000";
layers = (
{
layerId = master02;
shapes = (
{
closed = 1;
nodes = (
(575,698,l),
(65,698,l),
(65,629,l),
(575,629,l,{
name = hr00;
})
);
},
{
closed = 1;
nodes = (
(575,539,l),
(65,539,l),
(65,470,l),
(278,470,l),
(278,0,l),
(362,0,l),
(362,470,l),
(575,470,l)
);
}
);
width = 640;
},
{
layerId = master03;
shapes = (
{
closed = 1;
nodes = (
(575,698,l),
(65,698,l),
(65,593,l),
(575,593,l,{
name = hr00;
})
);
},
{
closed = 1;
nodes = (
(576,521,l),
(64,521,l),
(64,416,l),
(245,416,l),
(245,0,l),
(395,0,l),
(395,416,l),
(576,416,l)
);
}
);
width = 640;
}
);
unicode = 8376;
},
{
glyphname = rupeeindian;
lastChange = "2021-02-28 18:55:49 +0000";
layers = (
{
layerId = master02;
shapes = (
{
closed = 1;
nodes = (
(299,296,l),
(392,314,o),
(448,382,o),
(454,470,c),
(574,470,l),
(574,539,l),
(448,539,l),
(436,587,o),
(409,612,o),
(383,624,c),
(383,629,l),
(574,629,l),
(574,698,l),
(76,698,l),
(76,629,l),
(248,629,l),
(313,629,o),
(363,596,o),
(369,539,c),
(76,539,l),
(76,470,l),
(372,470,l),
(372,396,o),
(321,360,o),
(248,360,cs),
(76,360,l),
(76,291,l),
(201,291,l),
(423,0,l),
(526,0,l,{
name = hr00;
})
);
}
);
width = 640;
},
{
layerId = master03;
shapes = (
{
closed = 1;
nodes = (
(339,273,l),
(406,302,o),
(446,352,o),
(453,427,c),
(584,427,l),
(584,519,l),
(444,519,l),
(430,559,o),
(402,579,o),
(374,584,c),
(374,589,l),
(584,589,l),
(584,698,l),
(66,698,l),
(66,589,l),
(187,589,ls),
(252,589,o),
(302,570,o),
(308,519,c),
(66,519,l),
(66,427,l),
(308,427,l),
(303,373,o),
(253,355,o),
(187,355,cs),
(66,355,l),
(66,246,l),
(188,246,l),
(372,0,l),
(549,0,l,{
name = hr00;
})
);
}
);
width = 640;
}
);
unicode = 8377;
},
{
glyphname = liraturkish;
lastChange = "2021-02-28 18:55:49 +0000";
layers = (
{
layerId = master02;
shapes = (
{
closed = 1;
nodes = (
(316,0,ls),
(487,0,o),
(574,135,o),
(574,305,c),
(492,305,l),
(492,163,o),
(424,73,o),
(311,73,cs),
(259,73,l),
(259,286,l),
(441,371,l),
(441,440,l),
(259,355,l),
(259,446,l),
(441,531,l),
(441,600,l),
(259,515,l),
(259,698,l),
(175,698,l),
(175,476,l),
(76,430,l),
(76,361,l),
(175,407,l),
(175,316,l),
(76,270,l),
(76,201,l),
(175,247,l),
(175,0,l,{
name = hr00;
})
);
}
);
width = 640;
},
{
layerId = master03;
shapes = (
{
closed = 1;
nodes = (
(333,0,ls),
(518,0,o),
(598,135,o),
(598,305,c),
(456,305,l),
(456,166,o),
(410,122,o),
(314,122,cs),
(268,122,l),
(268,264,l),
(429,338,l),
(429,442,l),
(268,368,l),
(268,434,l),
(429,508,l),
(429,612,l),
(268,538,l),
(268,698,l),
(129,698,l),
(129,473,l),
(59,441,l),
(59,337,l),
(129,369,l),
(129,303,l),
(59,271,l),
(59,167,l),
(129,199,l),
(129,0,l,{
name = hr00;
})
);
}
);
width = 640;
}
);
unicode = 8378;
},
{
glyphname = ruble;
lastChange = "2021-02-28 18:55:49 +0000";
layers = (
{
layerId = master02;
shapes = (
{
closed = 1;
nodes = (
(459,203,l),
(232,203,l),
(232,294,l),
(375,294,ls),
(504,294,o),
(575,367,o),
(575,494,cs),
(575,621,o),
(505,698,o),
(376,698,cs),
(148,698,l),
(148,363,l),
(65,363,l),
(65,294,l),
(148,294,l),
(148,203,l),
(65,203,l),
(65,134,l),
(148,134,l),
(148,0,l),
(232,0,l),
(232,134,l),
(459,134,l,{
name = hr00;
})
);
},
{
closed = 1;
nodes = (
(376,625,ls),
(446,625,o),
(488,589,o),
(488,525,cs),
(488,463,ls),
(488,399,o),
(446,363,o),
(376,363,cs),
(232,363,l),
(232,625,l)
);
}
);
width = 640;
},
{
layerId = master03;
shapes = (
{
closed = 1;
nodes = (
(469,223,l),
(263,223,l),
(263,275,l),
(372,275,l),
(509,275,o),
(585,357,o),
(585,486,cs),
(585,615,o),
(509,698,o),
(372,698,cs),
(112,698,l),
(112,384,l),
(52,384,l),
(52,275,l),
(112,275,l),
(112,223,l),
(52,223,l),
(52,114,l),
(112,114,l),
(112,0,l),
(263,0,l),
(263,114,l),
(469,114,l,{
name = hr00;
})
);
},
{
closed = 1;
nodes = (
(334,587,ls),
(404,587,o),
(428,562,o),
(428,501,cs),
(428,470,ls),
(428,409,o),
(404,384,o),
(334,384,cs),
(263,384,l),
(263,587,l)
);
}
);
width = 640;
}
);
unicode = 8381;
},
{
glyphname = bitcoin;
lastChange = "2021-02-28 18:55:49 +0000";
layers = (
{
layerId = master02;
shapes = (
{
closed = 1;
nodes = (
(401,-113,l),
(401,2,l),
(496,15,o),
(563,97,o),
(563,201,cs),
(563,296,o),
(509,346,o),
(428,365,c),
(428,368,l),
(494,390,o),
(537,436,o),
(537,518,cs,{
name = hr01;
}),
(537,609,o),
(486,673,o),
(401,692,c),
(401,811,l),
(339,811,l),
(339,698,l),
(270,698,l),
(270,811,l),
(208,811,l),
(208,698,l),
(108,698,l),
(108,0,l),
(208,0,l),
(208,-113,l),
(270,-113,l),
(270,0,l),
(339,0,l),
(339,-113,l)
);
},
{
closed = 1;
nodes = (
(337,626,ls),
(407,626,o),
(449,593,o),
(449,529,cs),
(449,490,ls),
(449,426,o),
(407,395,o),
(337,395,cs),
(192,395,l),
(192,626,l)
);
},
{
closed = 1;
nodes = (
(351,326,ls),
(428,326,o),
(474,290,o),
(474,220,cs,{
name = hr02;
}),
(474,179,ls),
(474,108,o),
(428,72,o),
(351,72,cs),
(192,72,l),
(192,326,l)
);
}
);
width = 640;
},
{
layerId = master03;
shapes = (
{
closed = 1;
nodes = (
(417,-113,l),
(417,4,l),
(517,22,o),
(576,91,o),
(576,192,cs),
(576,286,o),
(527,338,o),
(440,359,c),
(440,365,l),
(516,387,o),
(554,434,o),
(554,512,cs,{
name = hr01;
}),
(554,603,o),
(506,667,o),
(417,689,c,{
name = hr02;
}),
(417,811,l),
(333,811,l),
(333,698,l),
(272,698,l),
(272,811,l),
(188,811,l),
(188,698,l),
(97,698,l,{
name = hr03;
}),
(97,0,l),
(188,0,l,{
name = hr04;
}),
(188,-113,l),
(272,-113,l),
(272,0,l),
(333,0,l),
(333,-113,l)
);
},
{
closed = 1;
nodes = (
(300,597,ls),
(370,597,o),
(401,576,o),
(401,514,cs),
(401,485,ls),
(401,424,o),
(370,402,o),
(300,402,cs),
(243,402,l),
(243,597,l,{
name = hr05;
})
);
},
{
closed = 1;
nodes = (
(319,302,ls),
(391,302,o),
(423,280,o),
(423,217,cs,{
name = hr06;
}),
(423,187,ls),
(423,124,o),
(391,101,o),
(319,101,cs),
(243,101,l),
(243,302,l)
);
}
);
width = 640;
}
);
unicode = 8383;
},
{
glyphname = fi;
lastChange = "2021-02-28 18:55:49 +0000";
layers = (
{
layerId = master02;
shapes = (
{
closed = 1;
nodes = (
(208,0,l),
(208,448,l),
(442,448,l),
(442,0,l),
(522,0,l),
(522,516,l),
(208,516,l),
(208,672,l),
(355,672,l),
(355,740,l),
(242,740,ls),
(164,740,o),
(128,691,o),
(128,622,cs),
(128,516,l),
(58,516,l),
(58,448,l),
(128,448,l),
(128,0,l)
);
},
{
closed = 1;
nodes = (
(528,630,o),
(545,652,o),
(545,681,cs),
(545,697,ls),
(545,726,o),
(528,748,o),
(482,748,cs),
(436,748,o),
(419,726,o),
(419,697,cs),
(419,681,ls),
(419,652,o),
(436,630,o),
(482,630,cs,{
name = hr01;
})
);
}
);
width = 640;
},
{
layerId = master03;
shapes = (
{
closed = 1;
nodes = (
(243,0,l),
(243,401,l),
(407,401,l),
(407,0,l),
(555,0,l),
(555,516,l),
(243,516,l),
(243,625,l),
(349,625,l),
(349,740,l),
(252,740,ls),
(145,740,o),
(95,678,o),
(95,591,cs),
(95,516,l),
(51,516,l),
(51,401,l),
(95,401,l),
(95,0,l)
);
},
{
closed = 1;
nodes = (
(547,582,o),
(570,613,o),
(570,652,cs),
(570,681,ls),
(570,721,o),
(547,751,o),
(481,751,cs),
(415,751,o),
(392,721,o),
(392,681,cs),
(392,652,ls),
(392,613,o),
(415,582,o),
(481,582,cs,{
name = hr01;
})
);
}
);
width = 640;
}
);
unicode = 64257;
},
{
glyphname = fl;
lastChange = "2021-02-28 18:55:49 +0000";
layers = (
{
layerId = master02;
shapes = (
{
closed = 1;
nodes = (
(208,0,l),
(208,448,l),
(365,448,l),
(365,516,l),
(208,516,l),
(208,672,l),
(365,672,l),
(365,740,l),
(242,740,ls),
(164,740,o),
(128,691,o),
(128,622,cs),
(128,516,l),
(58,516,l),
(58,448,l),
(128,448,l),
(128,0,l,{
name = hr00;
})
);
},
{
closed = 1;
nodes = (
(522,0,l),
(522,740,l),
(442,740,l),
(442,0,l)
);
}
);
width = 640;
},
{
layerId = master03;
shapes = (
{
closed = 1;
nodes = (
(243,0,l),
(243,401,l),
(351,401,l),
(351,516,l),
(243,516,l),
(243,625,l),
(350,625,l),
(350,740,l),
(252,740,ls),
(145,740,o),
(95,678,o),
(95,591,cs),
(95,516,l),
(51,516,l),
(51,401,l),
(95,401,l),
(95,0,l,{
name = hr00;
})
);
},
{
closed = 1;
nodes = (
(555,0,l),
(555,740,l),
(407,740,l),
(407,0,l)
);
}
);
width = 640;
}
);
unicode = 64258;
},
{
glyphname = aogonek;
lastChange = "2021-02-28 18:55:49 +0000";
layers = (
{
layerId = master02;
shapes = (
{
closed = 1;
nodes = (
(498,70,l),
(498,354,ls),
(498,463,o),
(421,528,o),
(300,528,cs),
(195,528,o),
(129,478,o),
(103,424,c),
(157,384,l),
(184,431,o),
(226,460,o),
(294,460,cs),
(373,460,o),
(418,421,o),
(418,346,cs),
(418,295,l),
(308,295,ls),
(153,295,o),
(86,240,o),
(86,145,cs),
(86,48,o),
(155,-12,o),
(263,-12,c,{
name = hr01;
}),
(347,-12,o),
(396,25,o),
(418,84,c),
(423,84,l),
(427,37,o),
(454,4,o),
(503,0,c,{
name = hr02;
}),
(504,-3,l),
(429,-39,o),
(389,-79,o),
(389,-127,cs),
(389,-180,o),
(437,-207,o),
(498,-207,cs,{
name = hr03;
}),
(548,-207,o),
(578,-188,o),
(591,-166,c),
(551,-125,l),
(538,-141,o),
(521,-151,o),
(499,-151,cs),
(478,-151,o),
(457,-142,o),
(457,-114,cs,{
name = hr04;
}),
(457,-94,o),
(467,-65,o),
(570,0,c),
(570,70,l)
);
},
{
closed = 1;
nodes = (
(418,150,ls),
(418,97,o),
(359,55,o),
(277,55,cs),
(211,55,o),
(170,83,o),
(170,136,cs),
(170,157,ls),
(170,207,o),
(213,235,o),
(308,235,cs),
(418,235,l,{
name = hr05;
})
);
}
);
width = 640;
},
{
layerId = master03;
shapes = (
{
closed = 1;
nodes = (
(535,107,l),
(535,333,ls),
(535,463,o),
(451,528,o),
(310,528,cs),
(195,528,o),
(120,485,o),
(86,427,c),
(167,355,l),
(195,393,o),
(231,420,o),
(293,420,cs),
(361,420,o),
(387,388,o),
(387,327,cs),
(387,301,l),
(304,301,ls),
(153,301,o),
(72,250,o),
(72,142,cs),
(72,45,o),
(138,-12,o),
(238,-12,cs,{
name = hr01;
}),
(317,-12,o),
(377,24,o),
(395,91,c),
(400,91,l),
(405,36,o),
(440,4,o),
(495,0,c,{
name = hr02;
}),
(497,-4,l),
(423,-38,o),
(378,-71,o),
(378,-127,cs),
(378,-191,o),
(436,-212,o),
(502,-212,cs),
(565,-212,o),
(607,-193,o),
(624,-161,c),
(571,-110,l),
(557,-126,o),
(540,-138,o),
(516,-138,cs),
(496,-138,o),
(478,-130,o),
(478,-105,cs),
(478,-81,o),
(494,-60,o),
(592,0,c),
(592,107,l)
);
},
{
closed = 1;
nodes = (
(387,159,ls),
(387,111,o),
(346,85,o),
(293,85,cs),
(247,85,o),
(217,104,o),
(217,140,cs),
(217,160,ls),
(217,200,o),
(249,221,o),
(308,221,cs),
(387,221,l,{
name = hr03;
})
);
}
);
width = 640;
}
);
unicode = 261;
},
{
glyphname = aogonek.alt01;
lastChange = "2021-02-28 18:55:49 +0000";
layers = (
{
layerId = master02;
shapes = (
{
closed = 1;
nodes = (
(503,-207,o),
(533,-188,o),
(546,-166,c),
(506,-125,l),
(493,-141,o),
(476,-151,o),
(454,-151,cs),
(433,-151,o),
(412,-142,o),
(412,-114,cs),
(412,-94,o),
(422,-65,o),
(525,0,c),
(525,516,l),
(445,516,l),
(445,432,l),
(441,432,l),
(408,495,o),
(354,528,o),
(282,528,cs,{
name = hr01;
}),
(156,528,o),
(80,427,o),
(80,258,cs),
(80,89,o),
(156,-12,o),
(282,-12,cs),
(354,-12,o),
(408,21,o),
(441,84,c),
(445,84,l),
(445,0,l,{
name = hr02;
}),
(458,0,l),
(459,-3,l),
(384,-39,o),
(344,-79,o),
(344,-127,cs),
(344,-180,o),
(392,-207,o),
(453,-207,cs)
);
},
{
closed = 1;
nodes = (
(220,59,o),
(166,121,o),
(166,214,c),
(166,302,ls),
(166,395,o),
(220,457,o),
(313,457,cs),
(384,457,o),
(445,420,o),
(445,351,cs),
(445,165,ls),
(445,96,o),
(384,59,o),
(313,59,cs,{
name = hr03;
})
);
}
);
width = 640;
},
{
layerId = master03;
shapes = (
{
closed = 1;
nodes = (
(534,-212,o),
(576,-193,o),
(593,-161,c),
(540,-110,l),
(526,-126,o),
(509,-138,o),
(485,-138,cs),
(465,-138,o),
(447,-130,o),
(447,-105,cs),
(447,-81,o),
(463,-60,o),
(561,0,c,{
name = hr01;
}),
(561,516,l),
(413,516,l),
(413,422,l),
(406,422,l),
(380,484,o),
(336,528,o),
(253,528,cs,{
name = hr02;
}),
(139,528,o),
(59,445,o),
(59,258,cs),
(59,71,o),
(139,-12,o),
(253,-12,cs),
(336,-12,o),
(380,32,o),
(406,94,c),
(413,94,l),
(413,0,l,{
name = hr03;
}),
(465,0,l),
(466,-4,l),
(392,-38,o),
(347,-71,o),
(347,-127,cs,{
name = hr04;
}),
(347,-191,o),
(405,-212,o),
(471,-212,cs)
);
},
{
closed = 1;
nodes = (
(251,103,o),
(213,146,o),
(213,218,c),
(213,298,ls),
(213,370,o),
(251,413,o),
(317,413,cs),
(369,413,o),
(413,388,o),
(413,334,cs,{
name = hr05;
}),
(413,182,ls),
(413,128,o),
(369,103,o),
(317,103,cs)
);
}
);
width = 640;
}
);
},
{
glyphname = ae;
lastChange = "2021-02-28 18:55:49 +0000";
layers = (
{
anchors = (
{
name = top;
pos = (320,516);
}
);
layerId = master02;
shapes = (
{
closed = 1;
nodes = (
(223,-12,o),
(271,24,o),
(289,102,c),
(292,102,l),
(320,30,o),
(370,-12,o),
(438,-12,cs),
(522,-12,o),
(574,53,o),
(594,114,c),
(536,141,l),
(519,96,o),
(492,52,o),
(440,52,cs),
(377,52,o),
(344,119,o),
(344,213,cs),
(344,238,l),
(602,238,l),
(602,292,ls),
(602,447,o),
(548,528,o),
(444,528,cs),
(392,528,o),
(347,507,o),
(320,450,c),
(317,450,l),
(294,500,o),
(253,528,o),
(193,528,cs),
(113,528,o),
(63,476,o),
(42,422,c),
(95,389,l),
(114,436,o),
(139,468,o),
(190,468,cs),
(241,468,o),
(271,437,o),
(271,348,cs),
(271,295,l),
(208,295,ls),
(93,295,o),
(30,242,o),
(30,138,cs),
(30,40,o),
(86,-12,o),
(161,-12,cs,{
name = hr00;
})
);
},
{
closed = 1;
nodes = (
(122,50,o),
(103,83,o),
(103,137,cs),
(103,152,ls),
(103,213,o),
(146,238,o),
(219,238,cs),
(271,238,l),
(271,154,ls),
(271,99,o),
(240,50,o),
(175,50,cs)
);
},
{
closed = 1;
nodes = (
(501,470,o),
(536,424,o),
(536,329,cs),
(536,295,l),
(344,295,l),
(344,329,ls),
(344,424,o),
(379,470,o),
(440,470,cs)
);
}
);
width = 640;
},
{
anchors = (
{
name = top;
pos = (318,516);
}
);
layerId = master03;
shapes = (
{
closed = 1;
nodes = (
(220,-12,o),
(266,24,o),
(278,105,c),
(282,105,l),
(306,23,o),
(369,-12,o),
(438,-12,cs),
(531,-12,o),
(578,51,o),
(598,129,c),
(501,156,l),
(491,117,o),
(474,84,o),
(437,84,cs),
(390,84,o),
(365,136,o),
(365,213,cs),
(365,228,l),
(604,228,l),
(604,297,ls),
(604,438,o),
(538,528,o),
(437,528,cs),
(385,528,o),
(345,504,o),
(317,455,c),
(313,455,l),
(290,502,o),
(249,528,o),
(188,528,cs),
(111,528,o),
(55,487,o),
(33,401,c),
(125,368,l),
(137,410,o),
(152,436,o),
(188,436,cs),
(226,436,o),
(246,407,o),
(246,362,cs),
(246,305,l),
(206,305,ls),
(89,305,o),
(24,248,o),
(24,141,cs),
(24,39,o),
(82,-12,o),
(157,-12,cs,{
name = hr00;
})
);
},
{
closed = 1;
nodes = (
(156,78,o),
(140,101,o),
(140,138,cs),
(140,157,ls),
(140,204,o),
(168,228,o),
(217,228,cs),
(246,228,l),
(246,179,ls),
(246,114,o),
(231,78,o),
(189,78,cs)
);
},
{
closed = 1;
nodes = (
(474,438,o),
(495,399,o),
(495,349,cs),
(495,305,l),
(365,305,l),
(365,349,ls),
(365,399,o),
(386,438,o),
(430,438,cs)
);
}
);
width = 640;
}
);
unicode = 230;
},
{
glyphname = ccedilla;
lastChange = "2021-02-28 18:55:49 +0000";
layers = (
{
layerId = master02;
shapes = (
{
closed = 1;
nodes = (
(191,528,o),
(104,422,o),
(104,258,cs),
(104,111,o),
(175,9,o),
(297,-9,c),
(283,-77,l),
(311,-81,ls),
(367,-89,o),
(379,-104,o),
(379,-122,cs),
(379,-143,o),
(360,-153,o),
(335,-153,cs),
(306,-153,o),
(286,-140,o),
(274,-125,c),
(236,-166,l),
(250,-185,o),
(281,-207,o),
(335,-207,cs),
(394,-207,o),
(446,-181,o),
(446,-124,cs),
(446,-81,o),
(417,-58,o),
(378,-58,cs),
(366,-58,o),
(352,-60,o),
(339,-64,c),
(336,-61,l),
(346,-12,l),
(445,-9,o),
(506,40,o),
(536,108,c),
(479,147,l),
(453,91,o),
(408,57,o),
(339,57,cs),
(242,57,o),
(190,123,o),
(190,214,cs),
(190,302,ls),
(190,393,o),
(243,459,o),
(337,459,cs),
(401,459,o),
(445,428,o),
(464,375,c),
(528,409,l),
(499,479,o),
(437,528,o),
(337,528,cs,{
name = hr00;
})
);
}
);
width = 640;
},
{
layerId = master03;
shapes = (
{
closed = 1;
nodes = (
(179,528,o),
(80,425,o),
(80,258,cs),
(80,111,o),
(156,14,o),
(285,-7,c),
(271,-74,l),
(292,-76,ls),
(354,-82,o),
(367,-101,o),
(367,-116,cs),
(367,-133,o),
(348,-141,o),
(323,-141,cs),
(292,-141,o),
(270,-128,o),
(257,-112,c),
(211,-168,l),
(228,-188,o),
(266,-212,o),
(335,-212,cs),
(403,-212,o),
(467,-189,o),
(467,-121,cs),
(467,-72,o),
(434,-52,o),
(394,-52,cs),
(378,-52,o),
(362,-55,o),
(346,-59,c),
(342,-55,l),
(351,-12,l),
(460,-9,o),
(527,41,o),
(563,114,c),
(451,178,l),
(429,136,o),
(399,106,o),
(342,106,cs),
(272,106,o),
(234,148,o),
(234,216,cs),
(234,300,ls),
(234,368,o),
(273,410,o),
(340,410,cs),
(395,410,o),
(423,380,o),
(441,340,c),
(555,402,l),
(519,477,o),
(453,528,o),
(340,528,cs,{
name = hr00;
})
);
}
);
width = 640;
}
);
unicode = 231;
},
{
glyphname = dcaron;
lastChange = "2021-02-28 18:55:49 +0000";
layers = (
{
layerId = master02;
shapes = (
{
closed = 1;
nodes = (
(324,-12,o),
(375,21,o),
(406,84,c),
(410,84,l),
(410,0,l,{
name = hr01;
}),
(490,0,l),
(490,740,l),
(410,740,l),
(410,432,l),
(406,432,l),
(375,495,o),
(324,528,o),
(257,528,cs),
(137,528,o),
(65,427,o),
(65,258,cs),
(65,89,o),
(137,-12,o),
(257,-12,cs)
);
},
{
closed = 1;
nodes = (
(196,59,o),
(151,118,o),
(151,214,cs),
(151,302,ls),
(151,398,o),
(196,457,o),
(283,457,cs),
(349,457,o),
(410,420,o),
(410,351,c),
(410,165,l),
(410,96,o),
(349,59,o),
(283,59,cs)
);
},
{
closed = 1;
nodes = (
(619,551,l),
(668,740,l),
(565,740,l),
(558,551,l)
);
}
);
width = 640;
},
{
layerId = master03;
shapes = (
{
closed = 1;
nodes = (
(274,-12,o),
(306,31,o),
(326,93,c),
(334,93,l),
(334,0,l,{
name = hr01;
}),
(475,0,l),
(475,740,l),
(334,740,l),
(334,423,l),
(326,423,l),
(306,485,o),
(274,528,o),
(205,528,cs),
(106,528,o),
(47,443,o),
(47,258,cs),
(47,73,o),
(106,-12,o),
(205,-12,cs)
);
},
{
closed = 1;
nodes = (
(220,97,o),
(194,127,o),
(194,200,cs),
(194,316,ls),
(194,389,o),
(220,419,o),
(264,419,cs),
(305,419,o),
(334,392,o),
(334,336,cs),
(334,180,ls),
(334,124,o),
(305,97,o),
(264,97,cs)
);
},
{
closed = 1;
nodes = (
(603,529,l),
(657,740,l),
(528,740,l),
(526,529,l)
);
}
);
width = 640;
}
);
unicode = 271;
},
{
glyphname = dcroat;
lastChange = "2021-02-28 18:55:49 +0000";
layers = (
{
layerId = master02;
shapes = (
{
closed = 1;
nodes = (
(525,0,l),
(525,608,l),
(590,608,l),
(590,670,l),
(525,670,l),
(525,740,l),
(445,740,l),
(445,670,l),
(292,670,l),
(292,608,l),
(445,608,l),
(445,432,l),
(441,432,l),
(408,495,o),
(354,528,o),
(282,528,cs),
(156,528,o),
(80,427,o),
(80,258,cs),
(80,89,o),
(156,-12,o),
(282,-12,cs,{
name = hr01;
}),
(354,-12,o),
(408,21,o),
(441,84,c,{
name = hr02;
}),
(445,84,l),
(445,0,l)
);
},
{
closed = 1;
nodes = (
(220,59,o),
(166,121,o),
(166,214,cs),
(166,302,ls),
(166,395,o),
(220,457,o),
(313,457,cs),
(384,457,o),
(445,420,o),
(445,351,cs),
(445,165,ls),
(445,96,o),
(384,59,o),
(313,59,cs,{
name = hr03;
})
);
}
);
width = 640;
},
{
layerId = master03;
shapes = (
{
closed = 1;
nodes = (
(561,0,l),
(561,580,l),
(616,580,l),
(616,690,l),
(561,690,l),
(561,740,l),
(413,740,l),
(413,690,l),
(273,690,l),
(273,580,l),
(413,580,l),
(413,422,l),
(406,422,l),
(380,484,o),
(336,528,o),
(253,528,cs),
(139,528,o),
(59,445,o),
(59,258,cs),
(59,71,o),
(139,-12,o),
(253,-12,cs,{
name = hr01;
}),
(336,-12,o),
(380,32,o),
(406,94,c,{
name = hr02;
}),
(413,94,l),
(413,0,l)
);
},
{
closed = 1;
nodes = (
(251,103,o),
(213,146,o),
(213,218,cs),
(213,298,l),
(213,370,o),
(251,413,o),
(317,413,cs),
(369,413,o),
(413,388,o),
(413,334,cs),
(413,182,ls),
(413,128,o),
(369,103,o),
(317,103,cs,{
name = hr03;
})
);
}
);
width = 640;
}
);
unicode = 273;
},
{
glyphname = eth;
lastChange = "2021-02-28 18:55:49 +0000";
layers = (
{
layerId = master02;
shapes = (
{
closed = 1;
nodes = (
(347,688,l),
(321,709,o),
(295,726,o),
(273,740,c),
(147,740,l),
(198,712,o),
(246,682,o),
(290,647,c),
(198,583,l),
(236,538,l),
(335,608,l),
(391,555,o),
(436,492,o),
(469,410,c),
(465,408,l),
(433,461,o),
(381,504,o),
(300,504,cs),
(175,504,o),
(86,403,o),
(86,246,cs),
(86,89,o),
(174,-12,o),
(323,-12,cs),
(465,-12,o),
(554,80,o),
(554,266,cs),
(554,440,o),
(476,565,o),
(392,647,c),
(479,708,l),
(441,753,l,{
name = hr00;
})
);
},
{
closed = 1;
nodes = (
(231,57,o),
(171,107,o),
(171,211,cs),
(171,281,ls),
(171,385,o),
(231,435,o),
(320,435,cs),
(409,435,o),
(469,385,o),
(469,281,cs),
(469,211,ls),
(469,107,o),
(409,57,o),
(320,57,cs)
);
}
);
width = 640;
},
{
layerId = master03;
shapes = (
{
closed = 1;
nodes = (
(368,703,l),
(351,716,o),
(334,729,o),
(317,740,c),
(91,740,l),
(150,709,o),
(205,674,o),
(253,636,c),
(171,588,l),
(222,528,l),
(314,582,l),
(370,528,o),
(410,469,o),
(428,408,c),
(419,404,l),
(387,463,o),
(337,500,o),
(262,500,cs),
(140,500,o),
(60,402,o),
(60,253,cs),
(60,89,o),
(158,-12,o),
(323,-12,cs),
(477,-12,o),
(581,75,o),
(581,278,cs),
(581,440,o),
(515,560,o),
(428,649,c),
(503,693,l),
(453,753,l,{
name = hr00;
})
);
},
{
closed = 1;
nodes = (
(256,98,o),
(213,141,o),
(213,217,cs),
(213,271,ls),
(213,346,o),
(253,388,o),
(321,388,cs),
(386,388,o),
(428,349,o),
(428,273,cs),
(428,217,ls),
(428,141,o),
(388,98,o),
(322,98,cs)
);
}
);
width = 640;
}
);
unicode = 240;
},
{
glyphname = eogonek;
lastChange = "2021-02-28 18:55:49 +0000";
layers = (
{
layerId = master02;
shapes = (
{
closed = 1;
nodes = (
(431,-207,o),
(461,-188,o),
(474,-166,c),
(434,-125,l),
(421,-141,o),
(404,-151,o),
(382,-151,cs),
(361,-151,o),
(340,-142,o),
(340,-114,cs),
(340,-85,o),
(363,-63,o),
(425,-12,cs),
(467,22,o),
(517,65,o),
(536,107,c),
(477,147,l),
(450,91,o),
(398,57,o),
(329,57,cs),
(232,57,o),
(171,123,o),
(171,214,cs),
(171,238,l),
(553,238,l),
(553,276,ls),
(553,422,o),
(463,528,o),
(324,528,cs),
(184,528,o),
(87,421,o),
(87,258,cs),
(87,94,o),
(184,-12,o),
(322,-12,cs),
(349,-12,o),
(370,-8,o),
(383,-3,c),
(385,-6,l),
(311,-41,o),
(272,-80,o),
(272,-127,cs),
(272,-180,o),
(320,-207,o),
(381,-207,cs,{
name = hr00;
})
);
},
{
closed = 1;
nodes = (
(171,305,ls),
(171,395,o),
(236,462,o),
(324,462,cs),
(409,462,o),
(467,400,o),
(467,309,cs),
(467,298,l),
(171,298,l)
);
}
);
width = 640;
},
{
layerId = master03;
shapes = (
{
closed = 1;
nodes = (
(446,-212,o),
(488,-193,o),
(505,-161,c),
(452,-110,l),
(438,-126,o),
(421,-138,o),
(397,-138,cs),
(377,-138,o),
(359,-130,o),
(359,-105,cs),
(359,-77,o),
(381,-62,o),
(452,-7,cs),
(508,36,o),
(531,53,o),
(555,79,c),
(475,166,l),
(443,128,o),
(400,102,o),
(339,102,cs),
(260,102,o),
(217,147,o),
(217,213,cs),
(217,222,l),
(570,222,l),
(570,266,ls),
(570,427,o),
(475,528,o),
(321,528,cs),
(166,528,o),
(70,425,o),
(70,257,cs),
(70,84,o),
(171,-12,o),
(325,-12,cs),
(347,-12,o),
(365,-10,o),
(375,-7,c),
(377,-12,l),
(304,-43,o),
(259,-74,o),
(259,-128,cs),
(259,-191,o),
(318,-212,o),
(383,-212,cs,{
name = hr00;
})
);
},
{
closed = 1;
nodes = (
(217,313,ls),
(217,379,o),
(258,422,o),
(322,422,cs),
(386,422,o),
(425,380,o),
(425,313,cs),
(425,305,l),
(217,305,l)
);
}
);
width = 640;
}
);
unicode = 281;
},
{
glyphname = schwa;
lastChange = "2021-02-28 18:55:49 +0000";
layers = (
{
layerId = master02;
shapes = (
{
closed = 1;
nodes = (
(87,240,ls),
(87,94,o),
(177,-12,o),
(316,-12,cs),
(456,-12,o),
(553,94,o),
(553,259,cs),
(553,422,o),
(459,528,o),
(311,528,cs),
(209,528,o),
(135,478,o),
(104,409,c),
(163,369,l),
(190,425,o),
(242,459,o),
(311,459,cs),
(408,459,o),
(469,393,o),
(469,302,cs),
(469,278,l),
(87,278,l,{
name = hr00;
})
);
},
{
closed = 1;
nodes = (
(469,218,l),
(469,211,ls),
(469,121,o),
(404,54,o),
(316,54,cs),
(231,54,o),
(173,116,o),
(173,207,cs),
(173,218,l)
);
}
);
width = 640;
},
{
layerId = master03;
shapes = (
{
closed = 1;
nodes = (
(70,250,ls),
(70,89,o),
(165,-12,o),
(319,-12,cs),
(474,-12,o),
(570,91,o),
(570,260,cs),
(570,425,o),
(479,528,o),
(306,528,cs),
(195,528,o),
(125,486,o),
(85,437,c),
(165,350,l),
(197,388,o),
(240,414,o),
(301,414,cs),
(380,414,o),
(423,369,o),
(423,303,cs),
(423,294,l),
(70,294,l,{
name = hr00;
})
);
},
{
closed = 1;
nodes = (
(423,211,l),
(423,203,ls),
(423,137,o),
(382,94,o),
(318,94,cs),
(254,94,o),
(215,136,o),
(215,203,cs),
(215,211,l)
);
}
);
width = 640;
}
);
unicode = 601;
},
{
glyphname = hbar;
lastChange = "2021-02-28 18:55:49 +0000";
layers = (
{
layerId = master02;
shapes = (
{
closed = 1;
nodes = (
(198,358,ls),
(198,426,o),
(262,457,o),
(326,457,cs),
(405,457,o),
(448,411,o),
(448,317,cs),
(448,0,l),
(528,0,l),
(528,331,ls),
(528,456,o),
(457,528,o),
(349,528,cs),
(264,528,o),
(224,483,o),
(202,432,c),
(198,432,l),
(198,608,l),
(351,608,l),
(351,670,l),
(198,670,l),
(198,740,l),
(118,740,l),
(118,670,l),
(53,670,l),
(53,608,l),
(118,608,l),
(118,0,l),
(198,0,l,{
name = hr00;
})
);
}
);
width = 640;
},
{
layerId = master03;
shapes = (
{
closed = 1;
nodes = (
(233,339,ls),
(233,389,o),
(278,414,o),
(324,414,cs),
(382,414,o),
(411,379,o),
(411,314,cs),
(411,0,l),
(559,0,l),
(559,334,ls),
(559,459,o),
(490,528,o),
(391,528,cs),
(308,528,o),
(262,480,o),
(239,422,c),
(233,422,l),
(233,580,l),
(373,580,l),
(373,690,l),
(233,690,l),
(233,740,l),
(85,740,l),
(85,690,l),
(29,690,l),
(29,580,l),
(85,580,l),
(85,0,l),
(233,0,l,{
name = hr00;
})
);
}
);
width = 640;
}
);
unicode = 295;
},
{
glyphname = dotlessi;
lastChange = "2021-02-28 18:55:49 +0000";
layers = (
{
anchors = (
{
name = bottom;
pos = (352,0);
},
{
name = bottomright;
pos = (566,0);
},
{
name = top;
pos = (352,516);
}
);
layerId = master02;
shapes = (
{
closed = 1;
nodes = (
(566,0,l),
(566,68,l),
(392,68,l),
(392,516,l),
(126,516,l),
(126,448,l),
(312,448,l),
(312,68,l),
(126,68,l),
(126,0,l,{
name = hr00;
})
);
}
);
width = 640;
},
{
anchors = (
{
name = bottom;
pos = (352,0);
},
{
name = bottomright;
pos = (578,0);
},
{
name = top;
pos = (352,516);
}
);
layerId = master03;
shapes = (
{
closed = 1;
nodes = (
(578,0,l),
(578,115,l),
(426,115,l),
(426,516,l),
(114,516,l),
(114,401,l),
(278,401,l),
(278,115,l),
(114,115,l),
(114,0,l,{
name = hr00;
})
);
}
);
width = 640;
}
);
unicode = 305;
},
{
glyphname = iogonek;
lastChange = "2021-02-28 18:55:49 +0000";
layers = (
{
layerId = master02;
shapes = (
{
closed = 1;
nodes = (
(544,-207,o),
(574,-188,o),
(587,-166,c),
(547,-125,l),
(534,-141,o),
(517,-151,o),
(495,-151,cs),
(474,-151,o),
(453,-142,o),
(453,-114,cs),
(453,-94,o),
(463,-65,o),
(566,0,c),
(566,68,l),
(392,68,l,{
name = hr01;
}),
(392,516,l),
(126,516,l),
(126,448,l),
(312,448,l),
(312,68,l),
(126,68,l),
(126,0,l),
(499,0,l),
(500,-3,l),
(425,-39,o),
(385,-79,o),
(385,-127,cs,{
name = hr02;
}),
(385,-180,o),
(433,-207,o),
(494,-207,cs)
);
},
{
closed = 1;
nodes = (
(398,630,o),
(415,652,o),
(415,681,cs,{
name = hr03;
}),
(415,697,ls),
(415,726,o),
(398,748,o),
(352,748,cs),
(306,748,o),
(289,726,o),
(289,697,cs),
(289,681,ls),
(289,652,o),
(306,630,o),
(352,630,cs)
);
}
);
width = 640;
},
{
layerId = master03;
shapes = (
{
closed = 1;
nodes = (
(551,-212,o),
(593,-193,o),
(610,-161,c),
(557,-110,l),
(543,-126,o),
(526,-138,o),
(502,-138,cs),
(482,-138,o),
(464,-130,o),
(464,-105,cs),
(464,-81,o),
(480,-60,o),
(578,0,c),
(578,115,l),
(426,115,l,{
name = hr01;
}),
(426,516,l),
(114,516,l),
(114,401,l),
(278,401,l),
(278,115,l),
(114,115,l),
(114,0,l),
(482,0,l),
(483,-4,l),
(409,-38,o),
(364,-71,o),
(364,-127,cs,{
name = hr02;
}),
(364,-191,o),
(422,-212,o),
(488,-212,cs)
);
},
{
closed = 1;
nodes = (
(418,582,o),
(441,613,o),
(441,652,cs,{
name = hr03;
}),
(441,681,ls),
(441,721,o),
(418,751,o),
(352,751,cs),
(286,751,o),
(263,721,o),
(263,681,cs),
(263,652,ls),
(263,613,o),
(286,582,o),
(352,582,cs)
);
}
);
width = 640;
}
);
unicode = 303;
},
{
glyphname = ij;
lastChange = "2021-02-28 18:55:49 +0000";
layers = (
{
layerId = master02;
shapes = (
{
closed = 1;
nodes = (
(205,0,l),
(205,516,l),
(125,516,l),
(125,0,l)
);
},
{
closed = 1;
nodes = (
(401,-200,ls),
(479,-200,o),
(515,-151,o),
(515,-82,cs),
(515,516,l),
(435,516,l),
(435,-132,l),
(205,-132,l),
(205,-200,l)
);
},
{
closed = 1;
nodes = (
(211,630,o),
(228,652,o),
(228,681,cs,{
name = hr01;
}),
(228,697,ls),
(228,726,o),
(211,748,o),
(165,748,cs),
(119,748,o),
(102,726,o),
(102,697,cs),
(102,681,ls),
(102,652,o),
(119,630,o),
(165,630,cs)
);
},
{
closed = 1;
nodes = (
(521,630,o),
(538,652,o),
(538,681,cs),
(538,697,ls),
(538,726,o),
(521,748,o),
(475,748,cs),
(429,748,o),
(412,726,o),
(412,697,cs),
(412,681,ls),
(412,652,o),
(429,630,o),
(475,630,cs)
);
}
);
width = 640;
},
{
layerId = master03;
shapes = (
{
closed = 1;
nodes = (
(242,0,l),
(242,516,l),
(94,516,l),
(94,0,l)
);
},
{
closed = 1;
nodes = (
(388,-200,ls),
(495,-200,o),
(546,-138,o),
(546,-51,cs),
(546,516,l),
(398,516,l),
(398,-85,l),
(242,-85,l),
(242,-200,l)
);
},
{
closed = 1;
nodes = (
(235,582,o),
(258,613,o),
(258,652,cs,{
name = hr01;
}),
(258,681,ls),
(258,721,o),
(235,751,o),
(168,751,cs),
(102,751,o),
(79,721,o),
(79,681,cs),
(79,652,ls),
(79,613,o),
(102,582,o),
(168,582,cs)
);
},
{
closed = 1;
nodes = (
(538,582,o),
(561,613,o),
(561,652,cs),
(561,681,ls),
(561,721,o),
(538,751,o),
(472,751,cs),
(405,751,o),
(382,721,o),
(382,681,cs),
(382,652,ls),
(382,613,o),
(405,582,o),
(472,582,cs)
);
}
);
width = 640;
}
);
unicode = 307;
},
{
glyphname = ijacute;
lastChange = "2021-02-28 18:55:49 +0000";
layers = (
{
layerId = master02;
shapes = (
{
closed = 1;
nodes = (
(205,0,l),
(205,516,l),
(125,516,l),
(125,0,l)
);
},
{
closed = 1;
nodes = (
(401,-200,ls),
(479,-200,o),
(515,-151,o),
(515,-82,cs),
(515,516,l),
(435,516,l),
(435,-132,l),
(205,-132,l),
(205,-200,l)
);
},
{
closed = 1;
nodes = (
(278,744,l,{
name = hr01;
}),
(205,779,l,{
name = hr02;
}),
(120,609,l,{
name = hr03;
}),
(172,585,l)
);
},
{
closed = 1;
nodes = (
(588,744,l),
(515,779,l,{
name = hr04;
}),
(430,609,l,{
name = hr05;
}),
(482,585,l)
);
}
);
width = 640;
},
{
layerId = master03;
shapes = (
{
closed = 1;
nodes = (
(242,0,l),
(242,516,l),
(94,516,l),
(94,0,l,{
name = hr00;
})
);
},
{
closed = 1;
nodes = (
(388,-200,ls),
(495,-200,o),
(546,-138,o),
(546,-51,cs),
(546,516,l),
(398,516,l),
(398,-85,l),
(242,-85,l),
(242,-200,l)
);
},
{
closed = 1;
nodes = (
(318,746,l),
(195,807,l),
(96,613,l),
(184,570,l)
);
},
{
closed = 1;
nodes = (
(622,746,l),
(499,807,l),
(400,613,l),
(488,570,l)
);
}
);
width = 640;
}
);
},
{
glyphname = dotlessj;
lastChange = "2021-02-28 18:55:49 +0000";
layers = (
{
anchors = (
{
name = top;
pos = (412,516);
}
);
layerId = master02;
shapes = (
{
closed = 1;
nodes = (
(338,-200,ls),
(416,-200,o),
(452,-151,o),
(452,-82,cs),
(452,516,l),
(113,516,l),
(113,448,l),
(372,448,l),
(372,-132,l),
(122,-132,l),
(122,-200,l,{
name = hr00;
})
);
}
);
width = 640;
},
{
anchors = (
{
name = top;
pos = (384,516);
}
);
layerId = master03;
shapes = (
{
closed = 1;
nodes = (
(301,-200,ls),
(407,-200,o),
(458,-138,o),
(458,-51,cs),
(458,516,l),
(110,516,l),
(110,401,l),
(310,401,l),
(310,-85,l),
(112,-85,l),
(112,-200,l,{
name = hr00;
})
);
}
);
width = 640;
}
);
unicode = 567;
},
{
glyphname = kgreenlandic;
lastChange = "2021-02-28 18:55:49 +0000";
layers = (
{
layerId = master02;
shapes = (
{
closed = 1;
nodes = (
(598,0,l),
(359,306,l),
(573,516,l),
(475,516,l),
(305,348,l),
(210,255,l),
(206,255,l),
(206,516,l),
(126,516,l),
(126,0,l),
(206,0,l),
(206,165,l),
(303,253,l),
(499,0,l,{
name = hr00;
})
);
}
);
width = 640;
},
{
layerId = master03;
shapes = (
{
closed = 1;
nodes = (
(608,0,l),
(387,312,l),
(587,516,l),
(417,516,l),
(309,401,l),
(240,308,l),
(233,308,l),
(233,516,l),
(85,516,l),
(85,0,l),
(233,0,l),
(233,179,l),
(282,228,l),
(432,0,l,{
name = hr00;
})
);
}
);
width = 640;
}
);
unicode = 312;
},
{
glyphname = lslash;
lastChange = "2021-02-28 18:55:49 +0000";
layers = (
{
layerId = master02;
shapes = (
{
closed = 1;
nodes = (
(540,0,l),
(540,68,l),
(360,68,l),
(360,311,l),
(513,361,l),
(513,428,l),
(360,378,l),
(360,740,l),
(100,740,l),
(100,672,l),
(280,672,l),
(280,355,l),
(127,305,l),
(127,238,l),
(280,288,l),
(280,68,l),
(100,68,l),
(100,0,l,{
name = hr00;
})
);
}
);
width = 640;
},
{
layerId = master03;
shapes = (
{
closed = 1;
nodes = (
(552,0,l),
(552,115,l),
(394,115,l),
(394,301,l),
(523,343,l),
(523,452,l),
(394,410,l),
(394,740,l),
(88,740,l),
(88,625,l),
(246,625,l),
(246,365,l),
(117,323,l),
(117,214,l),
(246,256,l),
(246,115,l),
(88,115,l),
(88,0,l,{
name = hr00;
})
);
}
);
width = 640;
}
);
unicode = 322;
},
{
glyphname = napostrophe;
lastChange = "2021-02-28 18:55:49 +0000";
layers = (
{
layerId = master02;
shapes = (
{
closed = 1;
nodes = (
(198,0,l),
(198,358,l),
(198,426,o),
(262,457,o),
(326,457,cs),
(405,457,o),
(448,411,o),
(448,317,cs),
(448,0,l),
(528,0,l),
(528,331,ls),
(528,456,o),
(457,528,o),
(349,528,cs),
(264,528,o),
(224,483,o),
(202,432,c),
(198,432,l),
(198,516,l,{
name = hr01;
}),
(118,516,l),
(118,0,l)
);
},
{
closed = 1;
nodes = (
(73,555,l),
(125,740,l),
(32,740,l),
(20,555,l,{
name = hr02;
})
);
}
);
width = 640;
},
{
layerId = master03;
shapes = (
{
closed = 1;
nodes = (
(271,0,l),
(271,339,l),
(271,393,o),
(311,420,o),
(353,420,cs),
(403,420,o),
(429,382,o),
(429,314,cs),
(429,0,l),
(569,0,l),
(569,342,ls),
(569,467,o),
(509,528,o),
(420,528,cs),
(341,528,o),
(298,480,o),
(277,422,c),
(271,422,l),
(271,516,l,{
name = hr01;
}),
(131,516,l),
(131,0,l)
);
},
{
closed = 1;
nodes = (
(89,529,l),
(155,740,l),
(26,740,l),
(20,529,l,{
name = hr02;
})
);
}
);
width = 640;
}
);
unicode = 329;
},
{
glyphname = eng;
lastChange = "2021-02-28 18:55:49 +0000";
layers = (
{
layerId = master02;
shapes = (
{
closed = 1;
nodes = (
(414,-200,ls),
(492,-200,o),
(528,-151,o),
(528,-82,cs),
(528,331,ls),
(528,456,o),
(457,528,o),
(349,528,cs),
(264,528,o),
(224,483,o),
(202,432,c),
(198,432,l),
(198,516,l,{
name = hr01;
}),
(118,516,l),
(118,0,l),
(198,0,l),
(198,358,l),
(198,426,o),
(262,457,o),
(326,457,cs,{
name = hr02;
}),
(405,457,o),
(448,411,o),
(448,317,cs),
(448,-132,l),
(198,-132,l),
(198,-200,l)
);
}
);
width = 640;
},
{
layerId = master03;
shapes = (
{
closed = 1;
nodes = (
(402,-200,ls),
(509,-200,o),
(559,-138,o),
(559,-51,cs),
(559,334,ls),
(559,459,o),
(490,528,o),
(391,528,cs),
(308,528,o),
(262,480,o),
(239,422,c),
(233,422,l),
(233,516,l,{
name = hr01;
}),
(85,516,l),
(85,0,l),
(233,0,l),
(233,339,l),
(233,389,o),
(278,414,o),
(324,414,cs,{
name = hr02;
}),
(382,414,o),
(411,379,o),
(411,314,cs),
(411,-85,l),
(233,-85,l),
(233,-200,l)
);
}
);
width = 640;
}
);
unicode = 331;
},
{
glyphname = oslash;
lastChange = "2021-02-28 18:55:49 +0000";
layers = (
{
anchors = (
{
name = top;
pos = (320,516);
}
);
layerId = master02;
shapes = (
{
closed = 1;
nodes = (
(175,37,l),
(213,6,o),
(262,-12,o),
(320,-12,cs),
(465,-12,o),
(554,94,o),
(554,258,cs),
(554,330,o),
(536,392,o),
(504,438,c),
(573,522,l),
(528,556,l),
(465,479,l),
(427,510,o),
(378,528,o),
(320,528,cs),
(175,528,o),
(86,422,o),
(86,258,cs),
(86,186,o),
(104,124,o),
(136,78,c),
(67,-6,l),
(112,-40,l,{
name = hr00;
})
);
},
{
closed = 1;
nodes = (
(361,459,o),
(396,448,o),
(421,425,c),
(186,138,l),
(176,160,o),
(171,189,o),
(171,221,cs),
(171,295,ls),
(171,406,o),
(231,459,o),
(320,459,cs)
);
},
{
closed = 1;
nodes = (
(279,57,o),
(244,68,o),
(219,91,c),
(454,378,l),
(464,356,o),
(469,327,o),
(469,295,cs),
(469,221,ls),
(469,110,o),
(409,57,o),
(320,57,cs)
);
}
);
width = 640;
},
{
anchors = (
{
name = top;
pos = (320,516);
}
);
layerId = master03;
shapes = (
{
closed = 1;
nodes = (
(189,18,l),
(225,-1,o),
(270,-12,o),
(320,-12,cs),
(481,-12,o),
(579,91,o),
(579,258,cs),
(579,328,o),
(562,387,o),
(528,432,c),
(597,515,l),
(515,575,l),
(451,498,l),
(415,517,o),
(370,528,o),
(320,528,cs),
(159,528,o),
(61,425,o),
(61,258,cs),
(61,188,o),
(78,129,o),
(112,84,c),
(43,1,l),
(125,-59,l,{
name = hr00;
})
);
},
{
closed = 1;
nodes = (
(344,418,o),
(365,412,o),
(381,401,c),
(216,200,l),
(214,207,o),
(214,217,o),
(214,225,cs),
(214,299,ls),
(214,375,o),
(254,418,o),
(320,418,cs)
);
},
{
closed = 1;
nodes = (
(296,98,o),
(275,104,o),
(259,115,c),
(424,316,l),
(426,309,o),
(426,299,o),
(426,291,cs),
(426,217,ls),
(426,141,o),
(386,98,o),
(320,98,cs)
);
}
);
width = 640;
}
);
unicode = 248;
},
